<svg width="84" height="96" viewBox="0 0 84 96" fill="none" xmlns="http://www.w3.org/2000/svg">
<g clip-path="url(#clip0_616_390)">
<path d="M82.4453 79.68C78.5586 81.024 71.8106 89.76 71.8106 89.76L70.1033 90.8928C70.1033 90.8928 71.1858 94.224 73.1602 95.8272C73.2025 95.8564 73.2472 95.8821 73.2937 95.904C73.6323 94.1856 74.5479 91.1328 77.0468 86.9808C79.9082 82.2624 82.0256 80.1792 83.5755 79.8624C83.4218 79.7307 83.2351 79.6441 83.0358 79.6119C82.8365 79.5797 82.6322 79.6033 82.4453 79.68V79.68Z" fill="#B269E2"/>
<path d="M77.0326 86.9807C74.5336 91.1327 73.618 94.1807 73.2794 95.9039C75.2299 96.8639 80.2087 90.3983 82.5741 85.6991C84.2766 82.3391 84.2432 80.4911 83.5612 79.8623C82.0256 80.1599 79.8749 82.2623 77.0326 86.9807Z" fill="#FECB27"/>
<path d="M80.7905 81.9168C80.9467 81.8649 81.106 81.8232 81.2674 81.792C81.6234 81.7271 81.9836 81.6886 82.3452 81.6768C82.7067 81.6666 83.0685 81.6826 83.4278 81.7248C83.5887 81.7458 83.7481 81.7778 83.9046 81.8208C83.7493 81.8754 83.5898 81.9171 83.4278 81.9456C83.0718 82.011 82.7116 82.0495 82.35 82.0608C81.99 82.0734 81.6296 82.0574 81.2722 82.0128C81.1096 81.9921 80.9487 81.96 80.7905 81.9168Z" fill="#F39F00"/>
<path d="M78.9449 84.1199C79.1754 84.0483 79.4094 83.9891 79.646 83.9423C80.0656 83.8559 80.6379 83.7695 81.2054 83.7119C81.7301 83.6626 82.257 83.6418 82.7839 83.6495C83.0262 83.651 83.2681 83.6655 83.5088 83.6927C83.2769 83.7634 83.0413 83.8211 82.803 83.8655C82.2879 83.9715 81.7673 84.0485 81.2436 84.0959C80.719 84.1466 80.192 84.1691 79.6651 84.1631C79.4244 84.1618 79.184 84.1474 78.9449 84.1199V84.1199Z" fill="#F39F00"/>
<path d="M77.5095 86.3615C77.7652 86.2828 78.0246 86.2172 78.2869 86.1647C78.7638 86.0639 79.3789 85.9631 80.0084 85.8911C80.6379 85.8191 81.2722 85.7855 81.7539 85.7807C82.2355 85.7759 82.5503 85.7807 82.5503 85.7807C82.2963 85.8598 82.0385 85.9255 81.7777 85.9775C81.3008 86.0783 80.6809 86.1839 80.0514 86.2559C79.4219 86.3279 78.7876 86.3615 78.3107 86.3663C77.8338 86.3711 77.5095 86.3615 77.5095 86.3615Z" fill="#F39F00"/>
<path d="M76.1312 88.4207C76.1312 88.4207 76.4555 88.3151 76.9515 88.2095C77.4475 88.1039 78.1103 87.9887 78.7732 87.9071C79.4361 87.8255 80.1085 87.7775 80.6188 87.7679C81.1291 87.7583 81.4629 87.7679 81.4629 87.7679C81.4629 87.7679 81.1386 87.8735 80.6426 87.9791C80.1467 88.0847 79.4838 88.1951 78.8209 88.2767C78.158 88.3583 77.4808 88.4063 76.9753 88.4159C76.4698 88.4255 76.1312 88.4207 76.1312 88.4207Z" fill="#F39F00"/>
<path d="M74.939 90.9551C75.186 90.8678 75.4375 90.7941 75.6925 90.7343C76.1455 90.6191 76.7607 90.4943 77.3759 90.4031C77.9911 90.3119 78.6158 90.2543 79.0832 90.2351C79.5505 90.2159 79.87 90.2351 79.87 90.2351C79.87 90.2351 79.5744 90.3407 79.1165 90.4559C78.6587 90.5711 78.0483 90.6911 77.4331 90.7823C76.8179 90.8735 76.1932 90.9311 75.7258 90.9503C75.4638 90.9651 75.2012 90.9667 74.939 90.9551V90.9551Z" fill="#F39F00"/>
<path d="M74.114 92.8753C74.3234 92.7998 74.5368 92.7357 74.753 92.6832C75.2247 92.5685 75.7023 92.4803 76.1837 92.4192C76.6582 92.3568 77.1359 92.3231 77.6144 92.3184C77.8368 92.3066 78.0597 92.3066 78.2821 92.3184C78.0726 92.3939 77.8593 92.458 77.643 92.5104C77.1714 92.6265 76.6938 92.7163 76.2123 92.7792C75.7374 92.837 75.2599 92.8706 74.7817 92.88C74.5592 92.8924 74.3363 92.8908 74.114 92.8753V92.8753Z" fill="#F39F00"/>
<path d="M73.6133 94.4256C73.7679 94.3617 73.9274 94.3103 74.0902 94.272C74.429 94.1898 74.7733 94.1321 75.1203 94.0992C75.4695 94.0731 75.8202 94.0731 76.1694 94.0992C76.3296 94.112 76.4888 94.1345 76.6463 94.1664C76.4914 94.2295 76.332 94.2809 76.1694 94.32C75.8311 94.4045 75.4866 94.4622 75.1393 94.4928C74.7918 94.5213 74.4425 94.5213 74.0949 94.4928C73.9328 94.4835 73.7718 94.4611 73.6133 94.4256V94.4256Z" fill="#F39F00"/>
<path d="M48.9674 79.6223C49.3966 81.2447 50.0595 83.7119 50.0595 83.7119C50.0595 83.7119 54.5089 93.3119 57.542 93.3983C57.5804 93.3913 57.6164 93.3748 57.6469 93.3503C56.8999 87.9091 55.1585 82.6541 52.5107 77.8511C51.5331 77.9759 50.2264 78.6527 48.9674 79.6223Z" fill="#B269E2"/>
<path d="M53.846 78.336C53.6967 78.1308 53.4896 77.9753 53.2516 77.8898C53.0135 77.8042 52.7555 77.7925 52.5107 77.856C55.1585 82.6591 56.8999 87.9141 57.6469 93.3552C58.553 92.64 56.7742 84.1824 53.846 78.336Z" fill="#FECB27"/>
<path d="M19.0137 70.56C19.3185 71.5637 19.7344 72.5297 20.2536 73.44C18.1505 79.5936 18.5368 85.6512 21.9752 89.208C25.4136 92.7648 36.282 91.8048 50.0595 83.7264L48.7242 79.0176L28.2797 84.8688C27.999 82.4756 28.3613 80.0505 29.3289 77.8464C32.6672 78.6192 36.3011 77.2704 40.9842 75.7344C52.3533 76.1184 60.2793 79.1952 69.4547 92.1744C71.2182 90.5608 72.7594 88.7173 74.0377 86.6928C74.0377 86.6928 59.8978 65.6352 38.6903 68.328C30.669 70.6368 19.0137 70.56 19.0137 70.56Z" fill="#004B7F"/>
<path d="M43.0206 38.5823C43.0206 38.5823 33.8547 38.7983 27.2831 39.4799C27.45 41.1551 27.4691 43.8671 25.8524 43.7999C24.1404 43.7087 23.9448 41.2415 23.9448 39.9023C19.0757 40.5791 13.477 42.6431 13.5342 55.6799C17.2922 56.6399 17.6117 56.4479 17.6117 56.4479L17.8644 71.3279C17.8644 71.3279 32.4288 72.3647 39.0099 68.5199C39.0099 68.5199 38.3709 48.9695 38.0561 44.8031H42.3195C42.7664 42.7595 43.0014 40.6747 43.0206 38.5823V38.5823Z" fill="#00A84C"/>
<path d="M25.8237 43.7761C27.4595 43.8673 27.4404 41.1553 27.2544 39.4561C26.663 39.5185 26.0908 39.5809 25.5519 39.6481C25.013 39.7153 24.4741 39.7729 23.9161 39.8545C23.9161 41.2177 24.1117 43.6801 25.8237 43.7761Z" fill="#D4A87F"/>
<g style="mix-blend-mode:multiply">
<g style="mix-blend-mode:multiply">
<path d="M42.3196 44.8032C42.3196 44.8032 42.558 43.7568 42.7535 42.3408L35.4427 42.5664C35.4427 42.5664 36.8734 43.3584 38.2326 47.9568C38.1706 46.5936 38.1086 45.4896 38.0561 44.8032H42.3196Z" fill="#00A84C"/>
</g>
</g>
<g style="mix-blend-mode:multiply">
<g style="mix-blend-mode:multiply">
<path d="M21.2408 47.4287L17.2349 56.4719C17.359 56.4994 17.4875 56.4994 17.6116 56.4719L17.8644 71.3519C20.641 71.5054 23.4239 71.5054 26.2005 71.3519C20.7925 62.4431 21.2408 47.4287 21.2408 47.4287Z" fill="#00A84C"/>
</g>
</g>
<path d="M59.0727 25.2479C59.0727 25.2479 60.7895 22.8143 62.1296 23.0687C63.4697 23.3231 64.5474 26.5343 63.9752 28.3919C63.4649 29.7359 61.2378 29.1599 59.583 28.0703C58.1189 27.0431 58.4337 26.4671 59.0727 25.2479Z" fill="#EFCAA6"/>
<path d="M54.2063 14.313L53.5717 14.6128L63.7199 36.3784L64.3545 36.0787L54.2063 14.313Z" fill="#E2AA6D"/>
<path d="M58.016 13.2849L57.3367 13.459L63.2288 36.7593L63.9082 36.5853L58.016 13.2849Z" fill="#F9C485"/>
<path d="M38.5187 15.6769C38.1467 15.7105 36.8305 14.6209 36.4251 12.6193C35.147 14.4529 32.7149 15.9121 32.3429 15.7777C31.9709 15.6433 32.9056 12.3457 32.9056 12.3457C32.9056 12.3457 28.6136 16.4209 27.45 16.3537C26.2864 16.2865 27.4166 14.0449 27.4166 14.0449C27.4166 14.0449 22.5904 17.7601 22.0849 18.1873C21.5794 18.6145 21.8179 17.2801 22.352 15.3601C16.1142 23.3425 16.5196 21.2017 16.82 19.1281C16.1476 20.1169 14.7646 25.9921 14.1876 31.2577C12.9047 28.0945 11.1164 28.0609 10.0052 29.6593C8.48394 32.0593 10.5775 35.6689 12.2657 35.0593C13.171 36.6844 14.5175 38.0164 16.1476 38.8993C21.589 40.7281 24.3836 40.6081 29.6628 39.4273C34.942 38.2465 42.6104 35.0401 40.0304 23.1361C39.4772 19.5121 41.2274 17.1169 40.0304 13.6273C39.11 12.1249 38.5616 11.3953 38.5616 11.3953C38.5616 11.3953 38.8907 15.6385 38.5187 15.6769Z" fill="#F4D9BF"/>
<path d="M41.4511 7.07468C45.2663 4.67468 44.632 4.59788 44.2124 4.19468C43.7927 3.79148 41.0124 4.11308 39.5817 4.53548C36.2864 0.849082 29.9962 -1.86772 18.7224 1.59788C11.2733 3.22988 4.89248 8.31788 3.2472 13.4251C2.00728 12.2683 1.43024 11.7883 1.43024 11.7883C1.23863 12.9534 1.47786 14.1487 2.10266 15.1483C-0.0958222 15.7291 -0.381958 16.1179 0.381071 16.3195C1.1441 16.5211 1.72114 16.7035 1.72114 16.7035C0.449213 20.8094 0.686172 25.2388 2.38879 29.1835C5.25015 35.8171 10.496 39.8587 16.1472 38.8939C14.517 38.0111 13.1705 36.6791 12.2653 35.0539C10.5771 35.6635 8.48349 32.0299 10.0048 29.6539C11.1159 28.0555 12.9043 28.0891 14.1871 31.2523C14.7642 25.9723 16.1472 20.1115 16.8196 19.1227C16.5191 21.1963 16.1138 23.3371 22.3516 15.3547C21.8174 17.2747 21.579 18.5803 22.0845 18.1723C22.59 17.7643 27.4162 14.0299 27.4162 14.0299C27.4162 14.0299 26.2669 16.2715 27.4495 16.3387C28.6322 16.4059 32.9052 12.3451 32.9052 12.3451C32.9052 12.3451 31.9514 15.6379 32.3425 15.7771C32.7335 15.9163 35.1466 14.4523 36.4247 12.6187C36.83 14.6203 38.1463 15.7099 38.5182 15.6763C38.8902 15.6427 38.585 11.3947 38.585 11.3947C38.585 11.3947 39.1334 12.1243 40.0538 13.6267C40.0109 13.5067 39.9775 13.3915 39.9298 13.2667C39.9298 13.2667 41.8374 15.6139 42.5337 15.4747C43.23 15.3355 41.4893 10.6459 41.4893 10.6459C41.4893 10.6459 44.4317 11.7883 45.2711 12.2107C45.953 12.5755 44.3506 8.10188 41.4511 7.07468Z" fill="#F39F00"/>
<path d="M27.5596 24.4031C27.5596 25.2767 27.8744 25.9343 28.2225 25.8719C28.5706 25.8095 28.8472 25.0511 28.8282 24.1775C28.8091 23.3039 28.5182 22.6463 28.17 22.7087C27.8219 22.7711 27.5453 23.5199 27.5596 24.4031Z" fill="#673121"/>
<path d="M28.275 23.6111C28.2988 23.8703 28.4037 24.0575 28.5134 24.0287C28.6231 23.9999 28.6803 23.7695 28.6565 23.5055C28.6326 23.2415 28.5277 23.0591 28.4228 23.0879C28.3179 23.1167 28.2511 23.3519 28.275 23.6111Z" fill="white"/>
<path d="M36.3393 24.2976C36.3393 25.176 36.6493 25.8336 37.0022 25.7712C37.3551 25.7088 37.6222 24.9504 37.6079 24.0768C37.5936 23.2032 37.2979 22.5408 36.945 22.608C36.5921 22.6752 36.3202 23.424 36.3393 24.2976Z" fill="#673121"/>
<path d="M37.0547 23.5201C37.0547 23.7841 37.1834 23.9713 37.2884 23.9425C37.3933 23.9137 37.46 23.6785 37.4362 23.4193C37.4124 23.1601 37.3074 22.9729 37.1978 23.0017C37.0881 23.0305 37.0261 23.2465 37.0547 23.5201Z" fill="white"/>
<g style="mix-blend-mode:multiply">
<path d="M13.4055 29.8032C13.3237 29.6142 13.2537 29.4202 13.1957 29.2224C13.1385 29.0448 13.0812 28.8432 13.0288 28.6176C12.9763 28.392 12.9429 28.1376 12.9048 27.912C12.8471 27.4662 12.8137 27.0175 12.8046 26.568C12.8036 26.3629 12.8132 26.1578 12.8333 25.9536C12.9094 26.1461 12.9732 26.3433 13.024 26.544C13.1371 26.9701 13.2232 27.4029 13.2815 27.84C13.3101 28.08 13.334 28.32 13.3626 28.5456C13.3912 28.7712 13.4055 28.9872 13.4103 29.1696C13.4231 29.3807 13.4215 29.5924 13.4055 29.8032V29.8032Z" fill="#F39F00"/>
</g>
<g style="mix-blend-mode:multiply" opacity="0.5">
<g style="mix-blend-mode:multiply" opacity="0.5">
<path d="M41.0128 12.4512C40.0972 12.7392 38.1515 9.39842 38.1515 9.39842C38.1515 9.39842 38.7285 12.9696 37.9798 13.0848C37.2311 13.2 36.6063 9.80162 36.6063 9.80162C36.6063 9.80162 35.3473 13.488 34.1456 13.5456C32.9438 13.6032 34.2028 9.34082 34.2028 9.34082C34.2028 9.34082 29.3099 15.216 28.2226 15.1584C27.1352 15.1008 30.1683 10.08 30.1683 10.08C30.1683 10.08 24.3836 16.0224 23.5252 16.08C22.6667 16.1376 25.6426 11.28 25.6426 11.28C25.6426 11.28 23.5824 13.0656 20.721 15.888C17.8597 18.7104 17.4591 17.808 18.5464 13.968C18.5464 13.968 15.4513 19.44 14.2543 25.32C13.7393 27.6816 13.167 25.8384 12.5948 23.3616C11.8508 25.1472 12.3658 27.6816 12.3658 27.6816C11.6797 27.609 10.9882 27.7553 10.3891 28.0998C9.79008 28.4444 9.31379 28.9697 9.02759 29.6016C7.88305 31.8528 10.1149 34.7904 8.07381 34.4016C6.0327 34.0128 0.615192 29.4432 0.991938 20.3376C0.708181 23.3605 1.18715 26.4066 2.38447 29.1936C5.24583 35.8272 10.4917 39.8688 16.1428 38.904C14.5127 38.0212 13.1662 36.6892 12.2609 35.064C10.5727 35.6736 8.47916 32.04 10.0005 29.664C11.1116 28.0656 12.9 28.0992 14.1828 31.2624C14.7599 25.9824 16.1428 20.1216 16.8153 19.1328C16.5148 21.2064 16.1095 23.3472 22.3472 15.3648C21.8131 17.2848 21.5747 18.5904 22.0802 18.1824C22.5857 17.7744 27.4118 14.04 27.4118 14.04C27.4118 14.04 26.2625 16.2816 27.4452 16.3488C28.6279 16.416 32.9056 12.3456 32.9056 12.3456C32.9056 12.3456 31.9519 15.6384 32.3429 15.7776C32.734 15.9168 35.147 14.4528 36.4251 12.6192C36.8305 14.6208 38.1467 15.7104 38.5187 15.6768C38.8907 15.6432 38.5854 11.3952 38.5854 11.3952C38.5854 11.3952 39.1339 12.1248 40.0543 13.6272C40.0114 13.5072 39.978 13.392 39.9303 13.2672C39.9303 13.2672 41.8379 15.6144 42.5341 15.4752C43.2304 15.336 41.4897 10.6464 41.4897 10.6464C41.4897 10.6464 44.4322 11.7888 45.2715 12.2112C45.5242 12.3504 45.4432 11.7888 45.095 10.9872C44.4417 10.9248 43.2495 10.5696 41.0844 9.45602C41.1034 9.45602 41.9046 12.1632 41.0128 12.4512Z" fill="#F39F00"/>
</g>
</g>
<path d="M33.5685 55.2C33.5685 55.2 33.8403 57.552 34.1598 60.3552C36.1532 60.6576 40.7028 61.1568 44.2795 60.0816L44.5847 55.2H33.5685Z" fill="#DFEFE7"/>
<path d="M34.1599 60.3311C34.6368 64.2575 35.1566 69.0719 35.19 69.5759C35.252 70.4447 36.3536 70.5887 39.649 70.5359C42.9443 70.4831 43.5643 70.0079 43.6596 69.2351C43.7169 68.7791 44.0316 63.9311 44.2796 60.0527C40.7029 61.1327 36.1533 60.6335 34.1599 60.3311Z" fill="#EC4C54"/>
<g style="mix-blend-mode:multiply">
<g style="mix-blend-mode:multiply">
<path d="M34.6224 55.6416C34.6893 55.885 34.7434 56.1317 34.7846 56.3808C34.8656 56.8272 34.9419 57.4224 34.9896 58.0176C35.0373 58.6128 35.0421 59.2128 35.0278 59.664C35.0239 59.916 35.0064 60.1676 34.9753 60.4176C34.9054 60.1763 34.8497 59.9311 34.8084 59.6832C34.7138 59.1414 34.6469 58.5951 34.6081 58.0464C34.5652 57.4464 34.5509 56.8464 34.5652 56.3952C34.5795 55.944 34.6224 55.6416 34.6224 55.6416Z" fill="#DFEFE7"/>
</g>
<g style="mix-blend-mode:multiply">
<path d="M35.6573 55.8191C35.7124 56.0616 35.7554 56.3067 35.786 56.5535C35.8583 57.0884 35.9028 57.6267 35.9196 58.1663C35.94 58.7056 35.9305 59.2457 35.891 59.7839C35.8763 60.0317 35.8476 60.2785 35.8051 60.5231C35.8051 60.5231 35.7336 60.2303 35.6716 59.7935C35.6014 59.2569 35.5584 58.717 35.5428 58.1759C35.5247 57.6366 35.5343 57.0966 35.5714 56.5583C35.5861 56.3105 35.6147 56.0637 35.6573 55.8191V55.8191Z" fill="#DFEFE7"/>
</g>
<g style="mix-blend-mode:multiply">
<path d="M36.8399 55.9199C36.8984 56.1606 36.9446 56.4041 36.9782 56.6495C37.0538 57.181 37.1016 57.7162 37.1213 58.2527C37.1487 58.79 37.1487 59.3283 37.1213 59.8655C37.1095 60.1102 37.0824 60.3539 37.0402 60.5951C37.0402 60.5951 36.9687 60.3071 36.9067 59.8703C36.831 59.3388 36.7833 58.8037 36.7636 58.2671C36.7364 57.7315 36.7364 57.1948 36.7636 56.6591C36.7874 56.2175 36.8399 55.9199 36.8399 55.9199Z" fill="#DFEFE7"/>
</g>
<g style="mix-blend-mode:multiply">
<path d="M38.2801 55.9727C38.3352 56.2133 38.3766 56.4569 38.4041 56.7023C38.4708 57.2343 38.5106 57.7694 38.5233 58.3055C38.5233 58.8911 38.5234 59.4767 38.4757 59.9135C38.4586 60.16 38.4268 60.4052 38.3803 60.6479C38.3803 60.6479 38.3135 60.3599 38.2563 59.9231C38.1991 59.4863 38.1561 58.9007 38.1371 58.3151C38.118 57.7295 38.1371 57.1439 38.1848 56.7071C38.2324 56.2703 38.2801 55.9727 38.2801 55.9727Z" fill="#DFEFE7"/>
</g>
<g style="mix-blend-mode:multiply">
<path d="M39.6202 55.9727C39.6202 55.9727 39.687 56.2655 39.7442 56.7071C39.8015 57.1487 39.8444 57.7391 39.8587 58.3343C39.8726 58.8754 39.8583 59.417 39.8158 59.9567C39.7776 60.4031 39.7204 60.7007 39.7204 60.7007C39.6654 60.4568 39.624 60.21 39.5964 59.9615C39.5274 59.4232 39.4876 58.8816 39.4772 58.3391C39.4772 57.7487 39.4772 57.1583 39.5249 56.7119C39.5726 56.2655 39.6202 55.9727 39.6202 55.9727Z" fill="#DFEFE7"/>
</g>
<g style="mix-blend-mode:multiply">
<path d="M41.1082 55.9487C41.1592 56.1913 41.1974 56.4365 41.2227 56.6831C41.2703 57.1199 41.3085 57.7103 41.3133 58.2959C41.318 58.8815 41.2847 59.4719 41.2417 59.9135C41.2191 60.16 41.1841 60.4051 41.1368 60.6479C41.0858 60.4053 41.0476 60.1602 41.0224 59.9135C40.9641 59.3779 40.9338 58.8396 40.9318 58.3007C40.926 57.7606 40.9499 57.2206 41.0033 56.6831C41.0259 56.4367 41.0609 56.1916 41.1082 55.9487V55.9487Z" fill="#DFEFE7"/>
</g>
<g style="mix-blend-mode:multiply">
<path d="M42.3958 55.8191C42.443 56.0571 42.4781 56.2974 42.5008 56.5391C42.5536 57.0654 42.579 57.5941 42.5771 58.1231C42.5747 58.6507 42.5445 59.1779 42.4865 59.7023C42.4614 59.9426 42.4232 60.1814 42.372 60.4175C42.3245 60.1811 42.2895 59.9424 42.2671 59.7023C42.2143 59.176 42.1888 58.6473 42.1908 58.1183C42.1943 57.5906 42.2262 57.0634 42.2862 56.5391C42.3338 56.1071 42.3958 55.8191 42.3958 55.8191Z" fill="#DFEFE7"/>
</g>
<g style="mix-blend-mode:multiply">
<path d="M43.5832 55.6416C43.6184 55.8834 43.6406 56.127 43.6499 56.3712C43.6499 56.808 43.6499 57.3888 43.6499 57.9648C43.6183 58.4971 43.5594 59.0274 43.4735 59.5536C43.402 59.9808 43.3209 60.2688 43.3209 60.2688C43.2857 60.027 43.2634 59.7834 43.2541 59.5392C43.226 59.0084 43.226 58.4764 43.2541 57.9456C43.2858 57.4133 43.3447 56.883 43.4306 56.3568C43.469 56.1159 43.52 55.8772 43.5832 55.6416V55.6416Z" fill="#DFEFE7"/>
</g>
</g>
<g style="mix-blend-mode:multiply">
<path d="M20.7306 49.4832C20.7306 49.776 20.7306 50.0688 20.7306 50.3568C20.7306 50.6448 20.7306 50.9424 20.7306 51.2352C20.7306 51.8208 20.7306 52.4016 20.6781 52.9872C20.6256 54.1536 20.5493 55.3152 20.4397 56.4767V56.6351H20.2966L18.9565 56.5727C18.7324 56.5727 18.513 56.5439 18.2889 56.5295C18.0647 56.5151 17.8406 56.4959 17.6212 56.4719C17.8406 56.4719 18.0647 56.4335 18.2889 56.4191L18.9565 56.3711L20.2966 56.3135L20.1344 56.4623C20.1774 55.2959 20.2489 54.1296 20.3395 52.968C20.3872 52.3872 20.4492 51.8064 20.5112 51.2256C20.5398 50.9376 20.5732 50.6448 20.6161 50.3568C20.659 50.0688 20.6829 49.7712 20.7306 49.4832Z" fill="#5BB354"/>
</g>
<path d="M30.3351 43.5696L30.4257 43.8864C30.4782 44.088 30.564 44.3664 30.6499 44.7264C30.8216 45.4272 31.0219 46.3632 31.1888 47.3088C31.3557 48.2544 31.4892 49.2 31.5703 49.92C31.6084 50.2752 31.6275 50.5776 31.6514 50.784C31.6752 50.9904 31.6514 51.1152 31.6514 51.1152C31.6514 51.1152 31.6132 51 31.556 50.7984C31.4988 50.5968 31.4177 50.3184 31.3318 49.9584C31.1602 49.2576 30.9599 48.3168 30.793 47.376C30.626 46.4352 30.4925 45.4848 30.4162 44.7696C30.3733 44.4096 30.3542 44.1072 30.3351 43.9008C30.3161 43.6944 30.3351 43.5696 30.3351 43.5696Z" fill="black"/>
<path d="M29.0906 44.0977C29.0906 44.0977 29.2289 44.4865 29.3862 45.0577C29.5436 45.6289 29.7248 46.4401 29.8631 47.2417C30.0014 48.0433 30.1254 48.8449 30.1922 49.4545C30.259 50.0641 30.2733 50.4721 30.2733 50.4721C30.2733 50.4721 30.1302 50.0833 29.9776 49.5121C29.825 48.9409 29.6342 48.1297 29.5007 47.3281C29.3672 46.5265 29.2336 45.7249 29.1716 45.1153C29.1097 44.5057 29.0906 44.0977 29.0906 44.0977Z" fill="black"/>
<path d="M44.6611 45.5376C44.6611 45.5376 44.7899 45.9312 44.9282 46.4976C45.0665 47.064 45.2239 47.8848 45.3526 48.6816C45.4814 49.4784 45.572 50.2848 45.6149 50.8944C45.6578 51.504 45.6674 51.912 45.6674 51.912C45.6674 51.912 45.5386 51.5184 45.4003 50.952C45.262 50.3856 45.0999 49.5648 44.9759 48.768C44.8519 47.9712 44.7565 47.1648 44.7136 46.5552C44.6707 45.9456 44.6611 45.5376 44.6611 45.5376Z" fill="black"/>
<path d="M46.0488 44.7695C46.0488 44.7695 46.1632 45.1247 46.292 45.6719C46.4208 46.2191 46.559 46.9439 46.664 47.6735C46.7689 48.4031 46.85 49.1471 46.8833 49.7039C46.9167 50.2607 46.8833 50.6351 46.8833 50.6351C46.8833 50.6351 46.7689 50.2799 46.6401 49.7375C46.5114 49.1951 46.3731 48.4655 46.2634 47.7311C46.1537 46.9967 46.0822 46.2575 46.0488 45.7007C46.0154 45.1439 46.0488 44.7695 46.0488 44.7695Z" fill="black"/>
<path d="M27.5167 49.3391C27.5167 49.3391 26.4628 53.7599 24.9844 53.3759C23.5061 52.9919 25.8905 50.2511 27.5167 49.3391Z" fill="#78D7E6"/>
<path d="M28.6137 52.4639C28.6137 52.4639 27.7076 55.4927 28.709 55.5407C29.7105 55.5887 28.6137 52.4639 28.6137 52.4639Z" fill="#78D7E6"/>
<path d="M34.6797 52.5121C34.6797 52.5121 32.9581 51.8401 33.2491 51.1633C33.54 50.4865 34.6797 52.5121 34.6797 52.5121Z" fill="#F39F00"/>
<path d="M41.9667 51.6911C41.9667 51.6911 41.919 49.1422 42.9205 49.435C43.9219 49.7278 41.9667 51.6911 41.9667 51.6911Z" fill="#F39F00"/>
<path d="M42.9443 35.7311C42.9443 35.7311 44.5658 32.2223 46.0966 32.6543C47.2125 33.2783 44.2319 35.1071 42.9443 35.7311Z" fill="#78D7E6"/>
<path d="M43.5642 37.032C43.5642 37.032 47.098 35.9712 47.4318 37.08C47.7656 38.1888 44.4226 37.848 43.5642 37.032Z" fill="#78D7E6"/>
<path d="M19.1234 56.5344C18.9571 57.9034 18.9748 59.2886 19.1759 60.6528C19.4858 63.2064 23.63 63.0528 27.0971 63.4656C29.6341 63.5712 29.9966 63.2016 31.6037 61.5888C33.2108 59.976 35.0707 59.2944 38.9049 59.976C40.7696 60.4944 41.5422 62.376 40.2498 62.3184C39.4725 62.2128 38.6951 61.224 35.9577 61.5888C37.975 61.6416 38.781 62.5488 39.7109 64.2C40.0924 64.68 39.9255 65.136 39.7109 64.944C40.2355 65.952 40.0924 66.696 39.7109 66.48C40.1163 67.56 39.5917 68.352 38.5425 67.56C37.4933 66.768 35.8004 66.384 34.632 66.816C33.4636 67.248 31.2937 68.256 29.2479 66.816C28.6756 66.552 24.2405 66.6864 20.8307 65.7552C17.6498 64.7952 16.0618 63.8976 15.6421 60.4368C15.4293 59.0477 15.3653 57.6397 15.4513 56.2368L19.1234 56.5344Z" fill="#F4D9BF"/>
<path d="M35.2902 64.6656C35.5464 64.5925 35.8108 64.5522 36.077 64.5456C36.3519 64.5351 36.6271 64.5561 36.8973 64.608C37.0451 64.6416 37.2025 64.6848 37.3742 64.7376C37.5459 64.7904 37.6842 64.8864 37.8129 64.9776C38.328 65.3376 38.8192 65.7216 39.1768 66.0288C39.5345 66.336 39.7587 66.5664 39.7587 66.5664C39.7587 66.5664 39.463 66.4368 39.0529 66.2112C38.6427 65.9856 38.0991 65.6496 37.6222 65.2944C37.4982 65.208 37.3742 65.1552 37.2502 65.0784C37.1262 65.0016 36.9879 64.9776 36.8544 64.9344C36.7208 64.8912 36.5921 64.8576 36.4633 64.8336C36.3346 64.8096 36.2153 64.7808 36.1009 64.7664C35.5858 64.6944 35.2902 64.6656 35.2902 64.6656Z" fill="#C39368"/>
<path d="M35.2902 63.0049C35.5488 62.9332 35.8141 62.8881 36.0818 62.8705C36.201 62.8705 36.3298 62.8705 36.4729 62.8705C36.6195 62.8693 36.766 62.8773 36.9116 62.8945C37.0642 62.8945 37.2216 62.9473 37.3885 62.9761L37.6317 63.0673L37.7509 63.1153C37.791 63.1341 37.8293 63.1566 37.8654 63.1825L38.266 63.4321C38.3979 63.5172 38.5223 63.6136 38.638 63.7201C38.7544 63.8132 38.8658 63.9126 38.9718 64.0177L39.2388 64.3057C39.3159 64.3842 39.3861 64.4694 39.4487 64.5601L39.5917 64.7761C39.668 64.8913 39.7062 64.9633 39.7062 64.9633L39.5345 64.8001L39.3438 64.6369C39.277 64.5745 39.1768 64.5169 39.0862 64.4401C38.9956 64.3633 38.8907 64.2961 38.7906 64.2097L38.4472 63.9745C38.328 63.8858 38.2038 63.804 38.0752 63.7297L37.6699 63.4849L37.5793 63.4321L37.4839 63.3889L37.2836 63.3121C37.1405 63.2785 37.007 63.2257 36.8639 63.2017C36.7208 63.1777 36.5873 63.1441 36.4585 63.1345C36.3298 63.1249 36.1963 63.0961 36.0818 63.0865L35.2902 63.0049Z" fill="#C39368"/>
<path d="M42.9204 39.6096C42.9204 39.6096 54.3182 39.1632 56.8648 29.2224C56.0398 28.3296 56.6741 26.9808 57.9474 25.1856C59.2207 23.3904 60.37 23.4576 59.9885 24.672C59.8134 25.3088 59.5007 25.8989 59.0728 26.4C59.0728 26.4 60.5989 27.4896 60.2794 29.28C61.3667 30.1152 61.7673 31.2912 61.2999 31.6512C60.4749 32.2944 58.8821 31.3296 58.8821 31.3296C58.8821 31.3296 56.779 36.48 53.7221 38.9664C50.6176 41.4176 46.7753 42.7299 42.8298 42.6864C42.9155 41.6632 42.9457 40.6361 42.9204 39.6096V39.6096Z" fill="#F4D9BF"/>
<path d="M44.5847 55.2C44.5847 55.6176 42.1192 55.9536 39.0766 55.9536C36.034 55.9536 33.5685 55.6176 33.5685 55.2C33.5685 54.7824 36.034 54.4512 39.0766 54.4512C42.1192 54.4512 44.5847 54.7632 44.5847 55.2Z" fill="#C9D3CE"/>
<g style="mix-blend-mode:multiply">
<path d="M43.9028 55.0799C43.9028 55.3871 41.7425 55.6367 39.0767 55.6367C36.4108 55.6367 34.2505 55.3871 34.2505 55.0799C34.2505 54.7727 36.4108 54.5183 39.0767 54.5183C41.7425 54.5183 43.9028 54.7679 43.9028 55.0799Z" fill="#DFEFE7"/>
</g>
<path d="M40.2737 55.7135L39.9208 55.5791C39.9979 55.3402 40.0117 55.0852 39.9607 54.8393C39.9096 54.5934 39.7956 54.3652 39.6299 54.1775C39.0862 53.5295 39.153 52.6895 39.7539 51.6911C40.0543 51.2111 39.8302 50.3231 39.1101 49.2143C38.9458 48.9673 38.8454 48.683 38.8179 48.3871C38.7904 48.0913 38.8368 47.7932 38.9527 47.5199C39.0481 47.2079 39.0957 47.0399 38.9813 46.8719L38.7667 46.5839C38.5514 46.3614 38.393 46.0897 38.3049 45.7921C38.2169 45.4945 38.2019 45.1798 38.2612 44.875C38.2612 44.731 38.3041 44.5919 38.3232 44.4575C38.4519 43.6991 38.5282 43.2383 37.8463 42.6863C36.8925 41.9135 36.9879 41.2175 37.1882 40.3247C37.3742 39.5039 37.3885 39.1103 36.7447 38.8127C35.9101 38.4239 35.5143 35.3327 35.4427 34.7183L35.8243 34.675C35.9912 36.115 36.4347 38.2511 36.9068 38.4719C37.8224 38.8943 37.7509 39.5711 37.5602 40.3919C37.3694 41.2127 37.3074 41.7311 38.0943 42.3839C38.8811 43.0367 38.8096 43.7375 38.6809 44.5055C38.6809 44.6351 38.6379 44.7695 38.6189 44.9135C38.5645 45.1704 38.5754 45.4371 38.6504 45.6887C38.7254 45.9404 38.8622 46.169 39.0481 46.3535C39.1196 46.4495 39.1959 46.5454 39.2722 46.6558C39.3539 46.8015 39.3992 46.9651 39.4042 47.1323C39.4092 47.2995 39.3737 47.4655 39.3008 47.6158C39.1983 47.8379 39.1549 48.083 39.1749 48.3271C39.195 48.5712 39.2778 48.8058 39.4153 49.0079C40.2403 50.2799 40.4549 51.2495 40.0591 51.8879C39.525 52.7471 39.4725 53.4191 39.9065 53.9375C40.1184 54.1743 40.2641 54.4635 40.3286 54.7755C40.3931 55.0875 40.3742 55.4112 40.2737 55.7135V55.7135Z" fill="#FECB27"/>
<path d="M39.3246 55.6801L38.9478 55.6273C39.1577 54.1201 39.1148 51.9457 38.2897 50.7697C38.0976 50.4516 37.9779 50.0947 37.9391 49.7246C37.9004 49.3544 37.9436 48.9802 38.0656 48.6289C38.1934 48.2902 38.2035 47.918 38.0942 47.5729C38.0118 47.4176 37.921 47.267 37.8224 47.1217C37.6052 46.8371 37.4504 46.5095 37.3682 46.1603C37.286 45.8112 37.2783 45.4484 37.3455 45.0961V44.9473C37.5172 43.8193 37.6316 43.0753 36.654 42.2257C36.015 41.6785 36.1485 41.0161 36.2629 40.4353C36.3774 39.8545 36.4775 39.3409 36.034 38.8033C34.9944 37.5409 34.9849 35.1985 34.9849 35.0977H35.3664C35.3664 35.0977 35.3664 37.4065 36.3202 38.5633C36.5231 38.8338 36.657 39.1503 36.7102 39.485C36.7634 39.8197 36.7343 40.1625 36.6254 40.4833C36.5109 41.0593 36.4251 41.5105 36.8972 41.9233C38.0274 42.8833 37.8891 43.8433 37.7127 44.9857V45.1345C37.6521 45.4455 37.66 45.7662 37.7358 46.0738C37.8116 46.3815 37.9535 46.6687 38.1514 46.9153C38.255 47.0702 38.3505 47.2304 38.4376 47.3953C38.5931 47.818 38.5931 48.2829 38.4376 48.7057C38.3088 49.3153 38.1705 49.9393 38.5997 50.5537C39.4915 51.8113 39.5487 54.1009 39.3246 55.6801Z" fill="#FECB27"/>
<path d="M38.5425 55.5504L38.1706 55.4736C38.3194 54.7997 38.2457 54.0952 37.9607 53.4672C37.6687 52.7896 37.6465 52.0249 37.8987 51.3312C38.0752 50.7216 37.8558 50.0304 37.1882 49.0848C36.7113 48.4368 36.8639 47.6448 36.9736 46.9488C37.0499 46.4688 37.1214 46.0368 36.9736 45.8208C36.883 45.696 36.7828 45.576 36.6874 45.4608C36.2916 44.9808 35.8386 44.4384 36.2105 43.6752C36.5825 42.912 36.6159 41.568 35.4571 40.2048C34.1837 38.712 34.3936 35.6784 34.3983 35.5488L34.7846 35.5776C34.7846 35.6064 34.5748 38.5872 35.7384 39.96C37.0165 41.4624 36.9926 42.9504 36.5396 43.8432C36.2821 44.3616 36.5396 44.7024 36.9593 45.2208C37.0594 45.3456 37.1643 45.4704 37.2597 45.6C37.5077 45.9456 37.4266 46.4592 37.336 47.0064C37.2359 47.6352 37.1214 48.3504 37.4886 48.8688C38.2278 49.9152 38.4424 50.7072 38.2516 51.432C38.0366 52.0319 38.0519 52.6909 38.2946 53.28C38.6237 53.9886 38.7108 54.7868 38.5425 55.5504V55.5504Z" fill="#FECB27"/>
<path d="M38.0799 55.5311L37.7175 55.4015C37.8489 54.9393 37.8464 54.4489 37.7104 53.988C37.5744 53.5272 37.3105 53.115 36.9497 52.7999C36.2916 52.2479 36.3154 51.8399 36.6206 51.1295C36.9258 50.4191 37.0975 49.9055 36.7875 49.5119C36.7064 49.4159 36.6349 49.3295 36.5634 49.2527C36.2486 48.9071 35.9768 48.6047 36.158 48.0575L36.22 47.8847C36.3726 47.4719 36.4394 47.2847 35.8433 46.7663C35.0564 46.0751 34.7655 45.5615 35.3664 44.6591C35.4236 44.5727 35.4808 44.4911 35.5381 44.4143C35.9673 43.7903 36.1437 43.5311 35.2328 42.8735C34.6701 42.4607 34.4555 42.2207 34.4412 41.9855C34.4458 41.9001 34.4701 41.817 34.5124 41.7428C34.5546 41.6686 34.6135 41.6054 34.6844 41.5583C34.9038 41.3567 35.1613 41.1311 34.8036 40.2959C34.2603 38.8274 33.9622 37.2784 33.9214 35.7119H34.3029C34.3465 37.2303 34.6348 38.7314 35.1565 40.1567C35.6334 41.2319 35.1947 41.5967 34.9467 41.8415C34.9038 41.8751 34.8227 41.9519 34.8227 41.9711C34.8227 41.9903 34.8752 42.1439 35.457 42.5759C36.6683 43.4495 36.2868 44.0159 35.8528 44.6303L35.6859 44.8703C35.2662 45.5135 35.3473 45.8303 36.1151 46.4879C36.8829 47.1455 36.7875 47.4911 36.592 48.0143L36.5348 48.1871C36.4251 48.5087 36.5348 48.6671 36.8638 49.0079C36.9354 49.0895 37.0164 49.1759 37.0975 49.2767C37.5744 49.8767 37.2453 50.7167 36.9878 51.2831C36.7303 51.8495 36.6969 52.0895 37.212 52.5167C37.6308 52.8809 37.9357 53.3594 38.0897 53.8945C38.2438 54.4295 38.2404 54.998 38.0799 55.5311Z" fill="#FECB27"/>
<path d="M36.4585 55.5265C36.077 54.9889 36.158 53.8081 36.4919 53.1601C36.7303 52.6801 36.6731 52.2001 35.6525 51.1969C34.8084 50.3617 34.9992 49.8769 35.2376 49.2769C35.2996 49.1137 35.3664 48.9505 35.4236 48.7537V48.6673C35.6716 47.8081 35.7384 47.5777 34.7321 46.8241C33.5733 45.9505 33.702 45.5233 34.1074 44.6449L34.1694 44.5105C34.57 43.6273 34.5271 43.2289 33.9834 42.7297C33.6623 42.4536 33.4412 42.0781 33.3549 41.662C33.2686 41.2459 33.3219 40.8128 33.5065 40.4305C33.7259 39.9025 33.4016 37.3537 33.1298 35.7697L33.5065 35.7073C33.578 36.1201 34.1932 39.7777 33.8594 40.5745C33.6998 40.8828 33.6493 41.2366 33.716 41.5777C33.7828 41.9188 33.9628 42.2269 34.2266 42.4513C34.9849 43.1473 34.9086 43.7665 34.4984 44.6641L34.4364 44.7985C34.074 45.5857 33.9596 45.7969 34.9467 46.5217C36.1008 47.3905 36.0579 47.7793 35.7718 48.7681V48.8593C35.7148 49.0483 35.6479 49.2342 35.5715 49.4161C35.3473 49.9873 35.2376 50.2801 35.9053 50.9425C36.7542 51.7777 37.231 52.5073 36.8114 53.3425C36.5157 53.9281 36.4823 54.9457 36.7494 55.3249L36.4585 55.5265Z" fill="#FECB27"/>
<path d="M58.181 36.9839C58.1787 37.0174 58.1787 37.0511 58.181 37.0847C58.1776 37.1214 58.1776 37.1584 58.181 37.1951C58.181 37.2335 58.181 37.2767 58.2096 37.3295C58.229 37.3775 58.2433 37.4273 58.2526 37.4783C58.2526 37.5311 58.305 37.5887 58.3241 37.6415C58.3695 37.7614 58.422 37.8784 58.4815 37.9919C58.5244 38.1119 58.6102 38.2223 58.6579 38.3423C58.7056 38.4623 58.7724 38.5583 58.8153 38.6543C58.8711 38.7653 58.9174 38.8809 58.9536 38.9999C58.8435 38.942 58.7396 38.8729 58.6436 38.7935C58.5408 38.7189 58.4506 38.6282 58.3766 38.5247C58.2841 38.4112 58.2027 38.289 58.1333 38.1599C58.1333 38.0879 58.0809 38.0159 58.0523 37.9487C58.0231 37.8801 58.0053 37.8071 57.9998 37.7327C57.9713 37.6014 57.9713 37.4655 57.9998 37.3343C58.004 37.2813 58.0169 37.2294 58.038 37.1807C58.0497 37.1399 58.0674 37.1011 58.0904 37.0655C58.1164 37.0339 58.1469 37.0063 58.181 36.9839V36.9839Z" fill="black"/>
<path d="M56.7503 38.7073C56.7458 38.7488 56.7458 38.7906 56.7503 38.8321C56.7577 38.8767 56.7705 38.9202 56.7885 38.9617C56.8045 39.0162 56.8252 39.0692 56.8505 39.1201C56.8835 39.1745 56.9138 39.2306 56.9411 39.2881C56.984 39.3457 57.0365 39.3985 57.0794 39.4609C57.0985 39.4935 57.1209 39.5241 57.1462 39.5521L57.232 39.6337L57.4037 39.8065C57.4629 39.8644 57.5267 39.9174 57.5944 39.9649C57.6612 40.0129 57.7232 40.0705 57.7852 40.1185C57.8401 40.1731 57.9009 40.2214 57.9664 40.2625C58.0263 40.3002 58.0837 40.3419 58.1381 40.3873C58.2595 40.4781 58.3742 40.5775 58.4815 40.6849C58.329 40.6643 58.1789 40.6289 58.0332 40.5793C57.8804 40.5427 57.734 40.4828 57.5992 40.4017L57.3703 40.2577C57.2914 40.2075 57.2165 40.1514 57.1462 40.0897L56.9554 39.8785C56.8892 39.8122 56.8358 39.734 56.798 39.6481C56.755 39.5705 56.7168 39.4904 56.6836 39.4081C56.6836 39.3265 56.6502 39.2449 56.6407 39.1729C56.6286 39.1062 56.6286 39.0379 56.6407 38.9713C56.6414 38.9204 56.6511 38.87 56.6693 38.8225C56.6891 38.7794 56.7166 38.7404 56.7503 38.7073V38.7073Z" fill="black"/>
<path d="M66.2882 24C66.5134 24.0967 66.7176 24.2369 66.8891 24.4128C66.976 24.4969 67.0573 24.5867 67.1323 24.6816C67.2146 24.7872 67.288 24.8996 67.3517 25.0176C67.4968 25.276 67.6044 25.5541 67.6712 25.8432C67.6992 25.9893 67.7199 26.1366 67.7332 26.2848C67.7427 26.427 67.7427 26.5698 67.7332 26.712C67.7332 26.8512 67.7332 26.9856 67.695 27.1104C67.6762 27.2286 67.6507 27.3455 67.6187 27.4608C67.5789 27.6259 67.523 27.7867 67.4518 27.9408C67.4041 28.056 67.3708 28.1232 67.3708 28.1232C67.3708 28.1232 67.3708 28.0512 67.3708 27.9264C67.3708 27.8016 67.4041 27.6192 67.3994 27.408C67.3994 27.3024 67.3994 27.192 67.3994 27.072C67.3994 26.952 67.3994 26.8272 67.3994 26.6976C67.3994 26.568 67.366 26.4384 67.3612 26.304C67.3564 26.1696 67.3088 26.04 67.2897 25.9056C67.2706 25.7712 67.2277 25.6416 67.1848 25.5168C67.1418 25.392 67.1037 25.2672 67.0417 25.152C66.8567 24.7281 66.6019 24.3386 66.2882 24V24Z" fill="black"/>
<path d="M68.1528 23.7119C68.2202 23.7315 68.2856 23.7572 68.3484 23.7887C68.5128 23.875 68.6638 23.985 68.7966 24.1151C68.9879 24.3014 69.1489 24.5168 69.2735 24.7535C69.3413 24.8864 69.3987 25.0244 69.4452 25.1663C69.4951 25.3135 69.5333 25.4643 69.5597 25.6175C69.6129 25.9151 69.6289 26.2183 69.6074 26.5199C69.5939 26.7793 69.5539 27.0367 69.4881 27.2879C69.4457 27.4657 69.3915 27.6405 69.326 27.8111L69.2449 28.0031C69.2449 28.0031 69.2449 27.9263 69.2449 27.7919C69.2449 27.6575 69.2449 27.4799 69.2449 27.2591C69.2449 27.1487 69.2449 27.0287 69.2449 26.9039C69.2449 26.7791 69.2449 26.6495 69.2449 26.5151C69.2449 26.3807 69.2449 26.2463 69.2163 26.1071C69.2053 25.965 69.1846 25.8239 69.1543 25.6847C69.1116 25.4152 69.0397 25.1512 68.9397 24.8975C68.8825 24.7775 68.8396 24.6575 68.7776 24.5519C68.7156 24.4463 68.6583 24.3503 68.6059 24.2543C68.5064 24.1118 68.3964 23.977 68.2768 23.8511C68.238 23.8025 68.1966 23.7561 68.1528 23.7119V23.7119Z" fill="black"/>
<path d="M42.7011 26.8801C42.7328 26.915 42.76 26.9537 42.7822 26.9953C42.8088 27.0435 42.8327 27.0932 42.8537 27.1441C42.8812 27.21 42.905 27.2773 42.9252 27.3457C42.9752 27.5062 43.0056 27.6722 43.0159 27.8401C43.0231 27.9392 43.0231 28.0387 43.0159 28.1377C43.0159 28.2385 43.0159 28.3393 43.0159 28.4449C43.0026 28.6459 42.9707 28.8452 42.9205 29.0401C42.8797 29.205 42.8238 29.3656 42.7536 29.5201C42.69 29.686 42.6135 29.8465 42.5247 30.0001C42.5121 29.8308 42.5121 29.6607 42.5247 29.4913C42.5247 29.3425 42.5628 29.1697 42.5723 29.0113C42.5819 28.8529 42.6296 28.6369 42.6296 28.4449C42.6296 28.2529 42.6725 28.0609 42.6773 27.8785C42.6773 27.7873 42.6773 27.7009 42.6773 27.6193C42.6773 27.5377 42.6773 27.4561 42.6773 27.3841C42.6773 27.3121 42.6773 27.2449 42.6773 27.1825V27.0241C42.7059 26.9041 42.7011 26.8801 42.7011 26.8801Z" fill="black"/>
<path d="M43.7215 26.2129C43.8336 26.3762 43.916 26.5582 43.9648 26.7505C44.0247 26.9487 44.0615 27.1533 44.0745 27.3601C44.0816 27.4752 44.0816 27.5906 44.0745 27.7057C44.0672 27.8264 44.0529 27.9466 44.0315 28.0657C44.0315 28.1857 43.9743 28.3009 43.9457 28.4161C43.9101 28.5255 43.8687 28.6328 43.8217 28.7377C43.776 28.8373 43.7234 28.9335 43.6643 29.0257C43.6182 29.1093 43.5639 29.1881 43.5022 29.2609C43.4171 29.3755 43.3195 29.4801 43.2113 29.5729L43.0873 29.6785C43.1052 29.6278 43.1259 29.5781 43.1493 29.5297C43.1493 29.4817 43.1922 29.4289 43.2256 29.3617C43.259 29.2945 43.278 29.2225 43.3114 29.1505C43.3448 29.0785 43.383 28.9873 43.4116 28.8961C43.4402 28.8049 43.4783 28.7137 43.5069 28.6177C43.5696 28.4131 43.619 28.2047 43.6548 27.9937C43.6956 27.7845 43.7226 27.5728 43.7359 27.3601C43.7359 27.1537 43.7359 26.9569 43.7359 26.7889C43.7454 26.4481 43.7215 26.2129 43.7215 26.2129Z" fill="black"/>
<path d="M27.1543 27.456C27.2497 27.9936 26.2864 28.6176 25.0035 28.848C23.7207 29.0784 22.6191 28.848 22.5046 28.2912C22.3901 27.7344 23.3678 27.1296 24.6554 26.88C25.943 26.6304 27.0589 26.9184 27.1543 27.456Z" fill="#F9CBC0"/>
<path d="M40.803 27.1152C40.7219 27.4608 39.9923 27.5952 39.1673 27.4032C38.3422 27.2112 37.7366 26.7792 37.8081 26.4432C37.8796 26.1072 38.6188 25.9632 39.4439 26.16C40.2689 26.3568 40.8793 26.7696 40.803 27.1152Z" fill="#F9CBC0"/>
<g style="mix-blend-mode:multiply">
<path d="M21.9943 40.2528C25.0176 40.4255 28.0468 40.0383 30.9312 39.1104C29.429 41.6544 23.4106 43.3776 21.9943 40.2528Z" fill="#D4D4D4"/>
</g>
<g style="mix-blend-mode:multiply" opacity="0.6">
<g style="mix-blend-mode:multiply" opacity="0.6">
<path d="M70.5802 89.3568C66.3628 83.9967 61.0131 79.6483 54.919 76.6272C45.7722 72.7104 41.0891 74.1792 41.0891 74.1792C41.4192 73.4643 41.6487 72.7066 41.7711 71.928C40.0161 74.0832 34.0836 77.5104 28.0509 76.0416C26.7203 82.0896 26.6202 84.3696 28.2464 84.552C28.0507 82.2555 28.426 79.946 29.3385 77.832C32.6767 78.6048 36.3106 77.256 40.9937 75.72C52.3629 76.104 60.2889 79.1808 69.4643 92.16C71.2277 90.5464 72.769 88.7029 74.0472 86.6784C74.0472 86.6784 73.8851 86.4336 73.5703 86.0016L70.5802 89.3568Z" fill="#004B7F"/>
</g>
</g>
<path d="M13.2338 32.4096C13.2338 32.4096 13.0383 32.2032 12.7569 31.896C12.6234 31.7472 12.4708 31.5696 12.2801 31.3824C12.1144 31.1908 11.9325 31.0141 11.7364 30.8544C11.6565 30.7811 11.5623 30.7255 11.4598 30.6912C11.4299 30.6793 11.3969 30.6775 11.366 30.6862C11.335 30.6949 11.3076 30.7135 11.2881 30.7392C11.2286 30.8186 11.1834 30.908 11.1546 31.0032C11.126 31.1088 11.0926 31.2096 11.0735 31.3056C11.0354 31.5024 11.0067 31.6704 10.9877 31.7856C10.9686 31.9008 10.9543 31.9728 10.9543 31.9728C10.9543 31.9728 10.9543 31.9056 10.9114 31.7856C10.8809 31.6273 10.8633 31.4667 10.8589 31.3056C10.8498 31.189 10.8498 31.0718 10.8589 30.9552C10.878 30.8092 10.9302 30.6696 11.0115 30.5472C11.0657 30.4646 11.144 30.4008 11.2357 30.3648C11.3325 30.3387 11.4345 30.3387 11.5313 30.3648C11.6875 30.4114 11.8332 30.488 11.9605 30.5904C12.1741 30.7709 12.3647 30.9772 12.528 31.2048C12.6676 31.3972 12.7935 31.5993 12.9048 31.8096C13.0301 32.0005 13.1401 32.2011 13.2338 32.4096Z" fill="#C39368"/>
<path d="M12.7093 31.5264C12.6934 31.6018 12.671 31.6756 12.6425 31.7472C12.5919 31.8822 12.5263 32.011 12.447 32.1312C12.4079 32.1947 12.3649 32.2556 12.3182 32.3136C12.2803 32.3688 12.2372 32.4203 12.1894 32.4672C12.1445 32.5269 12.0933 32.5816 12.0368 32.6304C12.0057 32.5574 11.9879 32.4793 11.9844 32.4C11.9843 32.3188 11.9955 32.238 12.0178 32.16C12.0432 32.0753 12.0801 31.9945 12.1274 31.92C12.2169 31.7821 12.3401 31.6697 12.4851 31.5936C12.5543 31.5555 12.6307 31.5326 12.7093 31.5264V31.5264Z" fill="#C39368"/>
<path d="M12.2656 35.0688C12.2656 35.0688 12.3848 34.9776 12.547 34.8672C12.7091 34.7568 12.919 34.6176 13.105 34.4592C13.1532 34.4234 13.1993 34.385 13.2433 34.344C13.2814 34.3008 13.3291 34.2672 13.3672 34.224C13.4412 34.1494 13.5113 34.0709 13.5771 33.9888C13.7011 33.84 13.7774 33.7104 13.7821 33.7152C13.8146 33.8962 13.7948 34.0828 13.7249 34.2528C13.7005 34.3148 13.6701 34.3743 13.6343 34.4304C13.556 34.5561 13.4577 34.6679 13.3434 34.7616C13.2318 34.8507 13.1081 34.9235 12.9762 34.9776C12.8632 35.025 12.7446 35.0573 12.6233 35.0736C12.5048 35.0947 12.3835 35.0931 12.2656 35.0688V35.0688Z" fill="#C39368"/>
<path d="M25.7761 18.9935C25.834 18.707 25.9252 18.4282 26.048 18.1631C26.1697 17.8812 26.3303 17.6178 26.5248 17.3807C26.6389 17.2382 26.7779 17.1178 26.935 17.0255C27.1149 16.9103 27.3288 16.8611 27.5406 16.8863C27.641 16.9017 27.7389 16.9308 27.8315 16.9727C27.9196 17.0156 28.0041 17.0653 28.0843 17.1215C28.225 17.2298 28.353 17.3538 28.4658 17.4911C28.5716 17.6109 28.6673 17.7394 28.7519 17.8751C28.8378 18.0047 28.9045 18.1295 28.9665 18.2447C29.1016 18.5034 29.2103 18.7752 29.2908 19.0559C29.2908 19.0559 29.0858 18.7679 28.7806 18.3647C28.6062 18.1404 28.42 17.9257 28.2226 17.7215C28.1128 17.6133 27.9948 17.5138 27.8697 17.4239C27.8102 17.3858 27.7481 17.3521 27.6837 17.3231C27.6209 17.2928 27.5529 17.2749 27.4834 17.2703C27.3558 17.25 27.2252 17.2773 27.1162 17.3471C26.9881 17.4178 26.8709 17.5067 26.7681 17.6111C26.6631 17.7215 26.563 17.8319 26.4772 17.9423L26.2387 18.2687C25.9526 18.6911 25.7761 18.9935 25.7761 18.9935Z" fill="#C39368"/>
<path d="M34.923 18.1344C35.0127 17.8633 35.1244 17.6 35.2568 17.3472C35.393 17.0822 35.5526 16.8299 35.7337 16.5936C35.834 16.4549 35.9457 16.3249 36.0675 16.2048C36.1984 16.0627 36.3623 15.9555 36.5444 15.8928H36.5873H36.7829L36.8735 15.9168C36.9759 15.9468 37.0726 15.9938 37.1596 16.056C37.3036 16.1564 37.4349 16.2741 37.5507 16.4064C37.6549 16.5237 37.752 16.6471 37.8416 16.776C37.9274 16.896 37.9989 17.016 38.0657 17.1264C38.2135 17.3717 38.3381 17.6304 38.4377 17.8992L37.8893 17.256C37.7223 17.0688 37.5268 16.8528 37.3074 16.6464C37.2003 16.5415 37.0838 16.4467 36.9593 16.3632L36.8019 16.2864H36.7686H36.6541C36.5264 16.3293 36.4105 16.4016 36.3155 16.4976C36.2019 16.6008 36.0951 16.7115 35.996 16.8288C35.7909 17.0592 35.6145 17.3088 35.4571 17.4864L34.923 18.1344Z" fill="#C39368"/>
<path d="M33.4827 27.1727C33.5961 27.1089 33.7208 27.0681 33.8499 27.0527C33.9887 27.0347 34.1297 27.0445 34.2648 27.0815C34.347 27.1044 34.4245 27.1417 34.4937 27.1919C34.5731 27.2494 34.6397 27.3229 34.6892 27.4079C34.7136 27.4479 34.7313 27.4917 34.7417 27.5375L34.7655 27.6095V27.6431V27.6863C34.7679 27.7215 34.7679 27.7567 34.7655 27.7919V27.8399V27.9119C34.7531 28.0067 34.7094 28.0946 34.6415 28.1615C34.5958 28.2203 34.5347 28.2652 34.4651 28.2911C34.3736 28.3312 34.2736 28.3476 34.1742 28.3391H34.0692L34.1551 28.2815C34.2241 28.2395 34.2867 28.1878 34.3411 28.1279C34.3649 28.0895 34.4031 28.0559 34.4078 28.0127C34.426 27.9806 34.4342 27.9439 34.4317 27.9071V27.8399C34.4294 27.8063 34.4294 27.7727 34.4317 27.7391C34.4248 27.6946 34.4085 27.652 34.384 27.6143C34.3627 27.5723 34.3336 27.5348 34.2982 27.5039C34.2579 27.4713 34.2148 27.4424 34.1694 27.4175C34.0711 27.3677 33.9691 27.326 33.8642 27.2927L33.4827 27.1727Z" fill="#C39368"/>
<path d="M36.1581 31.4016C36.223 31.5429 36.2772 31.6889 36.3203 31.8384C36.3673 32.0107 36.4055 32.1854 36.4347 32.3616C36.4768 32.5926 36.4912 32.8279 36.4777 33.0624C36.4747 33.1978 36.4603 33.3327 36.4347 33.4656C36.4145 33.6113 36.3793 33.7544 36.3298 33.8928C36.2837 34.0425 36.223 34.1872 36.1486 34.3248C36.0657 34.4654 35.9733 34.6002 35.872 34.728C35.7575 34.848 35.6335 34.968 35.5048 35.0832C35.376 35.1984 35.2234 35.2752 35.0708 35.3664L34.5939 35.5776C34.4318 35.64 34.2601 35.6736 34.117 35.7264C34.0326 35.7517 33.9466 35.7709 33.8595 35.784L33.6163 35.8224C33.4494 35.8224 33.292 35.8752 33.1394 35.88C32.9868 35.8848 32.796 35.88 32.6339 35.88L32.157 35.8416L31.6801 35.7504C31.5323 35.6976 31.3844 35.6544 31.2461 35.5968C30.9889 35.4871 30.7455 35.3469 30.5213 35.1792C30.342 35.041 30.1816 34.8796 30.0444 34.6992C29.9346 34.5585 29.8388 34.4074 29.7582 34.248C29.6854 34.1097 29.6293 33.963 29.5913 33.8112C29.6558 33.9505 29.7324 34.0839 29.8202 34.2096C29.9206 34.3498 30.0322 34.4815 30.154 34.6032C30.224 34.682 30.3024 34.7529 30.3877 34.8144C30.475 34.8897 30.5674 34.9586 30.6643 35.0208C30.883 35.1621 31.1185 35.275 31.3654 35.3568C31.4941 35.3952 31.6324 35.424 31.7707 35.4624L32.2047 35.5248H32.6816C32.839 35.5248 32.9916 35.5248 33.1585 35.5248C33.3186 35.5145 33.4779 35.4937 33.6354 35.4624L33.8786 35.4192C33.9542 35.4056 34.029 35.388 34.1027 35.3664C34.2553 35.3184 34.4175 35.2896 34.5796 35.2368L35.0136 35.0544L35.3999 34.8144L35.7337 34.5168C35.8148 34.4016 35.9149 34.296 35.9912 34.176C36.066 34.059 36.1299 33.9353 36.182 33.8064C36.234 33.6854 36.2754 33.5602 36.306 33.432C36.3393 33.3095 36.3617 33.1842 36.3727 33.0576C36.3892 32.9415 36.3987 32.8245 36.4014 32.7072C36.4085 32.6017 36.4085 32.4959 36.4014 32.3904C36.3976 32.2167 36.3817 32.0435 36.3537 31.872C36.2011 31.5696 36.1581 31.4016 36.1581 31.4016Z" fill="#C39368"/>
<path d="M30.092 31.2C30.1282 31.422 30.1426 31.6471 30.1349 31.872C30.1222 32.1091 30.0919 32.345 30.0443 32.5776C29.9982 32.8412 29.9329 33.1012 29.8488 33.3552C29.7643 33.606 29.6574 33.8486 29.5292 34.08C29.4052 34.2852 29.258 34.4752 29.0905 34.6464C28.9765 34.7657 28.8484 34.8705 28.709 34.9584L28.5659 35.04L28.6708 34.8864C28.7632 34.7596 28.8491 34.6282 28.9284 34.4928C28.9808 34.4064 29.0237 34.3104 29.081 34.2192C29.1382 34.128 29.1716 34.008 29.2288 33.9072C29.286 33.8064 29.3194 33.6768 29.3719 33.5664C29.4243 33.456 29.4625 33.3264 29.5054 33.2064C29.6771 32.7264 29.8154 32.2176 29.9155 31.8384C30.0157 31.4592 30.092 31.2 30.092 31.2Z" fill="#C39368"/>
</g>
<defs>
<clipPath id="clip0_616_390">
<rect width="84" height="96" fill="white"/>
</clipPath>
</defs>
</svg>
