<svg width="95" height="116" viewBox="0 0 95 116" fill="none" xmlns="http://www.w3.org/2000/svg">
<g clip-path="url(#clip0_616_785)">
<path d="M94.9482 20.416C94.3714 19.43 92.9121 20.2478 91.7815 21.0656C91.868 20.967 91.9488 20.8684 92.0296 20.764C92.5602 20.0854 93.4716 18.8326 93.2755 17.8988C93.2608 17.851 93.2347 17.8075 93.1995 17.7721C93.1643 17.7367 93.1211 17.7105 93.0736 17.6958C92.4622 17.5276 91.8046 18.386 91.447 18.7572C90.9785 19.2431 90.5412 19.7584 90.1376 20.3C90.3638 19.6907 90.5412 19.0642 90.6683 18.4266C90.7433 18.0206 90.9048 16.7272 90.2818 16.5474C89.4339 16.3096 88.7821 18.2526 88.3841 19.8592C88.3265 18.0438 88.0438 16.2458 87.1959 16.472C86.348 16.6982 86.6191 18.6064 86.6595 19.1458C86.6894 20.3316 86.9095 21.5047 87.3113 22.62C86.9306 22.1444 86.5211 21.7094 86.1288 21.2454C85.6385 20.6654 84.6695 19.5054 83.8677 20.1434C83.5909 20.3696 83.8677 21.0424 83.937 21.2744C84.157 21.7681 84.4865 22.2045 84.9002 22.5504C85.3681 22.9821 85.874 23.3703 86.4115 23.7104L86.7056 23.925C86.6091 24.4777 86.4137 25.0083 86.1288 25.491C85.7251 26.2566 85.4136 27.0628 84.9348 27.811C84.0119 29.2146 83.0718 30.6124 82.0912 31.9696C80.9901 33.3705 79.7598 34.6639 78.4169 35.8324C77.7651 36.4124 77.1537 37.0446 76.4789 37.6246C76.1314 37.9188 75.7653 38.19 75.3829 38.4366C75.8384 39.3516 76.2035 40.3093 76.4731 41.296C77.5802 40.5703 78.6121 39.7348 79.5532 38.802C81.2216 37.165 82.7408 35.3812 84.0927 33.4718C85.4851 31.6317 86.6999 29.6624 87.7208 27.5906C88.2454 26.6053 88.6706 25.5697 88.9898 24.4992C89.7973 25.0792 90.6683 25.5374 91.4066 24.4992C91.7242 23.9222 91.9961 23.321 92.2199 22.7012C92.2862 22.5829 92.3698 22.4754 92.4679 22.3822C92.8198 22.2662 93.1601 22.1386 93.4946 21.9936C93.8292 21.8486 95.2827 21.0018 94.9482 20.416Z" fill="#EFCAA6"/>
<g style="mix-blend-mode:multiply" opacity="0.7">
<path d="M76.5133 37.5317L76.4614 37.5781C76.114 37.8724 75.7479 38.1436 75.3655 38.3901C75.8209 39.3052 76.186 40.2629 76.4556 41.2495C76.8566 41.0012 77.2419 40.728 77.6093 40.4317C77.1425 39.507 76.7751 38.5348 76.5133 37.5317V37.5317Z" fill="#EFCAA6"/>
</g>
<path d="M43.0702 49.2012C43.1279 48.7488 43.0702 48.134 43.1683 47.612C41.2014 47.063 39.2897 46.331 37.4579 45.4254C34.9221 44.3764 32.5208 43.0249 30.3055 41.4002C29.2845 40.623 29.8786 39.0802 30.2074 38.2218C30.5362 37.3634 31.1707 35.8496 30.9284 35.229C30.392 33.837 29.2442 36.302 28.8173 37.9318C28.9089 37.2243 28.9378 36.5101 28.9038 35.7974C28.8519 34.7476 28.7539 33.1526 27.831 32.4914C27.11 31.9578 26.9542 33.9588 26.9485 34.2198C26.9053 35.4962 26.9593 36.774 27.11 38.042C26.8158 37.2996 26.4755 36.5688 26.1698 35.8612C25.9218 35.2812 25.1661 33.663 24.2894 33.895C23.1935 34.1908 24.6701 37.0444 25.6103 38.5988C25.1315 38.274 24.6239 37.9782 24.1337 37.6998C23.6434 37.4214 22.7955 36.9458 22.2071 37.056C21.3592 37.2126 22.1379 38.1696 22.409 38.5002C23.0862 39.2084 23.901 39.7691 24.8028 40.1474C23.3665 39.869 21.4919 39.6718 21.4803 40.9188C21.4803 41.4988 22.2648 41.6554 22.6916 41.696C23.3261 41.7598 23.9664 41.754 24.6009 41.812C24.8663 41.8425 25.1275 41.9028 25.3796 41.9918C25.6036 42.3088 25.7968 42.6468 25.9564 43.001C26.2448 43.4824 27.0408 44.0682 28.4136 43.1228C28.9558 42.7458 29.994 43.5752 30.5016 43.9C31.361 44.48 32.0994 45.1818 32.9588 45.7386C35.087 47.1847 37.3972 48.3394 39.8286 49.1722C40.8391 49.5399 41.9034 49.7359 42.9779 49.7522C43.0183 49.5492 43.0414 49.3694 43.0702 49.2012Z" fill="#EFCAA6"/>
<g style="mix-blend-mode:multiply" opacity="0.7">
<path d="M41.3859 47.0845C41.5254 47.9124 41.5468 48.7561 41.4493 49.5901C41.9577 49.6944 42.4765 49.7391 42.9952 49.7235C42.9952 49.5495 43.0413 49.3697 43.0701 49.2015C43.1278 48.7491 43.0701 48.1343 43.1682 47.6123C42.5638 47.4735 41.9686 47.2973 41.3859 47.0845V47.0845Z" fill="#EFCAA6"/>
</g>
<path d="M77.021 42.6299C76.7614 41.8701 76.4442 41.1219 76.1904 40.3621C75.9366 39.6023 75.6136 38.7323 75.3598 37.9203C75.129 37.2765 75.0252 36.5689 74.7368 35.9541C74.7153 35.9177 74.685 35.8875 74.6486 35.8662C74.6123 35.8449 74.5712 35.8332 74.5292 35.8323C74.1427 35.8323 73.8197 36.2441 73.5371 36.4877C72.7295 37.1779 71.9797 37.9319 71.1491 38.5989C69.8974 39.6081 68.6515 40.6115 67.3537 41.5569C64.7244 42.9844 61.9441 44.1109 59.065 44.9151C56.963 45.4458 54.8186 45.7893 52.6567 45.9417C52.1721 45.9881 51.6299 45.9823 51.082 45.9939C51.082 45.9939 51.082 45.9533 51.0358 45.9591C49.5845 46.0722 48.1266 46.0722 46.6752 45.9591C45.3197 45.8953 43.8892 45.6401 42.5395 45.8257C41.8358 45.9185 42.1242 47.4149 42.1069 47.8615C42.0319 49.3869 41.9281 50.9935 41.9857 52.5015C41.9874 52.5623 42.0077 52.6211 42.0439 52.6698C42.08 52.7186 42.1302 52.755 42.1876 52.7741C42.5106 52.8843 42.551 52.7741 42.9721 52.7741C43.3932 52.7741 43.9815 52.7741 44.4833 52.7741C45.6773 52.8089 46.8713 52.7741 48.0653 52.8147C49.167 52.8147 50.3264 52.8147 51.4742 52.8147C50.7241 54.6276 50.1448 56.5073 49.7438 58.4291C49.0872 60.7383 49.0277 63.1778 49.5708 65.5167C49.5558 65.5837 49.558 65.6535 49.5772 65.7194C49.5964 65.7853 49.6318 65.8453 49.6803 65.8937C49.695 65.9238 49.7156 65.9507 49.7408 65.9727C49.766 65.9947 49.7954 66.0113 49.8272 66.0216C49.859 66.0319 49.8925 66.0356 49.9257 66.0326C49.959 66.0295 49.9913 66.0198 50.0207 66.0039C50.8536 66.1112 51.6968 66.1112 52.5298 66.0039C53.1066 66.0445 53.6488 66.0735 54.214 66.1315C55.9675 66.3373 57.7323 66.4303 59.4976 66.4099C61.228 66.4099 62.9584 66.3345 64.6888 66.1315C65.4873 66.1137 66.2855 66.1779 67.0711 66.3229C67.8309 66.4084 68.5999 66.3028 69.3091 66.0155C69.4061 65.9773 69.4874 65.9072 69.5397 65.8166C69.5921 65.7261 69.6125 65.6203 69.5975 65.5167C70.3004 64.0615 70.7305 62.4886 70.8664 60.8767C71.1615 58.9136 71.3329 56.9338 71.3798 54.9491C71.438 53.1691 71.3221 51.3877 71.0337 49.6305C70.9274 48.9171 70.781 48.2103 70.5953 47.5135C71.5586 46.9973 72.5276 46.4811 73.4794 45.9417C74.2177 45.5183 74.9502 45.0775 75.6828 44.6425C76.1269 44.3815 76.8075 44.2133 77.0902 43.7377C77.1573 43.5586 77.1858 43.3673 77.1739 43.1763C77.162 42.9853 77.1098 42.7991 77.021 42.6299Z" fill="#FFF270"/>
<path d="M70.2666 63.8755L69.8513 63.9045C67.6017 64.1307 65.3637 64.2235 63.1084 64.2409C58.4939 64.2815 53.9199 64.3685 49.3285 64.3917C49.3829 64.7668 49.458 65.1386 49.5534 65.5053C49.5385 65.5723 49.5407 65.6421 49.5599 65.708C49.5791 65.7739 49.6145 65.8339 49.663 65.8823C49.6777 65.9124 49.6983 65.9393 49.7235 65.9613C49.7487 65.9833 49.7781 65.9999 49.8099 66.0102C49.8417 66.0205 49.8752 66.0242 49.9084 66.0212C49.9417 66.0181 49.974 66.0084 50.0034 65.9925C50.8363 66.0998 51.6795 66.0998 52.5125 65.9925C53.0893 66.0331 53.6315 66.0621 54.1967 66.1201C55.9502 66.3259 57.715 66.4189 59.4803 66.3985C61.2107 66.3985 62.9411 66.3231 64.6715 66.1201C65.47 66.1023 66.2682 66.1665 67.0537 66.3115C67.8136 66.397 68.5826 66.2914 69.2918 66.0041C69.3888 65.9659 69.4701 65.8958 69.5224 65.8052C69.5748 65.7147 69.5951 65.609 69.5802 65.5053C69.8703 64.9903 70.1007 64.4434 70.2666 63.8755V63.8755Z" fill="#00987A"/>
<path d="M71.0972 59.0439C71.1606 58.464 71.2126 57.884 71.2587 57.304L70.0301 57.3446C67.6825 57.4432 54.0641 58.5974 49.5939 58.9801C49.4843 59.4789 49.392 59.9893 49.3228 60.5055C51.6588 60.1865 69.0265 59.2237 71.0972 59.0439Z" fill="#00987A"/>
<path d="M50.4071 55.8016C50.2687 56.2946 50.1418 56.7934 50.0149 57.2748C52.0164 56.8746 67.7229 55.9234 70.0705 55.8422C70.48 55.8422 70.9126 55.8422 71.351 55.8422C71.351 55.5348 71.351 55.2622 71.351 54.92C71.351 54.456 71.351 53.9862 71.351 53.5222C69.0495 53.5222 52.6163 55.1868 50.4071 55.8016Z" fill="#00987A"/>
<path d="M70.2031 50.2628C68.1151 50.4716 53.1873 52.4552 51.4281 52.9134C51.307 53.186 51.082 53.7486 50.9724 54.0328C52.7028 54.0734 70.3819 51.7534 71.2875 51.678C71.2529 51.1792 71.1895 50.6804 71.1145 50.1816L70.2031 50.2628Z" fill="#00987A"/>
<path d="M51.9645 49.909C51.7511 50.3556 51.5319 50.8022 51.3185 51.243C55.1542 50.286 67.2268 48.2676 69.3841 47.9602C69.8167 47.9022 70.2493 47.8674 70.6819 47.8442C70.6531 47.7398 70.63 47.6238 70.5954 47.5136L71.4087 47.0786C71.2414 46.7828 71.0684 46.4986 70.8838 46.2144C68.0632 46.5972 53.4757 49.7118 51.9645 49.909Z" fill="#00987A"/>
<path d="M53.2566 47.3105C56.6136 46.4985 60.0052 45.8373 63.368 45.0485C65.283 44.5961 67.2153 44.3061 69.1361 44.0393C68.7727 43.6681 68.3978 43.3027 67.9825 42.9431C67.5671 42.5835 67.1807 42.2007 66.7654 41.8469C64.3002 43.1374 61.7079 44.1657 59.0304 44.9151C57.4135 45.3502 55.7642 45.6528 54.0987 45.8199C53.8046 46.2897 53.5277 46.8001 53.2566 47.3105Z" fill="#00987A"/>
<path d="M49.1843 62.2919C49.1766 62.739 49.192 63.1862 49.2305 63.6317C51.2897 63.6897 53.3316 63.4519 55.3908 63.3359C57.8941 63.1851 67.7748 62.5645 70.2089 62.5645H70.5954C70.6877 62.0619 70.7684 61.563 70.8376 61.0681C68.9169 61.1899 54.3179 61.9091 49.1843 62.2919Z" fill="#00987A"/>
<path d="M52.6567 45.9418C52.1721 45.9882 51.6299 45.9824 51.082 45.994C51.082 45.994 51.082 45.9534 51.0358 45.9592C49.5845 46.0723 48.1266 46.0723 46.6752 45.9592C45.3197 45.8954 43.8892 45.6402 42.5395 45.8258C41.8358 45.9186 42.1242 47.415 42.1069 47.8616C42.0319 49.387 41.9281 50.9936 41.9857 52.5016C41.9874 52.5624 42.0077 52.6212 42.0439 52.67C42.08 52.7187 42.1302 52.7551 42.1876 52.7742C42.5106 52.8844 42.551 52.7742 42.9721 52.7742C43.3932 52.7742 43.9815 52.7742 44.4833 52.7742C45.6773 52.809 46.8713 52.7742 48.0653 52.8148C49.1497 52.8148 50.2802 52.8148 51.4108 52.8148C51.455 52.7749 51.5033 52.7399 51.555 52.7104C52.053 51.4684 52.7124 50.2982 53.5161 49.2304C54.6731 47.6759 56.0808 46.3272 57.6806 45.24C56.02 45.5664 54.3429 45.8007 52.6567 45.9418V45.9418Z" fill="#FFF270"/>
<g style="mix-blend-mode:multiply">
<path d="M52.8354 49.793C51.3293 50.9793 49.4649 51.6117 47.5519 51.5852C45.8792 51.5852 43.8949 51.968 42.4126 51.0052C42.2533 50.8982 42.1096 50.7694 41.9857 50.6224C41.9857 51.2604 41.9569 51.8984 41.9857 52.519C41.9874 52.5798 42.0077 52.6386 42.0438 52.6874C42.08 52.7362 42.1302 52.7726 42.1876 52.7916C42.5106 52.9018 42.551 52.7916 42.9721 52.7916C43.3931 52.7916 43.9815 52.7916 44.4833 52.7916C45.6773 52.8264 46.8713 52.7916 48.0653 52.8322C49.1496 52.8322 50.2802 52.8322 51.4107 52.8322C51.4549 52.7924 51.5033 52.7574 51.5549 52.7278C52.0406 51.5067 52.6824 50.3544 53.4642 49.3L52.8354 49.793Z" fill="#FFF270"/>
</g>
<path d="M77.021 42.6299C76.7614 41.8701 76.4442 41.1219 76.1904 40.3621C75.9366 39.6023 75.6136 38.7323 75.3598 37.9203C75.1291 37.2765 75.0252 36.5689 74.7368 35.9541C74.7153 35.9177 74.685 35.8875 74.6487 35.8662C74.6123 35.8449 74.5712 35.8332 74.5292 35.8323C74.1427 35.8323 73.8197 36.2441 73.5371 36.4877C72.7296 37.1779 71.9797 37.9319 71.1491 38.5989C69.8974 39.6081 68.6515 40.6115 67.3537 41.5569C65.8635 42.3654 64.322 43.0745 62.7393 43.6797C64.7465 43.3723 66.575 42.9489 68.1324 44.3061C69.1265 45.2259 69.9558 46.3108 70.5838 47.5135C71.5471 46.9973 72.5161 46.4811 73.4679 45.9417C74.2062 45.5183 74.9387 45.0775 75.6713 44.6425C76.1154 44.3815 76.796 44.2133 77.0787 43.7377C77.1476 43.5594 77.178 43.3685 77.1681 43.1776C77.1581 42.9866 77.108 42.7999 77.021 42.6299V42.6299Z" fill="#FFF270"/>
<g style="mix-blend-mode:multiply">
<path d="M77.021 42.6299C76.7614 41.8701 76.4442 41.1219 76.1904 40.3621C76.1385 40.1997 76.0808 40.0257 76.0231 39.8633C76.0683 40.2958 76.0586 40.7324 75.9943 41.1625C75.7693 42.5313 74.7714 43.4825 73.687 44.2133C73.049 44.7065 72.2991 45.0325 71.5047 45.1621C70.7104 45.2917 69.8964 45.2208 69.136 44.9557L68.715 44.8339C69.4583 45.6436 70.0978 46.5438 70.6184 47.5135C71.5817 46.9973 72.5507 46.4811 73.5025 45.9417C74.2408 45.5183 74.9733 45.0775 75.7059 44.6425C76.15 44.3815 76.8306 44.2133 77.1133 43.7377C77.1769 43.557 77.2016 43.3648 77.1857 43.1738C77.1698 42.9828 77.1136 42.7974 77.021 42.6299V42.6299Z" fill="#FFF270"/>
</g>
<g style="mix-blend-mode:multiply" opacity="0.2">
<path d="M71.0221 49.5552C69.8373 52.24 68.0624 54.6197 65.8309 56.5152C63.2641 58.7308 60.2762 60.9174 57.0807 62.1064C54.5571 63.0236 51.8311 63.2243 49.2015 62.6864C49.2098 63.6261 49.3338 64.5612 49.5707 65.4704C49.5558 65.5374 49.558 65.6072 49.5771 65.6731C49.5963 65.739 49.6318 65.799 49.6803 65.8474C49.6949 65.8775 49.7155 65.9044 49.7407 65.9264C49.766 65.9484 49.7953 65.965 49.8271 65.9753C49.8589 65.9856 49.8924 65.9893 49.9257 65.9863C49.9589 65.9832 49.9912 65.9735 50.0206 65.9576C50.8536 66.0649 51.6967 66.0649 52.5297 65.9576C53.1065 65.9982 53.6487 66.0272 54.214 66.0852C55.9675 66.291 57.7322 66.384 59.4975 66.3636C61.2279 66.3636 62.9584 66.2882 64.6888 66.0852C65.4873 66.0674 66.2855 66.1316 67.071 66.2766C67.8308 66.3621 68.5998 66.2565 69.309 65.9692C69.406 65.931 69.4873 65.8609 69.5397 65.7703C69.592 65.6798 69.6124 65.574 69.5974 65.4704C70.3003 64.0152 70.7305 62.4423 70.8664 60.8304C71.1614 58.8673 71.3329 56.8875 71.3797 54.9028C71.4379 53.1228 71.322 51.3414 71.0337 49.5842C71.0302 49.5743 71.0264 49.5647 71.0221 49.5552V49.5552Z" fill="#00987A"/>
</g>
<g style="mix-blend-mode:multiply" opacity="0.2">
<path d="M67.3537 41.5568C64.7244 42.9843 61.9441 44.1108 59.065 44.915C56.963 45.4457 54.8186 45.7892 52.6567 45.9416C52.1722 45.988 51.63 45.9822 51.082 45.9938C51.082 45.9938 51.082 45.9532 51.0359 45.959C50.5051 46.0153 49.9718 46.0424 49.4381 46.0402C50.2497 46.3881 50.9892 46.8858 51.6184 47.5076C51.7857 47.6816 51.9357 47.8614 52.0857 48.0412C52.9875 48.0013 53.889 48.1291 54.7447 48.4182C55.7772 48.8184 56.2156 49.7174 57.052 50.3844C58.4997 51.5444 60.3686 50.454 61.1242 49.0098C61.2045 48.7675 61.2969 48.5294 61.4011 48.2964C61.4457 48.0084 61.548 47.7324 61.7016 47.4852C61.8553 47.2379 62.0572 47.0246 62.2951 46.858C63.2699 45.698 64.5216 45.205 65.8771 44.538C67.6517 43.6003 69.0391 42.0614 69.7936 40.1938C69.8974 39.9676 69.9839 39.7182 70.0762 39.4746C69.1649 40.1822 68.2708 40.884 67.3537 41.5568Z" fill="#00987A"/>
</g>
<path d="M59.6821 44.1902C59.6542 44.1479 59.6125 44.1166 59.5642 44.1016C59.516 44.0866 59.464 44.0889 59.4172 44.108C59.3704 44.1271 59.3316 44.1619 59.3073 44.2064C59.2831 44.251 59.2749 44.3026 59.2841 44.3526C59.2841 44.3526 59.2841 44.3526 59.2841 44.3526C58.7288 44.5386 58.2222 44.8478 57.8017 45.2574C57.3797 45.5577 57.0355 45.9555 56.7981 46.4174C56.7776 46.4067 56.7547 46.4013 56.7316 46.4018C56.7085 46.4023 56.6858 46.4086 56.6658 46.4201C56.6457 46.4316 56.6288 46.448 56.6167 46.4678C56.6045 46.4876 56.5975 46.5101 56.5962 46.5334C56.527 47.6818 57.6806 51.3938 59.411 50.46C61.2972 49.4856 60.6223 45.617 59.6821 44.1902Z" fill="#EFCAA6"/>
<path d="M72.3662 35.4612C72.4815 33.2978 71.9047 31.1518 71.9162 28.9826C71.9702 27.153 72.4273 25.3583 73.2544 23.7278C73.4809 23.4021 73.6742 23.0543 73.8312 22.6896C74.5349 20.996 73.4563 19.8302 72.32 18.6992C70.781 17.3347 68.9812 16.3005 67.0307 15.66C64.7375 14.8483 62.3267 14.4231 59.8956 14.4014C57.65 14.3981 55.41 14.6255 53.2104 15.08C50.7346 15.4655 48.2814 15.9864 45.8619 16.6402C43.8316 17.2608 41.8993 18.3802 40.0246 19.372C38.8992 19.9306 37.8037 20.5482 36.7426 21.2222C36.0101 21.7036 35.0526 22.4924 34.1931 22.707C34.1618 22.716 34.1342 22.735 34.1146 22.7612C34.095 22.7874 34.0844 22.8192 34.0844 22.852C34.0844 22.8848 34.095 22.9167 34.1146 22.9428C34.1342 22.969 34.1618 22.988 34.1931 22.997C34.3349 23.0147 34.4782 23.0147 34.62 22.997C34.9271 23.2408 35.2488 23.4655 35.5832 23.6698C36.5206 24.2881 37.2945 25.126 37.8385 26.1116C38.8059 27.9157 39.0927 30.0104 38.6461 32.0102C38.2596 33.7966 37.8212 35.6294 37.9597 37.468C38.2192 40.948 40.9129 44.0162 43.7854 45.3676C46.6579 46.719 47.8231 47.5078 53.0547 48.1284C55.9964 48.4822 58.9323 47.5484 61.626 46.4986C63.2121 45.8925 64.754 45.1754 66.2405 44.3526C69.5225 42.485 72.1643 39.3588 72.3662 35.4612Z" fill="#F4D9BF"/>
<path d="M79.2878 19.0123C79.0407 18.3255 78.6885 17.6816 78.2438 17.1041C78.4281 17.1779 78.6227 17.2229 78.8206 17.2375C79.5531 17.2375 79.8877 16.8141 79.7492 16.0775C79.3743 14.0939 77.4997 12.2321 75.6597 11.2519C76.0885 11.1807 76.5124 11.0819 76.9286 10.9561C77.9092 10.6545 79.3743 9.65692 78.3303 8.54332C77.1132 7.24412 75.2271 6.94252 73.5082 6.95992C73.0519 6.96576 72.5976 7.0202 72.1527 7.12232C72.9487 6.37412 73.8831 5.10972 72.9602 4.13532C72.095 3.24792 70.0185 3.94972 69.1418 4.40792C67.978 5.01946 66.9218 5.81888 66.0155 6.77432C66.0759 6.31484 66.1028 5.85154 66.0962 5.38812C66.0962 3.85112 66.0962 2.22132 65.3694 0.829319C65.2887 0.653344 65.1585 0.505006 64.9949 0.402629C64.8312 0.300253 64.6413 0.248325 64.4487 0.253261C64.256 0.258196 64.069 0.31978 63.9108 0.430402C63.7525 0.541025 63.63 0.695839 63.5583 0.875719C62.9815 2.03572 62.9815 3.68872 62.9815 5.08652C61.9517 3.07908 60.2908 1.47023 58.2574 0.510319C57.4153 0.0869186 55.9502 -0.0696813 56.0425 1.23532C56.1171 1.76164 56.2893 2.26922 56.5501 2.73172C55.8241 2.20285 55.0426 1.75552 54.2198 1.39772C52.2129 0.529813 50.059 0.0572668 47.8749 0.00571861C46.8426 0.00150367 45.8138 0.126191 44.8121 0.376919C44.1487 0.510319 43.1336 0.655319 42.7702 1.34552C42.5452 1.76892 43.0124 2.14592 43.2951 2.36052C43.3167 2.37268 43.3362 2.38836 43.3527 2.40692C42.8426 2.35445 42.3285 2.35445 41.8184 2.40692C40.3657 2.66466 38.9871 3.2409 37.7808 4.09472C37.3367 4.37892 35.6697 5.56792 36.2811 6.24072C36.5988 6.5248 36.975 6.73474 37.3828 6.85552C34.4988 7.18612 31.684 10.3993 30.5246 12.6555C30.2996 13.0905 29.8036 13.8677 30.092 14.3955C30.2398 14.6427 30.4648 14.8336 30.732 14.9386C30.9991 15.0435 31.2933 15.0565 31.5686 14.9755C31.9649 14.898 32.3517 14.7774 32.7222 14.6159C32.3915 14.9407 32.08 15.2713 31.7878 15.6077C30.7726 16.7677 29.7863 18.2989 29.6767 19.8591C29.5786 21.1815 30.7784 21.1003 31.6724 20.8393C31.7723 20.8077 31.8705 20.7709 31.9666 20.7291C31.6027 21.3274 31.2994 21.9608 31.061 22.6199C30.5592 24.1221 30.1785 25.8099 30.6226 27.3585C30.986 28.6113 32.4107 28.1879 33.1836 27.6601C33.3268 27.5585 33.4636 27.4481 33.5932 27.3295C33.4682 27.9696 33.4802 28.6291 33.6284 29.2641C33.7765 29.8991 34.0575 30.4952 34.4526 31.0125C34.695 31.295 35.0236 31.4887 35.387 31.5635C35.4688 31.165 35.6427 30.7915 35.8946 30.4731C36.1632 30.1351 36.5411 29.9024 36.9627 29.8155C37.3842 29.7286 37.8227 29.793 38.2019 29.9975C38.4733 30.2185 38.6739 30.5151 38.7787 30.8501C39.2055 30.4441 38.7152 25.8505 36.7483 24.6325C37.7783 24.3623 38.754 23.9149 39.6323 23.3101C41.0471 22.4781 42.3581 21.4792 43.5373 20.3347C43.412 20.5847 43.319 20.8498 43.2605 21.1235C43.1336 22.0747 44.4141 22.1849 45.0428 22.0515C47.0155 21.6339 48.8843 20.6363 50.707 19.8011C51.3417 19.5089 51.9598 19.1817 52.5586 18.8209C52.1202 19.6793 52.0856 20.5609 53.3488 20.8973C54.4447 21.1873 55.7483 20.8045 56.8096 20.5493C58.1622 20.2252 59.4934 19.8165 60.7954 19.3255C62.3764 18.8193 63.855 18.0337 65.1618 17.0055C64.9772 17.5507 64.7926 18.0959 64.6311 18.6469C64.5042 19.0761 64.1697 20.1607 64.8907 20.3231C65.7501 20.5145 66.6211 19.5575 67.0883 19.0007C67.3037 18.7413 67.4967 18.4638 67.6651 18.1713C67.7401 19.0587 67.9074 19.9519 68.0574 20.7871C68.2073 21.6223 68.4092 23.4899 69.4648 23.5885C70.3473 23.6639 70.6184 21.9529 70.6876 21.3961C70.728 21.1351 70.7568 20.8799 70.7857 20.6189C70.9091 21.4947 71.2771 22.3173 71.847 22.9911C71.964 23.1043 72.0872 23.2108 72.2161 23.3101C71.5069 24.7888 71.1966 26.4289 71.3163 28.0661C71.3792 28.8513 71.5743 29.6201 71.8931 30.3397C72.1547 30.103 72.4751 29.9419 72.8204 29.8735C73.1657 29.805 73.5229 29.8319 73.8543 29.9511C74.1757 30.0861 74.4677 30.2832 74.7137 30.5311C74.9814 30.3587 75.2079 30.129 75.377 29.8583C75.9538 28.9361 75.7693 27.4165 75.2501 26.1405C75.9077 26.8887 76.7902 27.4571 77.4535 26.5059C77.8746 25.8969 77.667 24.7195 77.5343 24.0757C77.4766 23.8089 77.4247 23.5363 77.3555 23.2637C78.2611 24.1105 79.3455 24.5165 79.8127 23.1013C80.2684 21.8311 79.7089 20.1839 79.2878 19.0123Z" fill="#EC7B23"/>
<g style="mix-blend-mode:multiply" opacity="0.4">
<path d="M74.5522 28.3735C74.3779 28.4734 74.1822 28.5295 73.9817 28.5371C73.7812 28.5446 73.5819 28.5033 73.4006 28.4167C73.2194 28.3302 73.0617 28.2009 72.9408 28.0399C72.8199 27.8789 72.7395 27.6909 72.7064 27.4919C72.5319 26.7801 72.5085 26.0393 72.6377 25.3178C72.7669 24.5963 73.0458 23.9102 73.4562 23.3043C72.6026 22.9447 71.9162 21.8775 71.5816 21.1351C71.2819 20.4814 71.1059 19.7773 71.0625 19.0587C70.9414 19.4241 70.5261 23.3043 69.6378 23.5247C68.4207 23.8263 67.792 20.6247 68.5188 16.9069C68.3977 17.0577 68.2535 17.1853 68.1496 17.3419C66.5461 19.7663 65.8424 20.2419 65.0637 20.3231C63.9101 20.4101 64.7292 17.6145 66.9383 14.3259C65.6694 15.5149 64.7234 17.2897 63.2814 18.1423C61.1991 19.3719 57.4499 20.3869 55.0734 20.8161C53.4295 21.1061 52.9508 19.6213 53.591 17.7305C53.8466 17.0068 54.2382 16.3392 54.7447 15.7643C53.6372 16.6053 52.7258 18.4845 51.5261 19.2443C49.738 20.3521 46.8597 21.6281 44.6909 21.6339C43.3931 21.6339 43.8026 19.6735 44.1545 18.4381C44.2699 18.0263 44.6159 17.2201 44.5986 17.2781C44.0218 17.8117 42.7702 20.6305 40.4687 22.1617C37.5847 24.0641 36.8867 23.9017 35.4159 23.7103C35.9916 24.3014 36.3912 25.0428 36.5695 25.8505C36.7829 26.9177 36.8983 28.7505 35.7504 29.4059C34.3488 30.1947 33.7431 28.7389 33.6047 27.3527L33.5701 27.4107C33.4493 28.0435 33.4634 28.6949 33.6116 29.3218C33.7597 29.9487 34.0385 30.5368 34.4295 31.0473C34.6719 31.3298 35.0005 31.5236 35.364 31.5983C35.4457 31.1998 35.6196 30.8263 35.8716 30.5079C36.1401 30.1699 36.5181 29.9372 36.9396 29.8503C37.3611 29.7634 37.7996 29.8278 38.1788 30.0323C38.4502 30.2533 38.6508 30.5499 38.7556 30.8849C39.1824 30.4789 38.6921 25.8853 36.7252 24.6673C37.7552 24.3971 38.731 23.9497 39.6093 23.3449C41.024 22.5129 42.335 21.5141 43.5142 20.3695C43.3996 20.6096 43.3144 20.8628 43.2604 21.1235C43.1335 22.0747 44.4141 22.1849 45.0428 22.0515C47.0154 21.6339 48.8843 20.6363 50.707 19.8011C51.3417 19.5089 51.9598 19.1817 52.5586 18.8209C52.1202 19.6793 52.0856 20.5609 53.3488 20.8973C54.4447 21.1873 55.7483 20.8045 56.8096 20.5493C58.1622 20.2252 59.4934 19.8165 60.7953 19.3255C62.3764 18.8193 63.855 18.0337 65.1618 17.0055C64.9772 17.5507 64.7926 18.0959 64.6311 18.6469C64.5042 19.0761 64.1697 20.1607 64.8907 20.3231C65.7501 20.5145 66.6211 19.5575 67.0883 19.0007C67.3037 18.7413 67.4967 18.4638 67.6651 18.1713C67.7401 19.0587 67.9074 19.9519 68.0573 20.7871C68.2073 21.6223 68.4092 23.4899 69.4647 23.5885C70.3473 23.6639 70.6184 21.9529 70.6876 21.3961C70.728 21.1351 70.7568 20.8799 70.7856 20.6189C70.9091 21.4947 71.2771 22.3173 71.847 22.9911C71.964 23.1043 72.0872 23.2108 72.2161 23.3101C71.5069 24.7888 71.1966 26.4289 71.3163 28.0661C71.3792 28.8514 71.5743 29.6201 71.8931 30.3397C72.1547 30.103 72.4751 29.9419 72.8204 29.8735C73.1656 29.8051 73.5229 29.8319 73.8542 29.9511C74.1757 30.0861 74.4677 30.2832 74.7137 30.5311C74.9814 30.3587 75.2079 30.129 75.377 29.8583C75.8961 29.0463 75.8038 27.7645 75.4174 26.5987C75.3943 27.3469 75.1751 28.0603 74.5522 28.3735Z" fill="#D7711F"/>
</g>
<path d="M55.829 26.303C55.829 26.303 56.4462 24.389 57.669 24.4296C58.121 24.4738 58.5546 24.632 58.9297 24.8895C59.3048 25.1471 59.6092 25.4956 59.8147 25.9028C60.0916 26.3436 58.0612 24.5282 55.829 26.303Z" fill="#CC6809"/>
<path d="M41.3744 28.768C41.3744 28.768 41.9166 27.0976 42.9894 27.1324C43.3846 27.1706 43.7636 27.3087 44.0914 27.5338C44.4191 27.759 44.6849 28.0638 44.8641 28.42C45.1121 28.8086 43.3298 27.2194 41.3744 28.768Z" fill="#CC6809"/>
<path d="M45.037 33.8894C45.1524 35.0494 44.8467 36.0006 44.3448 36.0528C43.843 36.105 43.347 35.2176 43.2605 34.075C43.1739 32.9324 43.4508 31.9638 43.9469 31.9116C44.4429 31.8594 44.9217 32.7468 45.037 33.8894Z" fill="#673121"/>
<path d="M43.9122 33.1297C43.9122 33.4777 43.8026 33.7619 43.6526 33.7619C43.5027 33.7619 43.37 33.4893 43.3642 33.1413C43.3585 32.7933 43.4738 32.5091 43.6238 32.5033C43.7738 32.4975 43.9064 32.7817 43.9122 33.1297Z" fill="white"/>
<path d="M58.863 32.1378C58.9784 33.2978 58.6727 34.249 58.1766 34.3012C57.6806 34.3534 57.1788 33.466 57.0634 32.3234C56.948 31.1808 57.2537 30.2122 57.7498 30.1658C58.2459 30.1194 58.7477 30.9952 58.863 32.1378Z" fill="#673121"/>
<path d="M57.7441 31.3779C57.7441 31.7259 57.6345 32.0101 57.4845 32.0159C57.3346 32.0217 57.2019 31.7375 57.1961 31.3895C57.1904 31.0415 57.3057 30.7573 57.4557 30.7573C57.6057 30.7573 57.7383 31.0299 57.7441 31.3779Z" fill="white"/>
<path d="M44.2294 37.9088C44.2641 38.4888 43.1912 39.005 41.8299 39.0688C40.4687 39.1326 39.3381 38.7614 39.3035 38.1871C39.2689 37.6129 40.3764 37.1199 41.703 37.0271C43.0297 36.9343 44.1948 37.3404 44.2294 37.9088Z" fill="#F9CBC0"/>
<path d="M65.8656 35.7802C65.8656 36.3602 64.8216 36.8764 63.4661 36.9402C62.1106 37.004 60.9743 36.627 60.9397 36.0586C60.905 35.4902 61.9779 34.9624 63.3392 34.8986C64.7004 34.8348 65.831 35.2118 65.8656 35.7802Z" fill="#F9CBC0"/>
<path d="M52.7662 38.9758C52.0683 39.1962 51.3646 39.5558 50.7244 38.9758C50.0841 38.3958 50.3494 37.5664 50.7647 36.969C50.7647 36.9284 50.7301 36.8878 50.7013 36.9168C49.9918 37.5954 49.6919 38.5292 50.4013 39.3296C51.1108 40.13 52.4432 40.1184 52.9104 39.1556C52.9241 39.1341 52.9307 39.1088 52.9293 39.0833C52.9279 39.0578 52.9186 39.0334 52.9027 39.0135C52.8867 38.9936 52.865 38.9793 52.8405 38.9725C52.816 38.9658 52.79 38.9669 52.7662 38.9758V38.9758Z" fill="#C39368"/>
<path d="M38.8711 30.4439C38.7724 30.239 38.6315 30.0573 38.4579 29.911C38.2843 29.7647 38.0819 29.6571 37.8639 29.5952C37.6459 29.5332 37.4173 29.5185 37.1933 29.5518C36.9692 29.5851 36.7547 29.6658 36.5639 29.7885C35.5141 30.2873 34.9892 31.7779 34.7527 32.8219C34.61 33.3988 34.5965 34.0004 34.7132 34.5832C34.8299 35.1659 35.0739 35.7154 35.4276 36.1917C35.7255 36.4906 36.1136 36.6817 36.531 36.7352C36.9485 36.7887 37.3718 36.7016 37.7348 36.4875C37.7726 36.4664 37.8092 36.4432 37.8444 36.4179C37.9968 34.8935 38.2648 33.3831 38.6461 31.8997C38.7697 31.4233 38.8451 30.9356 38.8711 30.4439V30.4439Z" fill="#EFCAA6"/>
<path d="M37.4463 32.3755C37.1636 32.0217 36.3561 31.8709 36.2177 32.4509C36.2057 32.5078 36.2165 32.5672 36.2478 32.6161C36.2792 32.665 36.3285 32.6994 36.3849 32.7119C36.5103 32.7428 36.6423 32.7306 36.7599 32.6771C36.838 32.6559 36.9206 32.6571 36.998 32.6807C37.0755 32.7043 37.1449 32.7493 37.1982 32.8105C37.4787 33.0462 37.665 33.3757 37.7231 33.7385C37.7267 33.7488 37.7333 33.7576 37.7421 33.7639C37.7509 33.7702 37.7614 33.7736 37.7722 33.7736C37.7829 33.7736 37.7934 33.7702 37.8022 33.7639C37.811 33.7576 37.8176 33.7488 37.8212 33.7385C37.8571 33.4976 37.8422 33.2518 37.7776 33.017C37.7131 32.7822 37.6002 32.5637 37.4463 32.3755Z" fill="#C39368"/>
<path d="M74.3734 29.5799C73.3928 28.9245 72.5564 29.5799 71.9565 30.3223C72.0834 31.4823 72.1642 32.3639 72.2969 33.5181C72.404 34.2713 72.4195 35.0347 72.343 35.7917C73.6062 36.4239 75.4578 36.1165 75.9134 34.6317C76.4845 32.8453 75.9769 30.6645 74.3734 29.5799Z" fill="#EFCAA6"/>
<path d="M74.1196 32.2886C73.9438 32.1668 73.73 32.1131 73.5179 32.1376C73.3058 32.1622 73.1097 32.2632 72.966 32.422C72.8342 32.6072 72.7408 32.8171 72.6912 33.0393C72.6417 33.2615 72.637 33.4914 72.6776 33.7154C72.6821 33.7312 72.6915 33.745 72.7045 33.7549C72.7175 33.7648 72.7334 33.7701 72.7497 33.7701C72.766 33.7701 72.7818 33.7648 72.7948 33.7549C72.8079 33.745 72.8173 33.7312 72.8218 33.7154C72.9256 33.2804 73.116 32.6018 73.687 32.7352C73.8831 32.7816 74.0446 32.8918 74.2061 32.7352C74.3676 32.5786 74.2292 32.3988 74.1196 32.2886Z" fill="#C39368"/>
<path d="M48.0133 43.0998C48.0133 43.0998 56.0886 44.6774 61.3375 38.512C61.3375 38.512 62.8372 43.732 56.8327 45.8722C50.8281 48.0124 48.0133 43.0998 48.0133 43.0998Z" fill="#F15860"/>
<path d="M50.3552 44.4511C51.7742 45.3907 53.6142 45.2805 55.2119 44.8687C56.7494 44.5397 58.1619 43.7772 59.2842 42.6705C59.8702 42.0755 60.2935 41.3382 60.5128 40.5303C60.5787 40.1299 60.6019 39.7235 60.582 39.3181C56.5444 43.3781 51.1801 43.3781 49.0055 43.2215C49.3996 43.6894 49.8534 44.1028 50.3552 44.4511Z" fill="white"/>
<path d="M31.782 65.4414L27.4963 48.198L1.14783 63.5448L9.62111 83.1024L11.813 116L31.782 91.1992L70.8895 98.7682L72.1469 64.6004L31.782 65.4414Z" fill="#BEA18D"/>
<path d="M31.782 65.4413L72.1469 64.6003L70.8895 98.7681L31.782 91.1991V65.4413Z" fill="#BEA18D"/>
<g style="mix-blend-mode:multiply" opacity="0.3">
<path d="M31.782 65.4413L72.1469 64.6003L70.8895 98.7681L31.782 91.1991V65.4413Z" fill="#BEA18D"/>
</g>
<path d="M54.2659 115.484L70.8895 98.7681L72.1469 64.6003L52.3798 82.2613L54.2659 115.484Z" fill="#BEA18D"/>
<g style="mix-blend-mode:multiply" opacity="0.2">
<path d="M54.2659 115.484L70.8895 98.7681L72.1469 64.6003L52.3798 82.2613L54.2659 115.484Z" fill="#BEA18D"/>
</g>
<path d="M60.9569 61.126L52.3798 82.2612L72.1469 64.6002L84.1676 45.988L60.9569 61.126Z" fill="#BEA18D"/>
<path d="M27.4963 48.198L1.14783 63.5448L9.62111 83.1024L31.782 65.4414L27.4963 48.198Z" fill="#DABDA5"/>
<path d="M9.62109 83.1024L11.813 116L31.782 91.1992V65.4414L9.62109 83.1024Z" fill="#BEA18D"/>
<path d="M9.62109 83.1025L52.3797 82.2615L54.2659 115.484L11.813 115.872L9.62109 83.1025Z" fill="#BEA18D"/>
<path d="M52.3798 82.2615L43.4969 98.0317L43.7104 99.1337L52.3798 82.2615Z" fill="#CBAD93"/>
<path d="M1.14773 63.5447L0.455566 63.6549L9.64986 84.8597L10.2843 84.1869L1.14773 63.5447Z" fill="#CBAD93"/>
<path d="M27.4963 48.198L1.14778 63.5448L0.149902 63.7536L27.4963 48.198Z" fill="#CBAD93"/>
<path d="M0 97.9273L43.497 98.0317L52.3798 82.2615L9.62113 83.1025L0 97.9273Z" fill="#DABDA5"/>
<path d="M0 97.9272V99.1337H43.7104L43.497 98.0317L0 97.9272Z" fill="#CBAD93"/>
<g style="mix-blend-mode:multiply" opacity="0.3">
<path d="M57.9459 72.9929C57.9545 72.8229 57.9545 72.6525 57.9459 72.4825C57.9459 72.4303 57.9459 72.3781 57.9459 72.3259C57.9328 72.2109 57.9135 72.0967 57.8882 71.9837C57.8882 71.9257 57.8882 71.8677 57.8479 71.8097C57.8075 71.7517 57.7844 71.5835 57.744 71.4733C57.7313 71.4261 57.7158 71.3796 57.6979 71.3341C57.6409 71.1817 57.5754 71.0326 57.5018 70.8875C57.5018 70.8875 57.5018 70.8875 57.5018 70.8875C57.4268 70.7425 57.346 70.6091 57.2653 70.4757C57.2653 70.4351 57.2134 70.4003 57.1903 70.3655C57.1672 70.3307 57.0461 70.1683 56.9711 70.0755C56.8961 69.9827 56.9134 70.0001 56.8788 69.9653C56.8442 69.9305 56.7115 69.7797 56.625 69.6927L56.55 69.6173C55.8311 68.932 54.8815 68.5447 53.891 68.5327C53.0293 68.5528 52.1944 68.8375 51.4984 69.3487C50.8024 69.8598 50.2787 70.5729 49.9975 71.3921V71.3921C49.9571 71.5081 49.9168 71.6299 49.8822 71.7517L49.8475 71.8909L49.761 71.7807C49.7432 71.7494 49.7219 71.7202 49.6976 71.6937C49.1461 70.9619 48.3726 70.4306 47.4942 70.1799H47.4538C46.7155 69.9634 45.931 69.9634 45.1927 70.1799C44.9711 70.2478 44.755 70.3331 44.5467 70.4351C44.0354 70.6383 43.5717 70.9465 43.1854 71.3399C42.986 71.5557 42.8083 71.7908 42.6548 72.0417L42.5683 71.8561C42.5506 71.8119 42.5294 71.7692 42.5048 71.7285L42.3491 71.4733C42.3491 71.4733 42.3087 71.4095 42.2856 71.3747C42.0067 70.9748 41.6543 70.6322 41.2474 70.3655C40.7124 70.037 40.0977 69.8632 39.4708 69.8632C38.844 69.8632 38.2292 70.037 37.6942 70.3655C37.3511 70.5763 37.045 70.8428 36.7887 71.1543C36.6823 70.9638 36.5648 70.7799 36.4368 70.6033C36.4357 70.5898 36.4357 70.5762 36.4368 70.5627L36.2522 70.3365C36.2339 70.322 36.2183 70.3043 36.2061 70.2843L36.0042 70.0755C35.235 69.3478 34.2105 68.9558 33.1548 68.9851C30.2707 68.9851 28.8057 71.4501 28.846 73.8687H28.7653C27.8835 73.862 27.017 74.1009 26.2619 74.5589C25.6158 74.9599 25.0631 75.496 24.6411 76.1307V76.1307C24.5719 76.2409 24.4911 76.3453 24.4335 76.4555C24.2401 76.7974 24.0835 77.1591 23.9663 77.5343C23.9037 77.699 23.8517 77.8675 23.8105 78.0389C23.7193 78.4198 23.6614 78.8079 23.6375 79.1989C23.3934 78.5708 22.987 78.0196 22.4603 77.6023C21.9335 77.1849 21.3055 76.9166 20.641 76.8249C19.9766 76.7333 19.2999 76.8217 18.6809 77.081C18.0618 77.3403 17.5228 77.7611 17.1196 78.2999L17.0619 78.3811L16.935 78.5725L16.8831 78.6711C16.8431 78.7349 16.8066 78.8007 16.7735 78.8683L16.7331 78.9495C16.6697 79.0887 16.6062 79.2279 16.5543 79.3729C16.5431 79.3974 16.5335 79.4226 16.5254 79.4483C16.5254 79.5179 16.4793 79.5875 16.462 79.6571C16.4447 79.7267 16.4332 79.7441 16.4274 79.7847C16.4047 79.8528 16.3873 79.9227 16.3755 79.9935C16.3625 80.0392 16.3529 80.0857 16.3466 80.1327C16.3466 80.1965 16.3178 80.2661 16.312 80.3357C16.3092 80.3898 16.3092 80.444 16.312 80.4981C16.312 80.6083 16.312 80.7185 16.312 80.8287C16.312 80.9389 16.312 80.9447 16.312 81.0027V81.1825C16.312 81.2463 16.312 81.3101 16.312 81.3681C16.312 81.4261 16.312 81.4841 16.312 81.5421C16.312 81.6001 16.312 81.6929 16.3409 81.7741C16.3697 81.8553 16.3409 81.8901 16.3409 81.9481C16.3409 82.0061 16.3697 82.1279 16.3928 82.2207C16.4016 82.2678 16.4131 82.3142 16.4274 82.3599C16.4274 82.4295 16.462 82.4991 16.4851 82.5745C16.4959 82.6198 16.5093 82.6643 16.5254 82.7079C16.5254 82.7833 16.5774 82.8587 16.6062 82.9399C16.635 83.0211 16.6062 83.0037 16.6466 83.0385C16.687 83.0733 16.7389 83.2531 16.7908 83.3517L16.8312 83.4271C16.8715 83.5083 16.9177 83.5837 16.9638 83.6591C16.987 83.6906 17.0082 83.7236 17.0273 83.7577C17.0734 83.8273 17.1253 83.8911 17.1715 83.9549L17.2407 84.0419C17.311 84.1311 17.3861 84.2163 17.4656 84.2971V84.2971L17.7194 84.5349L17.8002 84.5987L18.0136 84.7495L18.1059 84.8075L18.3482 84.9467L18.4231 84.9873C18.5327 85.0337 18.6481 85.0859 18.7635 85.1265H18.8442L19.1326 85.2135H19.2595L19.5421 85.2599H19.669C19.8017 85.2599 19.9459 85.2599 20.0901 85.2599C20.283 85.2589 20.4757 85.2453 20.6669 85.2193L20.765 85.2599C20.8953 85.2384 21.0244 85.2093 21.1514 85.1729L21.2899 85.1381C21.4477 85.0868 21.6019 85.0248 21.7513 84.9525H21.7975C21.9301 84.8829 22.0513 84.8075 22.1666 84.7321L22.282 84.6509C22.38 84.5755 22.4781 84.5001 22.5646 84.4189L22.6511 84.3435C22.7607 84.2275 22.8703 84.1115 22.9684 83.9897L23.003 83.9433C23.0895 83.8331 23.1645 83.7171 23.2452 83.5953L23.3029 83.4967C23.3721 83.3749 23.4356 83.2473 23.4933 83.1197V83.0675C23.5567 82.9167 23.6202 82.7543 23.6721 82.5919C23.7182 82.4372 23.7586 82.2806 23.7932 82.1221C23.79 82.101 23.79 82.0795 23.7932 82.0583C23.822 81.8843 23.8509 81.7103 23.8682 81.5305C23.9767 81.8501 24.1018 82.1638 24.2431 82.4701C24.6511 83.244 25.2462 83.9022 25.9735 84.3841C26.7312 84.8842 27.6228 85.1392 28.5288 85.1149H28.7422C29.0388 85.1172 29.3341 85.0762 29.619 84.9931C29.9105 84.9375 30.1936 84.8439 30.4611 84.7147C30.7356 84.614 31.0001 84.4878 31.2513 84.3377C32.4208 83.5813 33.2634 82.4089 33.6105 81.0549L33.6451 80.8983C33.7685 81.3547 33.9366 81.7976 34.1469 82.2207C34.5542 82.992 35.1496 83.6466 35.8773 84.1231C36.3862 84.4643 36.9792 84.657 37.5904 84.6799C37.9416 84.7661 38.3018 84.8089 38.6633 84.8075C39.5565 84.8141 40.4337 84.569 41.1955 84.0999C41.4377 83.9201 41.6915 83.7461 41.928 83.5547C42.6366 84.1176 43.5111 84.4277 44.414 84.4363C45.1347 84.4252 45.8415 84.2351 46.4715 83.883C47.1014 83.5309 47.6351 83.0276 48.0248 82.4179C48.6008 82.6368 49.2176 82.7259 49.8315 82.6788C50.4455 82.6317 51.0417 82.4496 51.578 82.1453C51.6221 82.1256 51.6645 82.1023 51.7049 82.0757L51.8318 82.0119H51.7914C52.5166 81.6033 53.1155 81.0012 53.5218 80.2719C53.9958 79.3841 54.1966 78.3747 54.0986 77.3719C55.1651 77.25 56.1487 76.7348 56.8593 75.926C57.5699 75.1171 57.9571 74.0721 57.9459 72.9929V72.9929Z" fill="#BEA18D"/>
</g>
<g style="mix-blend-mode:multiply" opacity="0.5">
<path d="M31.805 69.1707C29.8266 69.8261 28.8518 71.8445 28.8864 73.8107H28.8057C27.9201 73.803 27.0497 74.0419 26.2908 74.5009C25.6417 74.9 25.0867 75.4364 24.6642 76.0727C24.5892 76.1829 24.5142 76.2873 24.4508 76.3975C24.2574 76.7394 24.1008 77.101 23.9836 77.4763C23.9201 77.6503 23.8624 77.8243 23.822 77.9809C23.7352 78.3623 23.6793 78.7503 23.6548 79.1409C23.3956 78.4222 22.9178 77.804 22.2893 77.374C21.6608 76.944 20.9135 76.724 20.1536 76.7455C19.5608 76.7356 18.9748 76.8722 18.4468 77.1432C17.9188 77.4142 17.4651 77.8114 17.1253 78.2999C17.1056 78.328 17.0844 78.3551 17.0619 78.3811L16.9408 78.5725L16.8831 78.6711C16.8485 78.7349 16.8081 78.7987 16.7735 78.8683L16.7389 78.9495C16.6691 79.0868 16.6074 79.2282 16.5543 79.3729C16.5543 79.4019 16.5543 79.4251 16.5543 79.4483C16.5261 79.516 16.5029 79.5858 16.4851 79.6571C16.4851 79.7035 16.4562 79.7441 16.4505 79.7847C16.4447 79.8253 16.4159 79.9239 16.3986 79.9935C16.3856 80.0391 16.376 80.0856 16.3697 80.1327C16.3697 80.1965 16.3409 80.2661 16.3351 80.3357C16.3323 80.3897 16.3323 80.444 16.3351 80.4981C16.3351 80.6083 16.3351 80.7185 16.3351 80.8287C16.3351 80.9389 16.3351 80.9447 16.3351 81.0027V81.1825C16.3351 81.2463 16.3351 81.3101 16.3351 81.3681C16.3351 81.4261 16.3351 81.4841 16.3351 81.5421C16.3351 81.6001 16.3351 81.6929 16.3639 81.7741C16.3928 81.8553 16.3639 81.8901 16.3639 81.9481C16.3639 82.0061 16.3928 82.1279 16.4159 82.2207L16.4505 82.3599C16.4505 82.4295 16.4851 82.4991 16.5081 82.5745C16.5312 82.6499 16.537 82.6615 16.5485 82.7079C16.5601 82.7543 16.6004 82.8587 16.6293 82.9399C16.6462 82.9712 16.6597 83.0042 16.6697 83.0385C16.7158 83.1429 16.7619 83.2531 16.8139 83.3517C16.8295 83.3755 16.843 83.4008 16.8542 83.4271L16.9927 83.6591C17.0118 83.6932 17.0329 83.7261 17.0561 83.7577C17.1023 83.8273 17.1484 83.8911 17.2003 83.9549L17.2695 84.0419C17.3398 84.131 17.4149 84.2162 17.4945 84.2971V84.2971C17.5769 84.3807 17.6635 84.4601 17.754 84.5349L17.8348 84.5987L18.0424 84.7495L18.1405 84.8075L18.3828 84.9467L18.4577 84.9873C18.5673 85.0337 18.6827 85.0859 18.8038 85.1265H18.8846C18.9769 85.1613 19.0749 85.1845 19.173 85.2135H19.2999L19.5825 85.2599H19.7094C19.8479 85.2599 19.9863 85.2599 20.1363 85.2599C20.3292 85.2593 20.5219 85.2457 20.7131 85.2193L20.8746 85.1903C21.0072 85.1903 21.1341 85.1381 21.261 85.1033L21.3995 85.0685C21.5569 85.0162 21.711 84.9542 21.8609 84.8829H21.9071C22.0397 84.8133 22.1608 84.7379 22.282 84.6625L22.3916 84.5813C22.4954 84.5059 22.5877 84.4305 22.68 84.3493C22.7061 84.3211 22.7351 84.2958 22.7665 84.2739C22.8761 84.1579 22.9857 84.0419 23.0837 83.9201L23.1183 83.8737C23.2056 83.7624 23.2865 83.6462 23.3606 83.5257L23.4183 83.4271C23.4875 83.3053 23.5567 83.1777 23.6144 83.0501V82.9979C23.6859 82.8441 23.7457 82.6851 23.7932 82.5223C23.8394 82.3657 23.874 82.2091 23.9086 82.0525C23.9108 82.0313 23.9108 82.0099 23.9086 81.9887C23.9444 81.8142 23.9713 81.638 23.9893 81.4609C24.0978 81.7805 24.223 82.0941 24.3642 82.4005C24.7722 83.1743 25.3673 83.8325 26.0947 84.3145C26.8562 84.8154 27.7518 85.0704 28.6615 85.0453H28.8749C29.1734 85.048 29.4707 85.0069 29.7574 84.9235C30.0508 84.8678 30.3358 84.7742 30.6053 84.6451C30.8798 84.5443 31.1443 84.4181 31.3955 84.2681C31.5339 84.1859 31.6668 84.0949 31.7935 83.9955L31.805 69.1707Z" fill="#BEA18D"/>
</g>
<path d="M53.9486 71.5488C53.1484 71.5407 52.3638 71.772 51.6945 72.2132C51.0253 72.6544 50.5015 73.2856 50.1897 74.0267C49.8779 74.7679 49.7921 75.5854 49.9433 76.3757C50.0945 77.1659 50.4759 77.8931 51.0389 78.465C51.6019 79.0368 52.3213 79.4276 53.1056 79.5875C53.8899 79.7475 54.7038 79.6695 55.4439 79.3635C56.1841 79.0574 56.8171 78.5371 57.2625 77.8685C57.708 77.2 57.9459 76.4135 57.9459 75.6088C57.9385 74.5413 57.5163 73.519 56.7694 72.7604C56.0225 72.0018 55.0101 71.5669 53.9486 71.5488V71.5488Z" fill="#E41761"/>
<path d="M56.1693 72.2564C56.3625 72.4464 56.5276 72.6632 56.6596 72.9002C56.9002 73.3194 57.0529 73.7837 57.1084 74.2644C57.164 74.7452 57.1212 75.2323 56.9826 75.6958C56.8078 76.2836 56.4953 76.8206 56.0713 77.2618C55.8503 77.5027 55.5861 77.6995 55.2926 77.8418C54.7671 78.1471 54.169 78.3035 53.5622 78.2942C52.9786 78.2865 52.4068 78.1287 51.901 77.836C51.652 77.6808 51.4183 77.5021 51.203 77.3024C50.7179 76.8634 50.3761 76.2872 50.2225 75.6494C50.1068 75.1549 50.0911 74.6421 50.1763 74.1414C50.0007 74.5905 49.9088 75.0683 49.9052 75.5508C49.8936 76.2552 50.0645 76.9505 50.4011 77.5684C50.7377 78.1862 51.2284 78.7054 51.825 79.0749C52.4215 79.4443 53.1034 79.6513 53.8036 79.6755C54.5038 79.6997 55.1983 79.5402 55.8186 79.2129C56.439 78.8855 56.964 78.4014 57.342 77.8082C57.7199 77.215 57.9379 76.5332 57.9744 75.8296C58.011 75.1261 57.8649 74.4251 57.5504 73.7956C57.2359 73.166 56.7639 72.6296 56.1809 72.239L56.1693 72.2564Z" fill="#991751"/>
<path d="M33.8296 71.9199C28.2634 71.9199 28.2173 80.6199 33.7662 80.6199C39.315 80.6199 39.3843 71.9199 33.8296 71.9199Z" fill="#7C3795"/>
<path d="M36.5982 72.9407C36.6768 73.22 36.7175 73.5088 36.7194 73.7991V73.8687C36.6706 74.6815 36.3151 75.4449 35.7255 76.003C35.1359 76.5612 34.3567 76.872 33.5469 76.872C32.7371 76.872 31.9579 76.5612 31.3683 76.003C30.7787 75.4449 30.4233 74.6815 30.3745 73.8687V73.7411C28.7306 76.2699 29.8438 80.6199 33.7661 80.6199C38.1383 80.6199 39.1073 75.2143 36.5982 72.9407Z" fill="#6F2F67"/>
<path d="M43.2604 75.3012C43.0348 74.4307 42.4746 73.686 41.703 73.2306C41.1769 72.9252 40.5801 72.7644 39.9726 72.7644C39.3651 72.7644 38.7683 72.9252 38.2422 73.2306C37.7334 73.5133 37.3091 73.9278 37.0136 74.4312C36.6891 74.9848 36.5179 75.6156 36.5176 76.2582C36.5141 76.7107 36.5994 77.1593 36.7684 77.5786C36.9375 77.9979 37.187 78.3797 37.5027 78.702C37.8185 79.0243 38.1943 79.281 38.6086 79.4573C39.023 79.6336 39.4679 79.7261 39.9178 79.7295C40.3678 79.733 40.814 79.6472 41.231 79.4773C41.648 79.3073 42.0276 79.0564 42.3481 78.7389C42.6687 78.4214 42.9239 78.0436 43.0993 77.6269C43.2746 77.2102 43.3666 76.7629 43.37 76.3104C43.3726 75.9709 43.3358 75.6322 43.2604 75.3012Z" fill="#22B99F"/>
<path d="M43.2604 75.3013C43.1268 74.7571 42.8545 74.2574 42.4702 73.8513C42.468 73.8938 42.468 73.9364 42.4702 73.9789C42.3413 74.4589 42.104 74.9024 41.7768 75.2751C41.4496 75.6478 41.0412 75.9395 40.5835 76.1275C40.1258 76.3155 39.6312 76.3948 39.138 76.3591C38.6449 76.3235 38.1666 76.1738 37.7404 75.9219C37.3651 75.6848 37.0366 75.38 36.7714 75.0229C36.6199 75.4086 36.5455 75.8205 36.5522 76.2351C36.5488 76.6876 36.634 77.1362 36.803 77.5555C36.9721 77.9748 37.2216 78.3566 37.5373 78.6789C37.8531 79.0012 38.2289 79.2579 38.6433 79.4342C39.0576 79.6105 39.5025 79.703 39.9524 79.7064C40.4024 79.7099 40.8486 79.6241 41.2656 79.4542C41.6826 79.2842 42.0622 79.0333 42.3828 78.7158C42.7033 78.3983 42.9586 78.0204 43.1339 77.6038C43.3092 77.1871 43.4012 76.7398 43.4046 76.2873C43.3941 75.9542 43.3458 75.6234 43.2604 75.3013Z" fill="#008D93"/>
<path d="M50.2226 74.9591C49.6804 74.04 48.8064 73.3668 47.7827 73.0799H47.7481C47.0287 72.8826 46.2699 72.8826 45.5504 73.0799C45.3375 73.1395 45.1292 73.2151 44.9275 73.3061C44.4323 73.502 43.9811 73.7959 43.6008 74.1703C43.1152 74.6506 42.7632 75.2505 42.5799 75.9103C42.3868 76.6478 42.3868 77.4231 42.5799 78.1606C42.7802 78.8676 43.1553 79.5121 43.6701 80.0341C44.1715 80.5443 44.7953 80.9159 45.4812 81.1128L46.5714 81.2636C47.3037 81.2757 48.0255 81.0872 48.6594 80.7184C49.1378 80.4507 49.5582 80.0896 49.8959 79.6564C50.2337 79.2232 50.482 78.7265 50.6263 78.1955C50.7831 77.657 50.8282 77.0918 50.7588 76.5351C50.6893 75.9783 50.5068 75.4419 50.2226 74.9591V74.9591Z" fill="#5EA03B"/>
<path d="M50.2226 74.959C50.0305 74.638 49.8 74.3419 49.5362 74.0774C49.5347 74.3578 49.4959 74.6367 49.4208 74.9068C49.4088 74.9289 49.3991 74.9522 49.392 74.9764C49.3597 75.6633 49.1076 76.3213 48.6732 76.8524C48.2387 77.3835 47.6452 77.7593 46.9812 77.9236C46.3171 78.0879 45.618 78.0321 44.988 77.7643C44.3581 77.4966 43.8311 77.0314 43.4855 76.438C43.1786 75.9793 43.0085 75.442 42.9952 74.8894C42.8139 75.1899 42.6742 75.5138 42.5799 75.8522C42.3868 76.5898 42.3868 77.365 42.5799 78.1026C42.7802 78.8095 43.1553 79.454 43.6701 79.976C44.1715 80.4862 44.7953 80.8578 45.4812 81.0548L46.5714 81.2056C47.3037 81.2176 48.0255 81.0292 48.6594 80.6604C49.1378 80.3927 49.5582 80.0316 49.8959 79.5983C50.2337 79.1651 50.482 78.6684 50.6263 78.1374C50.775 77.6075 50.8159 77.0529 50.7465 76.5068C50.6771 75.9607 50.4989 75.4343 50.2226 74.959V74.959Z" fill="#009749"/>
<path d="M53.6429 77.8882C53.3131 77.3097 52.8556 76.8151 52.3057 76.4425C51.7558 76.0699 51.1281 75.8292 50.4711 75.739C49.8141 75.6488 49.1452 75.7115 48.5161 75.9222C47.887 76.1329 47.3144 76.486 46.8424 76.9544C46.5429 77.2633 46.2797 77.6059 46.0579 77.9752C45.5775 78.7829 45.3737 79.7268 45.4777 80.6622C45.5817 81.5976 45.9878 82.4729 46.6338 83.154C47.2797 83.8352 48.13 84.2846 49.0542 84.4334C49.9785 84.5823 50.9258 84.4224 51.751 83.9782L51.8779 83.9144C51.9164 83.8897 51.9569 83.8683 51.999 83.8506H51.9586C52.4652 83.577 52.9119 83.2039 53.2723 82.7534C53.6326 82.3029 53.8993 81.7841 54.0564 81.228C54.2135 80.6718 54.2578 80.0896 54.1868 79.5159C54.1158 78.9421 53.9308 78.3886 53.6429 77.8882Z" fill="#FFF200"/>
<path d="M53.6429 77.8881C53.5358 77.701 53.4143 77.5225 53.2795 77.3545C53.5355 77.8206 53.6611 78.3478 53.6429 78.8799C53.63 79.2331 53.5758 79.5835 53.4814 79.9239C53.3471 80.3152 53.1671 80.689 52.945 81.0375C52.945 81.0375 52.945 81.0375 52.945 81.0375C52.632 81.5466 52.2054 81.9756 51.6991 82.2903C51.4167 82.4565 51.1168 82.5908 50.805 82.6905C50.1139 82.8937 49.3793 82.8937 48.6881 82.6905C48.0811 82.5172 47.5274 82.1923 47.0786 81.7461C46.6299 81.3 46.3006 80.7469 46.1214 80.1385C46.0385 79.8159 45.9902 79.4854 45.9772 79.1525C45.9388 78.7366 45.998 78.3174 46.1502 77.9287L46.2194 77.7431C46.1733 77.8127 46.1214 77.8765 46.081 77.9519C45.6006 78.7597 45.3967 79.7035 45.5008 80.6389C45.6048 81.5743 46.0109 82.4496 46.6568 83.1308C47.3028 83.8119 48.153 84.2613 49.0773 84.4102C50.0015 84.559 50.9488 84.3991 51.7741 83.9549L51.901 83.8911C51.9395 83.8664 51.98 83.8451 52.0221 83.8273H51.9817C52.4832 83.5517 52.9249 83.1781 53.2809 82.7285C53.6369 82.2789 53.9 81.7623 54.0547 81.2091C54.2095 80.6558 54.2528 80.0771 54.182 79.5068C54.1113 78.9365 53.928 78.3862 53.6429 77.8881V77.8881Z" fill="#DDB326"/>
<path d="M34.5507 81.5015C34.5311 80.6476 34.3096 79.8106 33.9047 79.0597C33.7124 78.6513 33.4373 78.2878 33.0971 77.9925L32.9414 77.8533C32.6456 77.5699 32.3251 77.3137 31.9839 77.0877C31.2542 76.6444 30.4203 76.4043 29.5678 76.3921C28.7153 76.3799 27.875 76.5959 27.133 77.0181C26.4029 77.4363 25.7913 78.0353 25.3564 78.7581C25.1661 79.0674 25.0131 79.3984 24.9007 79.7441C24.8395 79.8929 24.7893 80.0461 24.7507 80.2023C24.6269 80.6773 24.5686 81.1672 24.5777 81.6581C24.5937 82.5611 24.8273 83.4468 25.2583 84.2391C25.6679 84.9542 26.2514 85.5529 26.9541 85.9791C27.698 86.4412 28.5605 86.6731 29.4344 86.6461H29.6421C29.9305 86.6525 30.2183 86.6154 30.4957 86.5359C30.7782 86.4883 31.0535 86.4045 31.3148 86.2865C31.5811 86.1957 31.838 86.0792 32.082 85.9385C33.2078 85.2795 34.0351 84.2064 34.3892 82.9457C34.5282 82.4779 34.5829 81.9888 34.5507 81.5015V81.5015Z" fill="#F27697"/>
<path d="M34.5507 81.5015C34.5161 81.0897 34.4815 80.8055 34.4411 80.5735C34.3371 81.5726 33.8929 82.5049 33.1836 83.2125C32.4378 83.9516 31.4751 84.4295 30.4381 84.5755C29.5183 84.7489 28.5671 84.5864 27.7559 84.1173C26.9242 83.6534 26.2553 82.9423 25.8409 82.0815C25.3194 81.0456 25.1863 79.8556 25.466 78.7291C25.4948 78.6305 25.5237 78.5435 25.5583 78.4507C25.4891 78.5493 25.4141 78.6479 25.3564 78.7465C25.1661 79.0558 25.0131 79.3868 24.9007 79.7325C24.8395 79.8813 24.7893 80.0344 24.7507 80.1907C24.6269 80.6657 24.5686 81.1555 24.5777 81.6465C24.5937 82.5495 24.8273 83.4351 25.2583 84.2275C25.6679 84.9425 26.2514 85.5413 26.9541 85.9675C27.698 86.4295 28.5605 86.6615 29.4344 86.6345H29.6421C29.9305 86.6409 30.2183 86.6037 30.4957 86.5243C30.7782 86.4766 31.0535 86.3928 31.3148 86.2749C31.5811 86.1841 31.838 86.0675 32.0819 85.9269C33.2078 85.2678 34.0351 84.1948 34.3892 82.9341C34.5268 82.4699 34.5815 81.9849 34.5507 81.5015V81.5015Z" fill="#D14C88"/>
<path d="M44.1776 81.3565C44.1715 80.4745 43.9433 79.6085 43.5143 78.8393C43.1115 78.142 42.535 77.5623 41.8415 77.1573C41.1159 76.7442 40.2988 76.5209 39.4651 76.5077C38.9889 76.4969 38.5134 76.5516 38.0519 76.6701C37.5877 76.7897 37.1401 76.967 36.7195 77.1979C36.3243 77.4096 35.9628 77.6794 35.6466 77.9983C35.0699 78.5816 34.6527 79.3048 34.4353 80.0979C34.2919 80.5552 34.2275 81.0339 34.245 81.5131C34.2505 82.3745 34.4727 83.2205 34.891 83.9723C35.3012 84.6849 35.8822 85.2831 36.5811 85.7123C37.0507 86.0367 37.5944 86.2362 38.1615 86.2923C38.509 86.3772 38.8653 86.42 39.2228 86.4199C40.0827 86.4343 40.9309 86.2181 41.68 85.7935C42.0751 85.5546 42.4426 85.2726 42.776 84.9525C43.3556 84.3583 43.7797 83.629 44.0103 82.8297C44.166 82.3553 44.2229 81.8539 44.1776 81.3565Z" fill="#006DB6"/>
<path d="M44.1775 81.3565C44.1715 80.4745 43.9432 79.6085 43.5142 78.8393C43.1115 78.142 42.5349 77.5622 41.8415 77.1573L41.5934 77.0413C41.9603 77.3404 42.2794 77.6945 42.5394 78.0911C42.7672 78.3925 42.9195 78.7446 42.9835 79.1177C43.0636 79.5303 43.1022 79.95 43.0989 80.3705C43.0997 80.694 43.0668 81.0166 43.0009 81.3333C42.7958 82.1936 42.3147 82.962 41.6318 83.5198C40.9488 84.0775 40.1022 84.3935 39.2228 84.4189C38.8567 84.4264 38.492 84.3715 38.1441 84.2565C37.5668 84.0748 37.0382 83.7634 36.5983 83.3459C36.2424 83.0729 35.9559 82.7191 35.7619 82.3135C35.408 81.6645 35.2216 80.9366 35.2197 80.1965C35.2188 79.4733 35.4186 78.7643 35.7965 78.1491C35.9974 77.8639 36.217 77.5926 36.4541 77.3371C36.1627 77.5334 35.8887 77.7546 35.635 77.9983C35.0583 78.5816 34.6411 79.3048 34.4237 80.0979C34.2803 80.5552 34.2159 81.0338 34.2334 81.5131C34.2389 82.3745 34.4611 83.2205 34.8794 83.9723C35.2896 84.6849 35.8706 85.2831 36.5695 85.7123C37.0391 86.0367 37.5828 86.2362 38.1499 86.2923C38.5011 86.3781 38.8613 86.4209 39.2228 86.4199C40.0826 86.4343 40.9308 86.2181 41.68 85.7935C42.075 85.5546 42.4425 85.2726 42.7759 84.9525C43.3555 84.3583 43.7796 83.629 44.0103 82.8297C44.1659 82.3553 44.2228 81.8539 44.1775 81.3565Z" fill="#24468F"/>
<path d="M21.1976 79.0886C16.2082 79.0886 16.1448 86.878 21.1399 86.878C26.1351 86.878 26.1928 79.0886 21.1976 79.0886Z" fill="#00B6E6"/>
<path d="M24.4624 81.0145C24.5774 81.5301 24.5774 82.0649 24.4624 82.5805C24.3178 83.1141 24.0376 83.6006 23.6492 83.9921C23.2608 84.3836 22.7777 84.6667 22.2475 84.8135C21.6941 84.9643 21.1108 84.9643 20.5574 84.8135C20.0264 84.6673 19.543 84.3833 19.1558 83.9899C18.7559 83.5817 18.4644 83.0792 18.3079 82.5283C18.1906 82.1181 18.1588 81.688 18.2144 81.2648C18.2699 80.8417 18.4117 80.4346 18.6309 80.0691V80.0691C16.4679 82.1687 17.2927 86.8667 21.1746 86.8667C24.5143 86.8783 25.6333 83.3171 24.4624 81.0145Z" fill="#0082C0"/>
<path d="M44.8466 77.4996C44.0047 77.4939 43.18 77.7393 42.4769 78.2049C41.7737 78.6705 41.2236 79.3352 40.8962 80.1152C40.5687 80.8951 40.4786 81.7551 40.6373 82.5865C40.796 83.4179 41.1962 84.1834 41.7875 84.786C42.3788 85.3887 43.1345 85.8015 43.9591 85.9723C44.7837 86.1431 45.6402 86.0642 46.4202 85.7455C47.2002 85.4269 47.8687 84.8828 48.3412 84.1821C48.8136 83.4814 49.0689 82.6556 49.0746 81.809C49.0717 80.677 48.6272 79.5913 47.8365 78.7854C47.0459 77.9795 45.9723 77.5178 44.8466 77.4996V77.4996Z" fill="#EE781F"/>
<path d="M48.4921 79.6572C48.4921 79.7036 48.5209 79.7558 48.5382 79.8138C48.6968 80.4124 48.6968 81.0423 48.5382 81.6408C48.2307 82.6551 47.5408 83.5081 46.6159 84.0175C45.6911 84.5269 44.6048 84.6523 43.5892 84.3668C42.731 84.0897 41.9964 83.5193 41.5127 82.7544C41.0041 81.8371 40.8462 80.7646 41.0686 79.7384C40.7297 80.3528 40.5492 81.0427 40.5437 81.7452C40.5752 82.8548 41.0337 83.9088 41.8225 84.6854C42.6113 85.462 43.6689 85.9006 44.7728 85.9088C45.8767 85.9171 46.9407 85.4944 47.741 84.7297C48.5412 83.9651 49.0152 82.918 49.0631 81.809C49.068 81.0533 48.8708 80.3101 48.4921 79.6572V79.6572Z" fill="#D26228"/>
</g>
<defs>
<clipPath id="clip0_616_785">
<rect width="95" height="116" fill="white"/>
</clipPath>
</defs>
</svg>
