<svg width="67" height="126" viewBox="0 0 67 126" fill="none" xmlns="http://www.w3.org/2000/svg">
<path d="M51.9028 66.2451C51.9028 66.2451 49.0684 69.6402 40.0169 70.774C30.9655 71.9078 30.1466 72.7014 30.1466 72.7014C30.1466 72.7014 37.6548 63.9775 44.5143 63.5177C51.3737 63.0579 52.0225 66.1758 51.9028 66.2451Z" fill="#203600"/>
<path d="M51.651 78.8933C51.651 78.8933 54.9642 85.6835 55.5563 92.8768C56.1484 100.07 53.5407 114.179 52.8478 115.773C52.8478 115.773 50.7188 118.293 49.5409 114.576C49.5409 114.576 52.8478 101.349 50.7188 90.2124C50.3661 88.3227 47.2922 81.5577 47.2922 81.5577L51.651 78.8933Z" fill="#F4D9BF"/>
<path d="M21.7126 90.9678C21.7126 90.9678 29.202 94.8731 34.008 95.6668C34.008 95.6668 33.9324 87.8562 32.8301 84.0391L38.8959 85.0343C38.8959 85.0343 38.9778 95.503 38.1841 98.2619C37.3905 101.021 34.9528 101.903 31.016 100.215C27.0793 98.5264 20.1568 93.985 20.1568 93.985C20.1568 93.985 18.897 90.6088 21.7126 90.9678Z" fill="#F4D9BF"/>
<g style="mix-blend-mode:multiply">
<path d="M48.6654 84.7009C47.9347 82.9813 47.2922 81.5514 47.2922 81.5514L51.651 78.8933C51.651 78.8933 52.2809 80.1531 52.9927 82.0994C51.6627 83.1412 50.2093 84.0149 48.6654 84.7009V84.7009Z" fill="#F4D9BF"/>
</g>
<g style="mix-blend-mode:multiply">
<path d="M33.4598 87.3271C33.3264 86.2178 33.1159 85.1191 32.83 84.0391L38.8958 85.0343C38.8958 85.0343 38.8958 86.4074 38.8958 88.2908C37.0429 88.2724 35.206 87.9468 33.4598 87.3271V87.3271Z" fill="#F4D9BF"/>
</g>
<path d="M54.0446 110.475C53.7776 112.268 53.3776 114.039 52.8478 115.773C52.8478 115.773 50.7188 118.292 49.5409 114.576C49.5409 114.576 50.0133 112.686 50.492 109.701C51.0022 110.061 51.5795 110.315 52.1898 110.448C52.8 110.581 53.4307 110.591 54.0446 110.475V110.475Z" fill="#F3F4EF" stroke="#BFBFBE" stroke-width="0.21" stroke-miterlimit="10"/>
<path d="M21.7126 90.9679C21.7126 90.9679 23.2936 91.7867 25.4919 92.7568C24.6847 93.8348 24.2155 95.1282 24.144 96.4731C21.8827 95.1125 20.1568 93.9851 20.1568 93.9851C20.1568 93.9851 18.897 90.6089 21.7126 90.9679Z" fill="#F3F4EF" stroke="#BFBFBE" stroke-width="0.21" stroke-miterlimit="10"/>
<path d="M50.6622 115.269C50.6622 115.269 52.0794 113.272 54.0888 115.332C54.0888 115.332 53.9124 116.334 56.9862 118.129C60.0601 119.924 62.6048 120.793 62.3088 124.188C62.0127 127.583 53.9124 125.253 52.5518 124.787C51.1913 124.321 45.8247 121.637 46.1081 118.929C46.2917 117.391 46.6728 115.884 47.2419 114.444C47.8277 113.046 47.0026 112.258 48.6592 111.981C49.1437 111.903 49.6392 111.927 50.1142 112.05C50.1142 112.05 49.9567 112.938 49.8622 113.247C50.2867 113.847 50.561 114.541 50.6622 115.269Z" fill="#DC7C00"/>
<path d="M20.1568 93.9851C20.1568 93.9851 21.87 93.3552 22.185 95.3394C22.3047 96.0952 21.6937 99.1754 21.3976 101.393C21.1016 103.61 20.2512 107.811 17.8325 107.433C15.4137 107.055 15.4452 102.696 15.4452 100.996C15.4452 99.295 15.905 89.7397 17.9018 88.4799C18.6387 88.0138 19.2875 88.5114 20.8244 89.7397C21.4521 90.1948 22.0362 90.7072 22.5692 91.2703C22.5692 91.2703 21.3094 90.5711 20.7929 91.7049C20.4648 92.4277 20.2502 93.1968 20.1568 93.9851V93.9851Z" fill="#DC7C00"/>
<g style="mix-blend-mode:multiply">
<path d="M52.3186 119.3C51.8857 119.009 51.4992 118.655 51.1722 118.248C51.8714 116.989 52.8288 115.867 54.2335 115.773C54.4391 116.131 54.7055 116.451 55.0208 116.718C53.8933 117.196 53.0997 118.261 52.3186 119.3Z" fill="#BB8DC6"/>
</g>
<g style="mix-blend-mode:multiply">
<path d="M53.78 119.244C53.9938 118.872 54.2542 118.529 54.5548 118.223C55.002 117.776 55.5248 117.764 56.0161 117.493C56.2933 117.688 56.6145 117.89 56.9861 118.123L57.7168 118.538C57.1639 118.665 56.6426 118.903 56.1846 119.238C55.7265 119.572 55.3413 119.996 55.0524 120.485C54.6178 120.069 54.2272 119.615 53.78 119.244Z" fill="#BB8DC6"/>
</g>
<g style="mix-blend-mode:multiply">
<path d="M46.253 117.927C48.1316 120.717 50.8798 122.808 54.0699 123.873C56.8918 124.818 60.0538 125.089 62.2584 122.916C62.3237 123.333 62.3364 123.756 62.2962 124.176C62.0001 127.571 53.8998 125.24 52.5393 124.774C51.1787 124.308 45.8121 121.625 46.0955 118.916C46.1396 118.62 46.1837 118.293 46.253 117.927Z" fill="#BB8DC6"/>
</g>
<g style="mix-blend-mode:multiply">
<path d="M18.8025 98.5329C18.9091 97.975 19.0869 97.433 19.3316 96.9204C20.2317 96.9883 21.1212 97.1573 21.9834 97.4243C21.9141 97.9093 21.8322 98.4321 21.7504 98.9675C20.8063 98.6285 19.8042 98.4808 18.8025 98.5329V98.5329Z" fill="#BB8DC6"/>
</g>
<g style="mix-blend-mode:multiply">
<path d="M18.9347 102.041C18.8548 101.465 18.8211 100.884 18.8339 100.303C19.282 100.15 19.7526 100.073 20.226 100.076C20.6669 100.076 21.1015 100.183 21.5425 100.246C21.4858 100.637 21.4291 101.021 21.3787 101.38C21.3787 101.607 21.3157 101.852 21.2716 102.111C20.5078 101.912 19.7089 101.888 18.9347 102.041V102.041Z" fill="#BB8DC6"/>
</g>
<g style="mix-blend-mode:multiply">
<path d="M17.883 88.48C18.3932 88.1588 18.8719 88.3099 19.6277 88.839C17.209 90.6405 17.1082 95.245 16.8247 98.1739C16.5413 100.939 16.2578 104.958 17.8263 107.433C15.4012 107.055 15.439 102.697 15.439 100.996C15.439 99.2951 15.8862 89.7398 17.883 88.48Z" fill="#BB8DC6"/>
</g>
<path d="M47.8214 62.8501C48.33 65.3456 48.6855 67.8698 48.8859 70.4087C48.8859 70.4087 53.6164 77.3375 54.2084 79.2271L45.1066 85.3496L41.4407 78.2949L40.8486 85.7527C40.8486 85.7527 32.9246 86.2818 29.0256 85.0851C29.0256 85.0851 29.498 74.566 30.6759 70.9756L47.8214 62.8501Z" fill="#005A9E"/>
<g style="mix-blend-mode:multiply">
<path d="M33.6992 73.3626C33.5418 74.5657 33.5481 75.794 32.4395 76.4428C31.5673 76.9223 30.5987 77.1999 29.605 77.2553C29.7727 75.1283 30.129 73.0204 30.6695 70.9565L34.0772 69.3376C33.9701 70.6919 33.8756 72.0336 33.6992 73.3626Z" fill="#005587"/>
</g>
<g style="mix-blend-mode:multiply">
<path d="M44.4326 71.3723C42.4476 71.6136 40.4452 71.679 38.4487 71.5676C36.1702 71.4552 33.9029 71.1773 31.6648 70.7361L47.8717 63.0515C47.8717 63.0515 48.6339 66.8308 48.8733 69.722C47.6891 70.8243 45.9128 71.177 44.4326 71.3723Z" fill="#005587"/>
</g>
<path d="M47.349 68.0276C46.5524 68.2805 45.7429 68.4907 44.924 68.6575C43.0602 69.0674 41.1624 69.3036 39.255 69.363C37.8346 69.3778 36.4146 69.3042 35.0033 69.1425L47.8719 63.0515C47.8719 63.0515 48.3065 65.1868 48.6214 67.4607C48.2126 67.6823 47.7872 67.8718 47.349 68.0276V68.0276Z" fill="#EFCAA6"/>
<path d="M44.7223 45.2069L49.1315 41.8811C49.1315 41.8811 58.353 42.1457 61.4395 56.507C63.959 57.0361 66.088 61.0107 66.0124 63.3224C66.0124 63.6059 65.7605 63.7759 65.54 63.5996C65.0046 63.1586 65.0802 61.8674 63.7952 60.3367C64.4808 61.7416 64.8832 63.2676 64.9794 64.8278C65.0361 66.4718 64.0094 66.5222 63.8645 65.5711C63.744 64.4757 63.4327 63.4098 62.9449 62.4217C62.849 62.2274 62.7395 62.04 62.6173 61.8611C62.7748 62.3335 62.9134 62.8122 63.0268 63.2594C63.2976 64.3491 63.3543 66.2199 62.9449 66.9253C62.8063 67.1647 62.504 67.0387 62.4158 66.8183C61.9874 65.8168 61.9875 64.5255 61.6662 63.4547C61.5059 62.9583 61.3102 62.4742 61.0804 62.0059C61.4646 63.9586 61.3702 66.1947 60.4505 67.7505C60.2805 68.0339 59.9466 67.8702 59.8206 67.6308C59.3797 66.6545 59.512 65.5018 59.5624 64.4814C59.6317 63.1397 59.0585 60.9918 57.6727 61.1934C56.9484 61.3005 56.413 62.7618 55.7138 62.787C54.4981 62.8311 55.3863 61.0485 55.8335 60.3241C56.4396 59.4038 57.1521 58.5582 57.9562 57.8046C57.989 57.7307 58.0269 57.6591 58.0696 57.5904C57.8995 54.8001 55.6886 43.2102 44.7223 45.2069Z" fill="#EFCAA6" stroke="#C9976D" stroke-width="0.21" stroke-miterlimit="10"/>
<path d="M24.4652 50.8758L19.7096 48.3059C19.7096 48.3059 10.6204 50.1011 9.44877 64.8152C7.01741 65.76 5.4301 70.0433 5.81433 72.3171C5.85842 72.5943 6.12297 72.7203 6.31824 72.5124C6.79065 71.9896 6.5513 70.7235 7.6158 68.9913C7.12349 70.4866 6.92458 72.0629 7.03001 73.6336C7.19378 75.2713 8.21419 75.1516 8.23309 74.1879C8.2124 73.0861 8.38071 71.9889 8.7307 70.944C8.80249 70.7284 8.88877 70.518 8.98895 70.3141C8.88817 70.8117 8.81888 71.303 8.76219 71.7628C8.63622 72.8903 8.83148 74.7548 9.32279 75.3784C9.49286 75.5988 9.77001 75.4162 9.833 75.1831C10.1227 74.1249 9.95898 72.8462 10.1353 71.7376C10.2283 71.2187 10.3588 70.7071 10.5259 70.207C10.3999 72.1975 10.7841 74.3958 11.9179 75.7752C12.1195 76.0272 12.4281 75.813 12.5037 75.5547C12.8124 74.5217 12.5037 73.4005 12.3462 72.3675C12.1006 71.0574 12.384 68.8339 13.8013 68.8024C14.5319 68.8024 15.2248 70.1503 15.9492 70.0622C17.1586 69.9047 16.0437 68.2859 15.5146 67.6434C14.7908 66.8363 13.9723 66.1193 13.0769 65.5081C13.0366 65.4371 12.9902 65.3696 12.9383 65.3065C12.7116 62.5476 13.3919 50.7121 24.4652 50.8758Z" fill="#EFCAA6" stroke="#C9976D" stroke-width="0.21" stroke-miterlimit="10"/>
<path d="M50.8952 40.7474C48.7001 41.1238 46.4534 41.0789 44.2751 40.6151C41.2013 39.8151 39.3116 39.2797 35.526 39.6829C31.7404 40.086 27.1296 42.2024 24.566 43.2795C22.0024 44.3566 15.2185 49.402 15.2185 49.402C15.9464 52.368 17.187 55.184 18.8844 57.7228C18.8844 57.7228 22.4055 54.46 25.9518 53.5404C25.9518 53.5404 28.1375 68.6576 30.1468 72.7141C30.1468 72.7141 34.1088 72.4495 40.6092 68.7899C47.1096 65.1302 51.903 66.2703 51.903 66.2703C51.903 66.2703 46.9395 53.9939 44.2751 49.1312C46.5077 49.1666 48.7402 49.0551 50.9582 48.7973C51.5139 46.1404 51.4924 43.3952 50.8952 40.7474V40.7474Z" fill="#00BD7E"/>
<g style="mix-blend-mode:multiply">
<path d="M39.8028 42.2339C36.6153 43.1842 33.2944 43.6097 29.9703 43.4937C28.4451 43.3998 26.9279 43.2041 25.4288 42.9079C28.1121 41.7741 32.1245 40.0356 35.5259 39.6829C39.3052 39.2797 41.1949 39.8151 44.275 40.6151H44.3884C42.9125 41.2935 41.3775 41.8353 39.8028 42.2339V42.2339Z" fill="#B5B5B5"/>
</g>
<path d="M49.711 48.9547C49.7866 47.8776 49.8117 46.7942 49.7991 45.7045C49.8247 44.7864 49.7551 43.8682 49.5913 42.9645C49.4338 42.2905 49.2511 41.6292 49.1 40.9552C49.7015 40.9162 50.3007 40.8469 50.8952 40.7473C51.4932 43.3972 51.5147 46.1447 50.9581 48.8035C50.5676 48.8665 50.1456 48.9106 49.711 48.9547Z" fill="#207100"/>
<path d="M17.2403 47.9026C17.3726 49.4584 18.3363 51.1402 18.8276 52.4C19.3167 53.7535 19.8911 55.0747 20.5472 56.3556C19.5142 57.1178 18.8528 57.7225 18.8528 57.7225C17.1554 55.1837 15.9148 52.3677 15.1869 49.4017C15.1869 49.4017 16.0372 48.7655 17.2403 47.9026Z" fill="#207100"/>
<g style="mix-blend-mode:multiply">
<path d="M44.2751 49.1315C45.3333 51.0211 46.7443 54.1391 48.0544 57.1625C47.6828 56.4067 47.3049 55.6571 46.9143 54.9138C45.6546 52.4762 44.1869 50.2023 42.7949 47.8465C42.0894 46.6434 41.4469 45.3963 40.7352 44.1995C40.2187 43.3239 39.5888 42.5303 39.0723 41.6484C39.5762 42.102 40.0675 42.5681 40.5462 43.0657C41.1761 43.7397 41.9886 45.0183 42.9083 45.2451C45.6483 45.9128 48.5394 45.327 51.3361 45.2451C51.3212 46.4311 51.1883 47.6127 50.9393 48.7724C48.7282 49.0378 46.502 49.1577 44.2751 49.1315V49.1315Z" fill="#00BD7E"/>
</g>
<g style="mix-blend-mode:multiply">
<path d="M22.1157 51.7453C23.6642 50.7957 25.291 49.9802 26.9784 49.3076C28.1475 48.8541 29.2363 48.2161 30.2034 47.418C30.5247 48.7722 30.9026 50.1076 31.3057 51.4429C32.1246 54.1703 32.8993 56.904 33.8883 59.5559C35.2058 63.0928 36.7849 66.5268 38.6124 69.8293C33.3088 72.4874 30.1467 72.7016 30.1467 72.7016C28.1374 68.6577 25.9517 53.5405 25.9517 53.5405C22.4054 54.4727 18.8529 57.7355 18.8529 57.7355C18.3694 57.0579 17.9317 56.3487 17.5427 55.6128C18.8806 54.1181 20.4196 52.8165 22.1157 51.7453V51.7453Z" fill="#00BD7E"/>
</g>
<path d="M35.5827 39.4812C36.4195 39.3909 37.2606 39.3467 38.1022 39.349C38.5683 40.8481 39.0156 43.5692 36.433 44.1424C33.6993 44.7723 32.0238 42.3346 31.3184 40.4639C32.7036 39.9953 34.1321 39.6661 35.5827 39.4812Z" fill="#207100"/>
<path d="M36.2944 37.1631C36.2944 37.1631 37.5542 40.3629 37.4786 41.7613C37.403 43.1596 35.2299 44.0918 33.3844 42.1455C31.5388 40.1991 31.5514 37.2828 31.5514 37.2828L36.2944 37.1631Z" fill="#C9976D"/>
<g style="mix-blend-mode:multiply">
<path d="M9.00157 22.2412C9.13385 22.0649 9.25982 21.8822 9.3858 21.6932L8.92599 21.5169C8.25532 21.2752 7.5529 21.1331 6.84106 21.0948C7.59063 20.7043 8.33389 20.3075 9.07716 19.9044C9.99162 19.5046 10.8528 18.9925 11.6408 18.38C12.1569 17.8793 12.6369 17.3426 13.0769 16.7738C13.4486 18.4241 13.0769 20.2256 14.1351 21.6302C14.1564 21.6533 14.1822 21.6718 14.2109 21.6844C14.2396 21.697 14.2707 21.7035 14.3021 21.7035C14.3334 21.7035 14.3645 21.697 14.3932 21.6844C14.4219 21.6718 14.4477 21.6533 14.469 21.6302C15.3737 20.7794 16.0144 19.686 16.3145 18.4808C16.5287 17.536 16.4531 15.9991 16.9948 15.1487C18.3743 17.6683 18.3491 20.8744 19.949 23.2868C20.0246 23.3939 20.1631 23.4758 20.2765 23.3813C20.7215 22.987 21.0044 22.4416 21.0702 21.8507C21.2803 20.8975 21.5389 19.9557 21.8449 19.0288C22.2607 17.725 22.9409 14.4244 24.4527 14.1031C26.3423 13.7126 28.5154 14.3866 30.3862 14.5503C31.394 14.6448 33.1136 15.1802 34.0584 14.6259C35.0032 14.0716 34.6883 12.7363 34.4678 11.8796C34.2474 11.023 33.9513 10.223 33.838 9.36008C33.649 8.22629 33.9072 8.1507 34.8521 8.25778C36.9811 8.48454 39.0597 9.05773 41.2013 9.2278C43.4752 9.40417 45.7554 9.40417 48.0356 9.36008C48.3127 9.36008 48.3379 8.94436 48.0923 8.83728C47.1348 8.41525 46.2467 7.86095 45.3082 7.38224C44.7224 7.11769 44.0925 6.87833 43.5319 6.55079C44.8484 6.24215 46.2215 6.39962 47.5002 5.80753C48.7985 5.11127 50.1779 4.57813 51.607 4.22021C50.4921 4.80601 49.3772 5.36031 48.3064 6.03428C48.023 6.21065 47.7206 6.43111 47.412 6.66417C47.897 6.93502 48.3757 7.21217 48.8355 7.52081C49.8474 8.3003 50.7333 9.23082 51.4621 10.2797C51.5251 10.3616 51.4244 10.4876 51.3362 10.4246C51.3185 10.4084 51.2995 10.3936 51.2795 10.3805C50.5404 10.5012 49.7921 10.556 49.0434 10.5443C48.6025 10.5443 48.1615 10.5884 47.7206 10.6199C48.7536 11.6214 49.5725 12.9567 50.511 14.0527C50.5182 14.0652 50.522 14.0793 50.522 14.0937C50.522 14.108 50.5182 14.1222 50.511 14.1346V14.1346C50.574 14.1661 50.5551 14.2795 50.511 14.2732C49.5703 14.1825 48.6215 14.3208 47.7458 14.6763C47.0215 16.6856 46.9018 19.0855 46.7947 21.1767C46.6687 23.7467 46.7443 26.4237 46.442 28.9684C46.4362 29.0221 46.4192 29.074 46.3921 29.1206C46.365 29.1673 46.3283 29.2077 46.2845 29.2393C46.2574 29.8028 46.1182 30.3553 45.8751 30.8644C45.3775 31.8785 44.25 32.628 43.4122 33.2327C41.3336 34.7256 38.9463 35.3743 36.5465 35.8342C31.4192 36.8168 25.8384 36.9932 21.5552 33.0564C20.9253 32.7666 20.2954 32.4265 19.7159 32.206C18.2047 31.6621 16.8263 30.8033 15.6721 29.6865C14.5824 28.5842 13.669 27.2866 12.5856 26.178C11.4302 24.9733 9.92115 24.168 8.2772 23.8789C8.25026 23.8704 8.2261 23.8548 8.20726 23.8338C8.18842 23.8127 8.17559 23.787 8.17012 23.7593C8.08824 23.8097 8.03155 23.6963 8.06934 23.6207C8.32942 23.1286 8.64198 22.6661 9.00157 22.2412V22.2412Z" fill="#C53623"/>
</g>
<path d="M20.2575 31.7586C20.0017 32.2235 19.6326 32.6162 19.1844 32.9003C18.7362 33.1845 18.2235 33.3507 17.6939 33.3837C15.8798 33.4719 14.62 31.2043 14.4185 29.6548C14.2169 28.1052 14.3429 26.1904 16.157 27.1352C17.3896 27.8374 18.4742 28.7723 19.3505 29.8878L20.2575 31.7586Z" fill="#EFCAA6"/>
<path d="M45.1633 24.301C45.1633 24.301 46.2656 21.6365 47.8026 22.4113C49.3395 23.1861 49.7615 25.989 49.4214 27.085C49.0812 28.181 47.242 28.433 46.6121 28.1684C45.9822 27.9039 45.1633 24.301 45.1633 24.301Z" fill="#EFCAA6"/>
<path d="M46.612 26.1149C46.7079 25.725 46.8652 25.3529 47.0781 25.0126C47.1437 24.8707 47.2486 24.7505 47.3803 24.6663C47.512 24.5821 47.6651 24.5374 47.8214 24.5374C47.9777 24.5374 48.1308 24.5821 48.2625 24.6663C48.3942 24.7505 48.4991 24.8707 48.5647 25.0126C48.5647 25.063 48.5647 25.1323 48.4954 25.0945C48.256 24.8992 47.9789 24.7228 47.708 24.937C47.5103 25.1092 47.3551 25.3248 47.2545 25.5669C47.6107 25.6944 47.9098 25.9445 48.0985 26.2724C48.1363 26.3353 48.0985 26.4298 48.0167 26.3794C47.9007 26.2474 47.7585 26.1411 47.599 26.0674C47.4395 25.9936 47.2664 25.954 47.0907 25.9511C47.034 26.1023 46.9773 26.2472 46.927 26.4046C46.8891 26.6509 46.8058 26.888 46.6813 27.1038C46.665 27.1171 46.6457 27.1264 46.6251 27.1308C46.6045 27.1352 46.5831 27.1346 46.5628 27.129C46.5424 27.1235 46.5237 27.1131 46.5082 27.0989C46.4926 27.0847 46.4807 27.0669 46.4734 27.0471C46.4402 26.7297 46.4878 26.4089 46.612 26.1149V26.1149Z" fill="#C39368"/>
<path d="M17.1838 23.9358C17.2052 23.9779 17.2354 24.0149 17.2723 24.0442C17.3093 24.0736 17.3522 24.0946 17.398 24.1058C17.5366 24.9751 17.694 25.838 17.8704 26.6947C18.9475 31.8975 21.1143 36.9177 25.7692 39.0278C31.3626 41.5474 38.4992 41.2639 43.6768 37.661C45.5665 36.3382 47.6388 34.0958 48.0167 31.4944C48.4388 28.5591 46.8577 26.0081 45.7617 23.5011C45.0072 21.8216 44.6001 20.0069 44.565 18.166C44.6294 16.6289 44.4703 15.0907 44.0925 13.5993C43.4707 11.8571 42.2374 10.4 40.6219 9.49878C36.3261 5.90214 30.2918 5.48011 25.2842 7.40756C22.3615 8.52246 19.2247 10.557 17.4043 13.4104C15.4391 16.5157 15.5272 20.6289 17.1838 23.9358Z" fill="#F4D9BF"/>
<g style="mix-blend-mode:multiply">
<path d="M33.3466 39.3614C35.7339 40.4259 37.9196 38.1016 38.6314 35.7711C36.8614 36.508 34.4049 36.0923 32.5656 35.2105C32.5557 35.215 32.545 35.2173 32.5341 35.2173C32.5232 35.2173 32.5125 35.215 32.5026 35.2105C31.5346 34.9249 30.6954 34.3128 30.1279 33.4783C30.4051 35.9033 31.1798 38.4229 33.3466 39.3614Z" fill="#930323"/>
</g>
<path d="M32.2252 36.0925C31.538 35.7043 30.903 35.2302 30.3356 34.6815C30.26 34.2847 30.1907 33.8753 30.1466 33.4722C30.7141 34.3067 31.5533 34.9188 32.5213 35.2044C32.5312 35.2089 32.5419 35.2112 32.5528 35.2112C32.5636 35.2112 32.5744 35.2089 32.5843 35.2044C34.0058 35.9004 35.5838 36.2152 37.1635 36.1177L36.8549 36.7476C35.3936 37.2389 33.5291 36.8106 32.2252 36.0925Z" fill="white"/>
<path d="M32.8111 37.6987C33.4254 37.6803 34.0346 37.8146 34.5842 38.0894C35.1338 38.3642 35.6067 38.771 35.9606 39.2734C35.5616 39.4901 35.1177 39.6109 34.664 39.6262C34.2102 39.6415 33.7592 39.5509 33.3465 39.3616C32.6593 39.0507 32.0661 38.564 31.627 37.9506C31.9989 37.7823 32.4029 37.6964 32.8111 37.6987V37.6987Z" fill="#F9CBC0"/>
<path d="M40.2185 25.2648C40.4075 26.4112 40.8484 27.2741 41.1571 27.1985C41.4657 27.1229 41.6043 26.1277 41.4153 24.9813C41.2264 23.8349 40.7854 22.972 40.4705 23.0476C40.1555 23.1232 40.0233 24.1247 40.2185 25.2648Z" fill="#3D1A0B"/>
<path d="M40.7541 24.2379C40.8296 24.578 40.9745 24.8237 41.069 24.7859C41.1635 24.7481 41.1824 24.4457 41.1131 24.0993C41.0438 23.7528 40.8926 23.5135 40.7982 23.5513C40.7037 23.5891 40.6785 23.8914 40.7541 24.2379Z" fill="white"/>
<path d="M28.1311 27.2427C28.3201 28.3891 28.761 29.2521 29.076 29.1765C29.3909 29.1009 29.5169 28.1057 29.3279 26.9593C29.139 25.8129 28.698 24.9436 28.3831 25.0192C28.0682 25.0948 27.9422 26.0963 28.1311 27.2427Z" fill="#3D1A0B"/>
<path d="M28.6664 26.2096C28.7483 26.5497 28.8869 26.7954 28.9814 26.7639C29.0758 26.7324 29.101 26.4174 29.0255 26.0773C28.9499 25.7371 28.805 25.4915 28.7105 25.523C28.616 25.5545 28.5908 25.8694 28.6664 26.2096Z" fill="white"/>
<path d="M35.9982 28.8296C35.9982 28.7477 36.0738 28.5399 36.0864 28.6281C36.2817 30.0768 37.743 28.5084 38.3729 29.0186C39.261 29.7493 38.102 31.7019 37.68 32.3318C37.68 32.3696 37.6044 32.3318 37.6233 32.2814C37.9305 31.6569 38.1793 31.0054 38.3666 30.3351C38.4296 30.0075 38.4359 29.4406 38.0895 29.491C37.8659 29.5486 37.6531 29.6422 37.4596 29.7682C37.2769 29.8689 37.1572 29.9886 37.0249 30.0579C36.8927 30.1272 36.8675 30.228 36.7919 30.3162C36.615 30.6059 36.4613 30.9092 36.3321 31.2232C36.2817 31.3303 36.1368 31.261 36.1431 31.1539C36.1877 30.7479 36.3304 30.3588 36.5588 30.0201C36.3745 29.8833 36.2268 29.703 36.129 29.4953C36.0312 29.2876 35.9863 29.0589 35.9982 28.8296Z" fill="#C39368"/>
<path d="M27.8225 19.5265C29.0822 19.4572 30.216 20.698 30.7892 21.8696C30.827 21.9326 30.7388 21.983 30.6947 21.9326C29.9578 21.1138 29.0507 20.15 27.9358 20.2382C26.6446 20.3453 26.254 22.1279 25.7186 23.1672C25.5927 23.4065 25.3155 23.2302 25.3155 23.0034C25.2903 21.4539 26.3359 19.6272 27.8225 19.5265Z" fill="#C53623"/>
<path d="M40.2754 17.7502C41.3525 17.9455 42.2973 19.7155 41.7808 20.843C41.7178 20.9815 41.5226 21.0382 41.4596 20.843C41.1824 20.0619 41.0942 19.2053 40.4518 18.6762C39.3872 17.788 38.5621 19.7155 38.266 20.528C38.266 20.5497 38.2574 20.5706 38.2421 20.5859C38.2267 20.6013 38.2059 20.6099 38.1842 20.6099C38.1624 20.6099 38.1416 20.6013 38.1263 20.5859C38.1109 20.5706 38.1023 20.5497 38.1023 20.528C37.9637 19.1801 38.9904 17.5235 40.2754 17.7502Z" fill="#C53623"/>
<path d="M24.1628 31.6578C24.1628 32.3759 25.3848 32.9491 26.8965 32.9176C28.4083 32.8861 29.6302 32.2877 29.6365 31.576C29.6428 30.8642 28.4146 30.2784 26.9091 30.3162C25.4037 30.354 24.1691 30.9272 24.1628 31.6578Z" fill="#F9CBC0"/>
<path d="M41.0186 29.3338C41.1697 29.8314 42.0264 29.9637 42.9082 29.5605C43.7901 29.1574 44.4262 28.4897 44.2751 27.9921C44.1239 27.4945 43.2673 27.3937 42.3854 27.7654C41.5036 28.137 40.8611 28.8362 41.0186 29.3338Z" fill="#F9CBC0"/>
<path d="M29.8067 33.1257C29.7185 35.6453 31.1043 39.3679 33.586 39.8466C36.0678 40.3253 38.4739 38.4294 38.9148 35.6453C39.3279 35.4402 39.6946 35.1528 39.9925 34.8007C40.2904 34.4487 40.5131 34.0394 40.647 33.5982C40.647 33.5352 40.584 33.4911 40.5525 33.5478C38.5747 37.1444 34.2537 35.387 31.3625 34.1399L31.2932 34.1021C30.8194 33.8613 30.4076 33.5143 30.0902 33.0879V33.0879C30.0851 33.0504 30.0654 33.0163 30.0353 32.9933C30.0052 32.9702 29.9671 32.9601 29.9295 32.9651C29.8919 32.9701 29.8579 32.9899 29.8349 33.02C29.8118 33.0501 29.8017 33.0882 29.8067 33.1257ZM30.1279 33.4722C30.6955 34.3067 31.5346 34.9188 32.5026 35.2044C32.5125 35.2089 32.5232 35.2112 32.5341 35.2112C32.545 35.2112 32.5557 35.2089 32.5656 35.2044C34.4049 36.0862 36.8614 36.5019 38.6314 35.765C37.9196 38.1207 35.7339 40.4198 33.3467 39.3553C31.1799 38.4231 30.4051 35.9035 30.1279 33.4722Z" fill="#C39368"/>
<path d="M15.9113 28.9745C16.9191 28.5273 17.971 30.3414 18.4308 31.072C18.4749 31.1413 18.393 31.2169 18.3426 31.1539C18.097 30.8642 17.8513 30.5618 17.5931 30.2784C17.2592 30.5303 16.7994 30.6878 16.6482 31.1413C16.6412 31.1582 16.6284 31.1719 16.6121 31.18C16.5957 31.1881 16.577 31.1901 16.5594 31.1855C16.5417 31.1809 16.5263 31.17 16.516 31.155C16.5057 31.1399 16.5012 31.1217 16.5034 31.1035C16.555 30.8743 16.6532 30.6582 16.7919 30.4686C16.9306 30.279 17.1068 30.1199 17.3096 30.0012C17.0443 29.737 16.7268 29.531 16.3774 29.3966C15.5963 29.1257 15.7916 30.4548 15.7979 30.9272C15.7986 30.9511 15.7907 30.9744 15.7758 30.993C15.7608 31.0117 15.7398 31.0244 15.7163 31.0289C15.6928 31.0335 15.6685 31.0295 15.6477 31.0178C15.6269 31.0061 15.6109 30.9874 15.6026 30.965C15.4074 30.3792 15.2688 29.2454 15.9113 28.9745Z" fill="#C39368"/>
<path d="M14.2359 20.1563C14.358 21.6626 14.7618 23.1326 15.4264 24.4899C16.2893 26.1591 17.4609 27.6393 18.2798 29.3022C18.2846 29.3193 18.295 29.3344 18.3092 29.3451C18.3234 29.3558 18.3407 29.3616 18.3585 29.3616C18.3763 29.3616 18.3936 29.3558 18.4078 29.3451C18.422 29.3344 18.4323 29.3193 18.4372 29.3022C18.4819 29.3029 18.5257 29.2893 18.562 29.2632C18.5983 29.2371 18.6252 29.1999 18.6388 29.1573C19.0041 27.9731 18.9096 26.5748 19.0167 25.3339C19.1301 23.9671 19.2372 22.6002 19.4009 21.2397C19.6277 19.3941 20.3395 17.3092 20.3584 15.3691C21.0056 16.4199 21.7455 17.4107 22.5693 18.3296C22.5876 18.3555 22.6156 18.373 22.6469 18.3783C22.6782 18.3837 22.7103 18.3763 22.7362 18.3579C22.7621 18.3396 22.7796 18.3117 22.7849 18.2804C22.7902 18.2491 22.7829 18.2169 22.7645 18.191L22.7267 18.128C23.0921 17.0194 23.6905 15.829 23.7409 14.6133C24.7593 14.9776 25.8159 15.2248 26.8903 15.3502C28.4965 15.5644 30.1846 15.9108 31.7782 15.4951C31.7976 15.4906 31.8148 15.4792 31.8264 15.4629C31.838 15.4467 31.8432 15.4268 31.8412 15.4069C31.8582 15.4058 31.8746 15.4001 31.8886 15.3905C31.9027 15.3808 31.9138 15.3675 31.9209 15.352C31.928 15.3365 31.9308 15.3194 31.929 15.3024C31.9271 15.2855 31.9207 15.2694 31.9105 15.2558C31.4941 14.7484 31.1211 14.2069 30.7956 13.637C30.7263 13.5236 30.6507 13.3976 30.5625 13.2653C31.2491 13.3031 31.9294 13.3598 32.6033 13.3535C33.9072 13.3535 35.2111 13.3535 36.5149 13.3913C38.7888 13.3913 41.0312 13.4795 43.3051 13.6055C43.3281 13.6057 43.3504 13.5975 43.3678 13.5824C43.3852 13.5673 43.3965 13.5464 43.3996 13.5236V13.5236C43.4878 13.5866 43.6074 13.4543 43.5256 13.3661C42.9965 12.7929 42.4863 12.1882 41.9194 11.6654C41.7871 11.5394 41.6548 11.4135 41.5099 11.2875L42.4925 11.3694C43.7019 11.4953 44.9113 11.6276 46.127 11.6402C46.1494 11.642 46.1717 11.6352 46.1892 11.6212C46.2068 11.6071 46.2183 11.5869 46.2215 11.5646C46.2387 11.5635 46.2552 11.5568 46.2685 11.5457C46.2818 11.5346 46.2912 11.5196 46.2954 11.5028C46.2996 11.486 46.2983 11.4683 46.2918 11.4523C46.2854 11.4362 46.274 11.4226 46.2593 11.4135C44.7223 10.2923 43.0343 8.9632 41.2202 8.26403C39.0315 6.16586 36.1811 4.89433 33.1576 4.66738C31.2877 4.61189 29.4167 4.73634 27.5706 5.03901C25.8791 5.17602 24.2237 5.60212 22.6764 6.29879C17.8829 8.64826 11.603 13.2275 14.2359 20.1563Z" fill="#C53623"/>
<g style="mix-blend-mode:multiply">
<path d="M14.5697 21.4162C14.5881 21.4548 14.6171 21.4875 14.6533 21.5104C14.6896 21.5333 14.7315 21.5454 14.7744 21.5454C14.8172 21.5454 14.8592 21.5333 14.8954 21.5104C14.9317 21.4875 14.9607 21.4548 14.9791 21.4162V21.4162C15.0925 21.4162 15.1744 21.3217 15.2122 21.2209C15.585 19.8168 15.7797 18.3715 15.7917 16.9188C15.8914 17.2043 16.007 17.484 16.1381 17.7565C16.1534 17.7909 16.1772 17.8207 16.2072 17.8432C16.2373 17.8658 16.2726 17.8803 16.3099 17.8853C16.3471 17.8904 16.385 17.8858 16.42 17.8721C16.455 17.8584 16.4859 17.8359 16.5097 17.8069C17.7767 16.2047 18.835 14.4479 19.6592 12.5789C20.1289 14.1153 20.9531 15.5199 22.0653 16.6794C22.0905 16.7067 22.122 16.7274 22.157 16.7397C22.192 16.752 22.2295 16.7555 22.2662 16.7499C22.3029 16.7443 22.3376 16.7297 22.3674 16.7076C22.3972 16.6854 22.4211 16.6563 22.4369 16.6227C23.1487 15.2307 23.1865 13.6308 23.3188 12.075C25.0518 13.2204 26.9929 14.0144 29.0318 14.4118C29.0801 14.4196 29.1295 14.4135 29.1744 14.3943C29.2193 14.3751 29.2578 14.3435 29.2855 14.3033C29.3132 14.2631 29.3289 14.2158 29.3309 14.167C29.3328 14.1182 29.3208 14.0699 29.2964 14.0276C28.5342 12.5348 27.3627 11.2624 26.8524 9.61841C27.9232 9.97114 28.9626 10.4625 30.0523 10.7396C31.2163 11.0311 32.3991 11.2415 33.5922 11.3695C35.9669 11.634 38.3416 12.3458 40.7414 12.3143C40.9871 12.3143 41.0375 11.9679 40.8548 11.8167C39.973 11.0923 39.0596 10.4247 38.1337 9.77588C40.8485 10.1727 43.4814 11.0357 46.1773 11.5711C46.1692 11.5877 46.1567 11.6018 46.1412 11.6118C46.1256 11.6218 46.1076 11.6273 46.0891 11.6277C44.8735 11.6277 43.6641 11.4829 42.4547 11.3569L41.4721 11.275C41.617 11.401 41.7492 11.527 41.8815 11.6529C42.4484 12.1757 42.9586 12.7804 43.4877 13.3536C43.5696 13.4418 43.4499 13.5741 43.3617 13.5111C43.3587 13.5339 43.3474 13.5548 43.33 13.5699C43.3126 13.585 43.2903 13.5932 43.2673 13.593C40.9934 13.467 38.751 13.404 36.4771 13.3788C35.1732 13.3788 33.8694 13.3347 32.5655 13.341C31.8915 13.341 31.2112 13.2906 30.5247 13.2528C30.6129 13.3851 30.6884 13.5111 30.7577 13.6245C31.0833 14.1944 31.4562 14.7359 31.8726 15.2433C31.8829 15.2569 31.8893 15.273 31.8911 15.29C31.893 15.3069 31.8902 15.324 31.8831 15.3395C31.876 15.355 31.8648 15.3683 31.8508 15.378C31.8367 15.3877 31.8204 15.3933 31.8033 15.3945C31.8054 15.4143 31.8001 15.4342 31.7885 15.4505C31.7769 15.4667 31.7598 15.4781 31.7404 15.4826C30.1467 15.8984 28.4587 15.5519 26.8524 15.3378C25.7781 15.2123 24.7215 14.9651 23.703 14.6008C23.6526 15.8165 23.0731 17.007 22.6889 18.1156L22.7267 18.1786C22.7451 18.2044 22.7524 18.2366 22.7471 18.2679C22.7418 18.2992 22.7242 18.3271 22.6983 18.3455C22.6725 18.3638 22.6403 18.3712 22.609 18.3659C22.5777 18.3606 22.5498 18.343 22.5314 18.3171C21.7076 17.3982 20.9677 16.4075 20.3205 15.3567C20.3205 17.2967 19.5899 19.3816 19.3631 21.2272C19.1993 22.5877 19.0923 23.9546 18.9789 25.3215C18.8718 26.5812 18.9789 27.9607 18.6009 29.1449C18.5874 29.1875 18.5605 29.2246 18.5242 29.2507C18.4879 29.2768 18.4441 29.2905 18.3994 29.2897C18.3945 29.3068 18.3842 29.3219 18.37 29.3326C18.3558 29.3433 18.3384 29.3491 18.3206 29.3491C18.3028 29.3491 18.2855 29.3433 18.2713 29.3326C18.2571 29.3219 18.2468 29.3068 18.2419 29.2897C17.4231 27.6079 16.2515 26.1403 15.3885 24.4774C14.8379 23.3612 14.47 22.1639 14.2988 20.9312C14.4122 21.0886 14.4878 21.2713 14.5697 21.4162Z" fill="#C53623"/>
</g>
<path d="M3.45859 41.2383C4.0979 39.3182 5.39963 37.6882 7.13082 36.6401C7.17492 36.6401 7.21901 36.6905 7.18121 36.722C4.26485 39.2731 2.60825 43.0209 3.69165 47.1844C3.69165 47.2789 3.58457 47.3545 3.53418 47.2663C2.52006 45.5404 2.82871 43.0713 3.45859 41.2383Z" fill="#3D1A0B"/>
<path d="M2.07911 37.4847C2.15469 37.4217 2.24288 37.5414 2.17359 37.617C-0.131791 40.1366 0.24614 44.7725 1.34844 47.8149C1.39883 47.9534 1.22246 48.0983 1.14058 47.9597C-0.516022 45.0623 -0.503424 39.7271 2.07911 37.4847Z" fill="#3D1A0B"/>
</svg>
