<svg width="66" height="121" viewBox="0 0 66 121" fill="none" xmlns="http://www.w3.org/2000/svg">
<g clip-path="url(#clip0_616_275)">
<path d="M30.2273 80.366C31.9034 85.2064 33.1334 90.187 33.9023 95.2468C33.9023 95.2468 23.648 97.5533 17.595 96.7256C17.595 96.7256 15.0384 84.1606 18.939 75.9668L30.2179 80.3473" fill="#0073AA"/>
<path d="M19.0331 76.2086C17.5075 79.8538 16.7864 83.7795 16.9183 87.7227C16.922 90.6946 17.1893 93.6605 17.7172 96.5861C23.2721 97.2837 32.3609 95.4143 33.6956 95.1352C32.9258 90.163 31.7149 85.2675 30.077 80.5055L19.0331 76.2086ZM16.5894 87.7227C16.5894 82.9329 17.3319 78.9616 18.7887 75.911C18.7969 75.8911 18.8091 75.873 18.8245 75.8579C18.84 75.8428 18.8584 75.831 18.8786 75.8231C18.8988 75.8153 18.9205 75.8116 18.9422 75.8123C18.9639 75.8131 18.9852 75.8182 19.0049 75.8273L30.2837 80.2079L30.3871 80.3102V80.366C32.0466 85.2106 33.2732 90.19 34.0528 95.2469C34.0584 95.291 34.0471 95.3356 34.0209 95.3718C33.9948 95.408 33.9558 95.4332 33.9118 95.4422C33.8084 95.4422 23.5728 97.7208 17.5387 96.9116L17.3883 96.7814C16.8483 93.7912 16.5716 90.7603 16.5612 87.7227" fill="#333833"/>
<path d="M14.4933 109.923C14.4928 109.838 14.5242 109.756 14.5815 109.692C14.6388 109.629 14.7179 109.588 14.8035 109.579C21.1948 108.975 31.4773 106.184 31.8909 105.199C30.4152 97.2559 22.7926 86.0487 22.7174 85.9371C22.6665 85.8603 22.6477 85.7667 22.6653 85.6764C22.6828 85.5861 22.7353 85.5062 22.8114 85.4535C22.8488 85.4275 22.891 85.4093 22.9357 85.3999C22.9803 85.3905 23.0264 85.3901 23.0712 85.3988C23.1159 85.4075 23.1585 85.4251 23.1962 85.4505C23.234 85.4758 23.2661 85.5085 23.2908 85.5465C23.3754 85.6581 31.0826 96.9862 32.577 105.133C32.5937 105.224 32.5896 105.317 32.5652 105.405C32.5408 105.494 32.4967 105.576 32.436 105.645C31.2518 107.189 20.1609 109.774 14.8693 110.295C14.8233 110.3 14.7768 110.296 14.7326 110.283C14.6883 110.269 14.6473 110.247 14.6121 110.218C14.5769 110.188 14.5482 110.152 14.5277 110.111C14.5073 110.069 14.4956 110.025 14.4933 109.979V109.979V109.923Z" fill="#333833"/>
<path d="M24.8416 94.6331C27.8576 94.1252 30.953 94.3454 33.8647 95.2748V95.2748C33.0958 90.215 31.8658 85.2344 30.1896 80.394L18.9108 76.0134C15.3486 83.4539 17.1626 94.6145 17.5104 96.4746C19.8316 95.4809 22.2958 94.8533 24.8134 94.6145" fill="#0085C6"/>
<path d="M19.0331 76.2086C17.5075 79.8538 16.7864 83.7795 16.9183 87.7227C16.9243 90.568 17.1663 93.408 17.642 96.2141C19.926 95.2935 22.3316 94.7015 24.7853 94.4563C27.7476 93.9572 30.7871 94.1547 33.658 95.0329C32.8959 90.0962 31.6976 85.2351 30.077 80.5055L19.0331 76.2086ZM16.5894 87.7227C16.5894 82.9329 17.3319 78.9616 18.7887 75.911C18.7969 75.8911 18.8091 75.873 18.8245 75.8579C18.84 75.8428 18.8584 75.831 18.8786 75.8231C18.8988 75.8153 18.9205 75.8116 18.9422 75.8123C18.9639 75.8131 18.9852 75.8182 19.0049 75.8273L30.2837 80.2079L30.3871 80.3102V80.366C32.0466 85.2106 33.2732 90.19 34.0528 95.2469C34.0568 95.2894 34.046 95.3321 34.022 95.3676C33.9981 95.4032 33.9624 95.4295 33.9212 95.4422H33.8366C30.9523 94.5053 27.8794 94.2849 24.8887 94.8004C22.3909 95.0485 19.9467 95.6759 17.642 96.6605H17.4917L17.3977 96.5396C16.8824 93.6439 16.6214 90.7095 16.6176 87.7692" fill="#333833"/>
<path d="M12.388 109.328H12.435C12.6491 109.116 12.904 108.949 13.1846 108.837C13.4652 108.725 13.7657 108.67 14.0683 108.675C14.3708 108.681 14.6692 108.746 14.9457 108.868C15.2222 108.989 15.4711 109.165 15.6777 109.384C16.8525 110.797 18.9673 115.401 18.6572 117.522C18.347 119.642 16.7773 119.382 15.6965 118.312C14.1926 116.898 9.97245 111.355 12.388 109.374V109.328Z" fill="#D23B43"/>
<path d="M18.5161 117.019C18.5161 114.862 16.6833 110.825 15.5366 109.449C15.3429 109.25 15.1107 109.092 14.854 108.984C14.5972 108.877 14.3211 108.821 14.0422 108.821C13.7633 108.821 13.4872 108.877 13.2304 108.984C12.9737 109.092 12.7415 109.25 12.5478 109.449V109.449C12.3241 109.64 12.1476 109.88 12.0319 110.149C11.9163 110.418 11.8644 110.71 11.8804 111.002C11.8804 113.411 14.7001 117.029 15.8656 118.126C16.0887 118.396 16.3809 118.601 16.7116 118.72C17.0423 118.84 17.3994 118.869 17.7454 118.805C18.1872 118.647 18.4691 118.182 18.5819 117.438C18.5922 117.296 18.5922 117.153 18.5819 117.01L18.5161 117.019ZM11.4857 111.011C11.4627 110.662 11.522 110.312 11.659 109.989C11.796 109.666 12.007 109.38 12.2752 109.151V109.151C12.5052 108.921 12.78 108.74 13.0829 108.618C13.3858 108.496 13.7106 108.437 14.0375 108.443C14.3644 108.449 14.6867 108.521 14.9847 108.654C15.2828 108.787 15.5505 108.978 15.7716 109.216C16.9465 110.639 18.8263 114.797 18.8263 117.01C18.8414 117.171 18.8414 117.333 18.8263 117.494C18.6759 118.601 18.1684 118.991 17.7642 119.131C17.3653 119.212 16.9516 119.186 16.5664 119.055C16.1812 118.924 15.8385 118.693 15.5742 118.387C14.5216 117.401 11.4857 113.671 11.4857 111.002V111.011Z" fill="#333833"/>
<path d="M14.2019 114.824C14.9632 116.08 16.2979 118.266 17.9615 118.861C17.5697 119.017 17.1372 119.044 16.7288 118.936C16.3205 118.829 15.9582 118.594 15.6964 118.266C14.2019 116.861 10.0569 111.355 12.3597 109.346C12.2375 111.207 13.2996 113.299 14.2395 114.824H14.2019Z" fill="#00A5DC"/>
<path d="M12.2188 109.802C11.9756 110.162 11.8538 110.588 11.871 111.021C11.871 113.42 14.6907 117.038 15.8562 118.136C16.0659 118.368 16.3242 118.552 16.6131 118.676C16.902 118.799 17.2146 118.859 17.5292 118.852C15.9784 118.052 14.7659 116.062 14.0892 114.908C13.0522 113.383 12.4069 111.63 12.2094 109.802H12.2188ZM11.5232 111.021C11.5062 110.683 11.5657 110.345 11.6974 110.033C11.8292 109.721 12.0298 109.442 12.2846 109.216H12.4725L12.5759 109.384C12.4443 111.3 13.5628 113.383 14.3899 114.75C15.1043 115.931 16.4295 118.136 18.0556 118.712L18.1683 118.861L18.0838 119.028C17.6608 119.209 17.1895 119.247 16.7427 119.136C16.2958 119.025 15.8984 118.771 15.6118 118.415C14.5685 117.429 11.5232 113.699 11.5232 111.039V111.021Z" fill="#333833"/>
<path d="M15.17 113.336V113.104C15.4859 112.844 15.7355 112.514 15.8988 112.14C16.062 111.767 16.1344 111.361 16.1099 110.955C16.1073 110.933 16.1092 110.911 16.1153 110.89C16.1215 110.868 16.1319 110.849 16.1459 110.831C16.1599 110.814 16.1772 110.8 16.1968 110.789C16.2165 110.778 16.2381 110.772 16.2603 110.769C16.2838 110.767 16.3076 110.769 16.3302 110.775C16.3529 110.782 16.374 110.793 16.3924 110.808C16.4107 110.822 16.426 110.841 16.4372 110.861C16.4484 110.882 16.4554 110.904 16.4577 110.927C16.4926 111.391 16.4123 111.857 16.224 112.283C16.0356 112.71 15.7448 113.084 15.3768 113.374H15.1324L15.17 113.336Z" fill="#E5E9E5"/>
<path d="M14.3053 111.235V111.114C14.3123 111.068 14.3368 111.028 14.3736 111C14.4104 110.972 14.4567 110.959 14.5027 110.965C15.1476 111.098 15.757 111.364 16.2913 111.745C16.8257 112.127 17.273 112.615 17.6044 113.178L17.548 113.42C17.533 113.436 17.5148 113.449 17.4946 113.458C17.4744 113.467 17.4526 113.471 17.4305 113.471C17.4084 113.471 17.3866 113.467 17.3663 113.458C17.3461 113.449 17.3279 113.436 17.313 113.42L17.2284 113.299C16.9119 112.807 16.4996 112.381 16.0156 112.048C15.5315 111.714 14.9853 111.479 14.4087 111.355L14.2865 111.281L14.3053 111.235Z" fill="#E5E9E5"/>
<path d="M20.5557 80.3474C23.3933 84.6484 25.8283 89.1966 27.8305 93.9355C27.8305 93.9355 18.4315 98.6416 12.3879 99.3391C12.3879 99.3391 6.74847 87.7785 8.53429 78.8779L20.5557 80.3753" fill="#0073AA"/>
<path d="M8.67526 79.0545C8.46248 80.2176 8.35865 81.3975 8.3651 82.5795C8.3651 90.0199 12.0025 98.0928 12.4913 99.1251C18.0555 98.4462 26.3924 94.4748 27.6049 93.8331C25.6215 89.1999 23.228 84.7493 20.4523 80.5333L8.67526 79.0545ZM8.01733 82.5795C8.01007 81.3311 8.12655 80.0851 8.3651 78.8592C8.37407 78.8174 8.39807 78.7802 8.43263 78.7546C8.4672 78.7289 8.50999 78.7165 8.55308 78.7197L20.5838 80.2264L20.706 80.3008C23.5265 84.5858 25.9549 89.1115 27.9621 93.8238L27.8775 94.047C27.7835 94.047 18.4127 98.781 12.3785 99.4692L12.1999 99.3762C12.1999 99.2832 7.98914 90.6058 7.98914 82.5608" fill="#333833"/>
<path d="M11.542 117.559C11.5406 117.5 11.5546 117.442 11.5825 117.389C11.6105 117.337 11.6516 117.293 11.7018 117.261C12.3221 116.88 12.9424 116.517 13.5816 116.145C17.8487 113.634 22.2663 111.039 23.3472 105.357C25.039 96.4467 14.7753 87.6856 14.6719 87.574C14.6159 87.5099 14.5851 87.428 14.585 87.3434C14.5849 87.2587 14.6155 87.1768 14.6713 87.1125C14.7271 87.0483 14.8043 87.0061 14.889 86.9934C14.9736 86.9808 15.06 86.9987 15.1324 87.0438C17.0349 88.7444 18.7461 90.6434 20.2361 92.7079C23.46 97.2 24.7664 101.618 23.9957 105.487C22.8584 111.476 18.2999 114.155 13.9011 116.74L12.0213 117.847C11.9829 117.872 11.9396 117.889 11.8942 117.897C11.8488 117.905 11.8022 117.904 11.7573 117.894C11.7124 117.883 11.6702 117.864 11.6331 117.837C11.5961 117.81 11.5651 117.775 11.542 117.736L11.495 117.559" fill="#333833"/>
<path d="M18.8827 95.4795C21.6827 94.2588 24.7403 93.729 27.7929 93.9356V93.9356C25.7887 89.2095 23.3537 84.6738 20.5181 80.3847L8.53433 78.8501C6.9365 86.9695 11.4574 97.2931 12.2939 99.0416C14.2896 97.5275 16.5086 96.3261 18.8733 95.4795" fill="#0085C6"/>
<path d="M8.67526 79.0545C8.46207 80.2206 8.35824 81.4037 8.3651 82.5887C8.3651 89.5269 11.4856 96.9023 12.3315 98.781C14.3118 97.3266 16.4968 96.1672 18.8168 95.3398C21.5634 94.1348 24.5572 93.5837 27.5579 93.7308C25.5865 89.1333 23.2087 84.717 20.4523 80.5333L8.67526 79.0545ZM8.01733 82.5887C8.01025 81.3404 8.12673 80.0944 8.3651 78.8685C8.37407 78.8267 8.39807 78.7895 8.43263 78.7639C8.4672 78.7382 8.50999 78.7258 8.55308 78.729L20.5838 80.2357L20.706 80.3101C23.5265 84.5951 25.9549 89.1207 27.9621 93.8331C27.9715 93.8532 27.9768 93.875 27.9776 93.8972C27.9785 93.9193 27.9748 93.9414 27.967 93.9622C27.9591 93.983 27.9471 94.002 27.9318 94.0181C27.9164 94.0343 27.898 94.0473 27.8775 94.0563H27.7459C24.7192 93.8557 21.6889 94.3922 18.9202 95.6188C16.5585 96.4553 14.3398 97.644 12.3409 99.1437H12.1905L12.0683 99.0414C11.3822 97.5626 7.97974 89.8059 7.97974 82.505" fill="#333833"/>
<path d="M16.3449 79.3149H8.36511V98.7624H16.3449V79.3149Z" fill="#0077BA"/>
<path d="M8.19592 82.5608C8.1886 81.4456 8.27663 80.3317 8.4591 79.2312L8.62828 79.3149C8.56248 79.7148 8.50609 80.1241 8.4591 80.5519C8.34711 81.0088 8.28721 81.4768 8.28051 81.947C8.27841 82.1903 8.30045 82.4333 8.34631 82.6724C8.35083 82.7095 8.35083 82.7469 8.34631 82.784C8.4121 89.6664 11.4762 96.9022 12.3127 98.7623C13.5512 97.8078 14.902 97.0053 16.3355 96.3721C16.3542 96.4239 16.3699 96.4767 16.3825 96.5302C14.9015 97.1896 13.5118 98.0335 12.2469 99.0414C11.5608 97.5533 8.17712 89.8338 8.17712 82.5608" fill="#283130"/>
<path d="M7.44402 112.537H7.51921C7.67419 112.281 7.87948 112.058 8.12295 111.882C8.36642 111.706 8.64311 111.58 8.93668 111.511C9.23024 111.443 9.5347 111.433 9.83206 111.483C10.1294 111.533 10.4136 111.641 10.6679 111.802C12.1623 112.899 15.3674 116.833 15.593 118.963C15.8186 121.093 14.2771 121.205 12.9143 120.451C11.072 119.428 5.63941 115.076 7.44402 112.537Z" fill="#D23B43"/>
<path d="M15.3956 119.317C15.4048 119.199 15.4048 119.081 15.3956 118.963C15.1701 116.908 12.012 112.983 10.5458 111.913C10.3102 111.766 10.0469 111.666 9.77172 111.622C9.49652 111.577 9.21501 111.587 8.94397 111.652C8.67293 111.717 8.41792 111.836 8.19414 112C7.97035 112.165 7.78239 112.373 7.64145 112.611V112.611C7.41225 112.921 7.29029 113.296 7.29369 113.681C7.29369 116.052 11.3823 119.326 13.0083 120.191C13.2793 120.377 13.5919 120.496 13.9193 120.536C14.2467 120.577 14.5791 120.538 14.8881 120.423C15.075 120.289 15.2222 120.108 15.3148 119.899C15.4073 119.69 15.4417 119.46 15.4144 119.233L15.3956 119.317ZM6.93652 113.736C6.92904 113.285 7.07099 112.844 7.34068 112.481V112.434C7.50703 112.156 7.72858 111.915 7.99197 111.724C8.25536 111.533 8.5551 111.397 8.87311 111.324C9.19112 111.251 9.52078 111.242 9.84219 111.299C10.1636 111.355 10.4701 111.476 10.7431 111.653C12.2846 112.769 15.499 116.768 15.734 118.926C15.8562 120.079 15.4238 120.6 15.0573 120.786C14.6928 120.94 14.2948 121.001 13.9004 120.962C13.506 120.922 13.128 120.785 12.8015 120.563C11.5045 119.837 6.90833 116.433 6.90833 113.708L6.93652 113.736Z" fill="#333833"/>
<path d="M34.908 60.128C34.9065 60.0571 34.927 59.9875 34.9669 59.9286C35.0068 59.8698 35.064 59.8245 35.1309 59.7991C35.1977 59.7737 35.2709 59.7693 35.3403 59.7865C35.4098 59.8038 35.4722 59.8418 35.519 59.8954C35.566 59.9512 40.1433 65.1874 42.4367 66.164H42.6059C43.9687 65.3363 44.965 56.3798 45.2846 50.9297C45.2857 50.8841 45.2962 50.8392 45.3155 50.7977C45.3348 50.7563 45.3625 50.7191 45.3968 50.6887C45.4312 50.6582 45.4714 50.635 45.5152 50.6204C45.5589 50.6059 45.6052 50.6004 45.6511 50.6042C45.7425 50.6113 45.8277 50.653 45.8889 50.7205C45.9501 50.788 45.9828 50.8762 45.9801 50.9669C45.1812 65.02 43.1604 66.6197 42.9724 66.7778C42.8519 66.8541 42.7143 66.8999 42.5718 66.9112C42.4292 66.9226 42.286 66.8991 42.1547 66.8429C39.7203 65.8013 35.1806 60.6116 34.9926 60.3884L34.908 60.1652" fill="#333833"/>
<path d="M47.1079 44.6427C47.1341 44.3332 47.1341 44.0221 47.1079 43.7127C47.1079 43.35 47.1079 42.9872 47.0609 42.6245C47.033 42.1411 46.9765 41.6598 46.8918 41.1829C46.8918 40.9039 46.7508 40.3552 46.4218 40.2529C45.7545 40.0483 45.5571 41.2387 45.4819 41.6387C45.2994 42.7171 45.2176 43.8099 45.2375 44.9031C44.8052 43.2011 43.9781 41.1271 43.1416 41.7689C42.4742 42.2711 42.6904 43.3779 42.7562 44.0847C42.8055 44.5448 42.884 45.0015 42.9912 45.4519V45.5728C43.1749 46.5994 43.4293 47.6124 43.7525 48.6048C43.7055 48.4373 42.8972 48.2048 42.7374 48.149C42.402 48.0316 42.0557 47.9475 41.7035 47.8979C40.632 47.7677 40.5192 48.7722 40.8764 49.5069C41.2001 50.0566 41.6093 50.5525 42.0889 50.9764C42.5764 51.4977 43.1838 51.895 43.8595 52.1347C44.5353 52.3743 45.2595 52.4491 45.9707 52.3529C46.6088 52.1783 47.2045 51.8772 47.7215 51.4679C48.2385 51.0587 48.6661 50.5497 48.9784 49.9719C49.7295 48.7974 50.3592 47.551 50.8582 46.2517C51.1965 45.3868 51.5255 44.5032 51.7981 43.6011C51.939 43.136 52.2492 42.206 51.7981 41.8154C50.9615 41.0806 50.2378 42.8942 50.0028 43.3314C49.7679 43.7685 49.5423 44.4009 49.2415 44.8938L49.1287 45.0799C49.3167 44.1033 49.5423 40.2157 48.922 40.0762C47.8411 39.825 47.3711 42.9779 47.1361 44.6334" fill="#F5E0CB"/>
<path d="M43.9029 48.5767L43.7807 48.7348C43.7591 48.742 43.7363 48.7447 43.7136 48.743C43.6909 48.7412 43.6688 48.7349 43.6486 48.7245C43.6284 48.7141 43.6106 48.6997 43.5961 48.6823C43.5817 48.6649 43.5709 48.6448 43.5645 48.6232C43.3115 48.4995 43.0471 48.3998 42.775 48.3256H42.6528C42.3315 48.2066 41.9971 48.1255 41.6565 48.0838C41.555 48.0512 41.4468 48.0447 41.3421 48.0649C41.2373 48.0851 41.1395 48.1313 41.0577 48.1992C40.976 48.2671 40.913 48.3544 40.8747 48.453C40.8364 48.5515 40.8241 48.6581 40.8388 48.7627C40.8403 48.999 40.8983 49.2317 41.008 49.4416C41.324 49.9697 41.7203 50.4465 42.1829 50.8553C42.651 51.3659 43.2386 51.755 43.8941 51.9885C44.5495 52.222 45.2529 52.2927 45.9425 52.1946C46.56 52.0317 47.136 51.7422 47.6331 51.3449C48.1302 50.9475 48.5373 50.4512 48.828 49.8881C49.5736 48.7398 50.2033 47.5218 50.7078 46.2515C50.9898 45.5261 51.3469 44.5681 51.6477 43.6102V43.5358C51.7593 43.205 51.8256 42.8609 51.8451 42.5127C51.8543 42.4184 51.8431 42.3231 51.8123 42.2333C51.7815 42.1435 51.7318 42.0613 51.6665 41.9919C51.6201 41.9463 51.5638 41.9118 51.502 41.8908C51.4401 41.8699 51.3742 41.8631 51.3093 41.871C50.8676 41.964 50.4446 42.8475 50.2379 43.2754L50.1439 43.4707C50.0292 43.6823 49.9257 43.8996 49.8337 44.1217C49.6997 44.4408 49.5459 44.7515 49.3731 45.0518L49.2604 45.2378L49.0442 45.3122L48.9408 45.1262C49.0749 44.2021 49.1409 43.2696 49.1382 42.336C49.1382 40.4759 48.8656 40.355 48.8656 40.355C48.8173 40.3439 48.7671 40.3431 48.7185 40.3527C48.6699 40.3623 48.6239 40.3821 48.5836 40.4108C47.8411 40.913 47.4557 43.6195 47.2866 44.7728C47.2842 44.7948 47.2775 44.8162 47.2667 44.8356C47.256 44.855 47.2415 44.8722 47.224 44.886C47.2065 44.8999 47.1864 44.9101 47.1649 44.9162C47.1434 44.9223 47.1208 44.9241 47.0986 44.9216C47.075 44.9182 47.0523 44.9102 47.0319 44.898C47.0115 44.8858 46.9938 44.8697 46.9798 44.8506C46.9658 44.8316 46.9558 44.8099 46.9503 44.787C46.9449 44.764 46.9442 44.7402 46.9482 44.717V44.717C46.9715 44.5192 46.9715 44.3195 46.9482 44.1217V43.7776C46.9482 43.4149 46.9482 43.0615 46.9482 42.708C46.9244 42.2278 46.871 41.7495 46.7884 41.2758C46.7884 41.0153 46.6474 40.5503 46.4312 40.4852H46.2151C45.9331 40.6526 45.7921 41.3037 45.7263 41.6106V41.7315C45.542 42.7971 45.4633 43.878 45.4913 44.9588C45.4916 45.0001 45.4764 45.0401 45.4486 45.071C45.4208 45.1019 45.3825 45.1216 45.341 45.1262C45.298 45.1302 45.2548 45.1195 45.2189 45.0958C45.1829 45.0721 45.1563 45.0368 45.1436 44.996C44.7112 43.2847 44.1191 42.0663 43.6397 41.8989C43.5905 41.8425 43.5217 41.8064 43.4468 41.7978C43.372 41.7891 43.2966 41.8086 43.2356 41.8524C43.0853 41.9906 42.9703 42.1622 42.9 42.353C42.8298 42.5438 42.8062 42.7483 42.8314 42.9499C42.8381 43.2237 42.8601 43.4969 42.8972 43.7683V44.0101C42.941 44.4612 43.0164 44.9087 43.1228 45.3494V45.4796C43.3077 46.4999 43.5621 47.5066 43.8841 48.493V48.5488L43.9029 48.5767ZM40.4723 48.6976C40.4648 48.548 40.4894 48.3986 40.5444 48.2591C40.5995 48.1197 40.6838 47.9933 40.7918 47.8884C40.9149 47.7919 41.0575 47.7229 41.21 47.686C41.3624 47.649 41.5212 47.6451 41.6753 47.6745C42.0411 47.717 42.4007 47.8012 42.7468 47.9256H42.869C43.0512 47.9771 43.2301 48.0392 43.4048 48.1117C43.1459 47.2786 42.9387 46.4307 42.7844 45.5726V45.4424C42.6771 44.9924 42.6018 44.5356 42.5588 44.0752V43.8427C42.5218 43.5557 42.4999 43.267 42.4931 42.9778C42.4653 42.7218 42.5004 42.4631 42.5953 42.2235C42.6902 41.9838 42.8421 41.7704 43.0382 41.6013C43.125 41.5279 43.23 41.4789 43.3424 41.4592C43.4548 41.4396 43.5704 41.4501 43.6773 41.4897C44.2789 41.6943 44.7676 42.7824 45.0872 43.7218C45.097 43.0009 45.1693 42.2821 45.3034 41.5734V41.4618C45.3974 41.0432 45.5477 40.3457 45.9613 40.1039C46.0397 40.0693 46.1245 40.0514 46.2104 40.0514C46.2962 40.0514 46.3811 40.0693 46.4594 40.1039C46.8824 40.2341 46.9858 40.82 47.0516 41.1362C47.1337 41.6228 47.1902 42.1133 47.2208 42.6057C47.2208 42.7173 47.2208 42.8196 47.2208 42.9127C47.4839 41.5548 47.8317 40.448 48.3768 40.1225C48.4568 40.064 48.5488 40.0237 48.6462 40.0045C48.7437 39.9852 48.8443 39.9874 48.9408 40.0109C49.1006 40.0109 49.4765 40.1318 49.4765 42.3267C49.4765 42.9964 49.4765 43.7032 49.3919 44.2705L49.5047 44.0194C49.6081 43.7962 49.7115 43.573 49.8243 43.3591L49.9089 43.1731C50.1627 42.6615 50.6138 41.7036 51.2342 41.5827C51.3516 41.5612 51.4726 41.5677 51.587 41.6016C51.7014 41.6356 51.806 41.6961 51.8921 41.778C51.996 41.8792 52.0766 42.0014 52.1285 42.1362C52.1804 42.271 52.2024 42.4153 52.1929 42.5592C52.1724 42.9423 52.0997 43.3208 51.9767 43.6846V43.7497C51.6853 44.6798 51.3281 45.6842 51.0368 46.419C50.5235 47.7204 49.8779 48.9669 49.11 50.1392C48.7959 50.7425 48.3563 51.2732 47.8201 51.6964C47.2839 52.1196 46.6632 52.4257 45.9989 52.5945C45.259 52.7012 44.504 52.6274 43.7996 52.3794C43.0952 52.1314 42.4627 51.7167 41.9573 51.1715C41.4662 50.7335 41.0476 50.2219 40.7166 49.6555C40.5812 49.4002 40.5102 49.1162 40.5099 48.8278" fill="#333833"/>
<path d="M27.5955 48.5488C27.9422 48.5784 28.2818 48.6632 28.6012 48.7999C30.7592 49.7192 32.8004 50.8867 34.6824 52.2783C36.4967 53.6654 38.1712 55.2227 39.6827 56.9286C39.6827 56.9286 36.2708 61.6812 32.7932 62.8252C32.7932 62.8252 26.8436 57.3378 25.3492 54.278C24.8372 53.3965 24.4961 52.4281 24.3435 51.4227C24.3386 51.0173 24.4231 50.6158 24.591 50.246C24.7589 49.8763 25.0063 49.5471 25.3158 49.2816C25.6253 49.016 25.9896 48.8204 26.3833 48.7083C26.777 48.5962 27.1907 48.5703 27.5955 48.6325" fill="#A3BE30"/>
<path d="M39.4759 56.9008C37.996 55.258 36.3628 53.757 34.5978 52.4179C32.7233 51.0353 30.6918 49.8741 28.5449 48.9581C28.2454 48.832 27.9286 48.7505 27.605 48.7163C27.1921 48.6746 26.775 48.7166 26.3791 48.8398C25.9831 48.9629 25.6167 49.1646 25.3022 49.4325C25.0323 49.6759 24.8237 49.9785 24.6931 50.3161C24.5626 50.6536 24.5136 51.0167 24.5503 51.3763C24.69 52.3081 25.0091 53.2047 25.4902 54.0176L25.556 54.1664C26.9376 56.9566 32.1917 61.9417 32.8872 62.5927C35.9513 61.5232 38.9778 57.6169 39.4665 56.9008H39.4759ZM24.1649 51.1531C24.1594 50.7803 24.2345 50.4106 24.3853 50.0689C24.5361 49.7272 24.759 49.4214 25.039 49.172C25.3909 48.8721 25.8004 48.6458 26.243 48.5068C26.6856 48.3677 27.1521 48.3188 27.6144 48.3629C27.977 48.3998 28.3319 48.4907 28.6671 48.6326C30.8383 49.5585 32.8894 50.7388 34.7764 52.1482C36.6034 53.5305 38.2878 55.0881 39.8049 56.7985V57.0124C39.6639 57.2077 36.3273 61.8208 32.8214 62.974H32.6522C32.4079 62.7508 26.6651 57.3937 25.133 54.371L25.0578 54.2222C24.5637 53.3617 24.2444 52.4139 24.1179 51.4321V51.1531" fill="#333833"/>
<path d="M27.5955 48.5488C27.9422 48.5784 28.2818 48.6632 28.6012 48.7999C30.7592 49.7192 32.8004 50.8867 34.6824 52.2783C36.4967 53.6654 38.1712 55.2227 39.6827 56.9286C39.6827 56.9286 36.2708 61.6812 32.7932 62.8252C32.7932 62.8252 26.8436 57.3378 25.3492 54.278C24.8372 53.3965 24.4961 52.4281 24.3435 51.4227C24.3386 51.0173 24.4231 50.6158 24.591 50.246C24.7589 49.8763 25.0063 49.5471 25.3158 49.2816C25.6253 49.016 25.9896 48.8204 26.3833 48.7083C26.777 48.5962 27.1907 48.5703 27.5955 48.6325" fill="#BDC95A"/>
<path d="M39.4759 56.9008C37.996 55.258 36.3628 53.757 34.5978 52.4179C32.7233 51.0353 30.6918 49.8741 28.5449 48.9581C28.2454 48.832 27.9286 48.7505 27.605 48.7163C27.1921 48.6746 26.775 48.7166 26.3791 48.8398C25.9831 48.9629 25.6167 49.1646 25.3022 49.4325C25.0323 49.6759 24.8237 49.9785 24.6931 50.3161C24.5626 50.6536 24.5136 51.0167 24.5503 51.3763C24.69 52.3081 25.0091 53.2047 25.4902 54.0176L25.556 54.1664C26.9376 56.9566 32.1917 61.9417 32.8872 62.5927C35.9513 61.5232 38.9778 57.6169 39.4665 56.9008H39.4759ZM24.1649 51.1531C24.1594 50.7803 24.2345 50.4106 24.3853 50.0689C24.5361 49.7272 24.759 49.4214 25.039 49.172C25.3909 48.8721 25.8004 48.6458 26.243 48.5068C26.6856 48.3677 27.1521 48.3188 27.6144 48.3629C27.977 48.3998 28.3319 48.4907 28.6671 48.6326C30.8383 49.5585 32.8894 50.7388 34.7764 52.1482C36.6034 53.5305 38.2878 55.0881 39.8049 56.7985V57.0124C39.6639 57.2077 36.3273 61.8208 32.8214 62.974H32.6522C32.4079 62.7508 26.6651 57.3937 25.133 54.371L25.0578 54.2222C24.5637 53.3617 24.2444 52.4139 24.1179 51.4321V51.1531" fill="#333833"/>
<path d="M38.8463 56.0079C38.0022 57.3445 36.908 58.5094 35.6224 59.4398C34.6782 60.2469 33.6585 60.9632 32.5771 61.5789C32.3421 61.6999 32.1072 61.8115 31.8628 61.9138C32.4267 62.4532 32.8027 62.788 32.8027 62.788C36.2803 61.6441 39.6922 56.8915 39.6922 56.8915C39.4196 56.5939 39.1376 56.3055 38.8557 55.9614" fill="#0084C7"/>
<path d="M38.8839 56.2962C38.0304 57.5657 36.9583 58.6769 35.7164 59.5793L35.3028 59.9048C34.4796 60.6092 33.5887 61.2322 32.6429 61.765C32.4925 61.8487 32.3233 61.9231 32.1636 61.9975L32.8215 62.6206C35.8856 61.551 38.9121 57.6448 39.4008 56.9287L38.8275 56.3241L38.8839 56.2962ZM31.6278 61.9045L31.7406 61.7835L32.4455 61.458C33.3661 60.9429 34.2347 60.3418 35.0397 59.663L35.4532 59.3282C36.7257 58.417 37.8077 57.2705 38.6395 55.9521L38.7711 55.8684L38.9215 55.9149C39.2034 56.2125 39.4854 56.5008 39.7486 56.845V57.0589C39.6076 57.2542 36.2709 61.8673 32.7651 63.0205H32.5959C32.5959 63.0205 32.2293 62.6857 31.656 62.0905L31.5996 61.9696" fill="#333833"/>
<path d="M30.1803 50.5857H30.6784C31.8702 52.168 32.7969 53.9297 33.423 55.8033C33.9105 57.1696 34.3246 58.5604 34.6636 59.9699C34.1043 60.4251 33.5139 60.8415 32.8966 61.2162C32.8543 59.0926 32.5385 56.9829 31.9567 54.9383C31.5042 53.4341 30.9061 51.9764 30.1709 50.5857" fill="#86B451"/>
<path d="M32.8966 61.6069C33.553 61.2338 34.1812 60.8142 34.7764 60.3513L35.002 61.4302C34.3754 61.8877 33.6934 62.2658 32.9718 62.5555C32.9718 62.23 32.9718 61.9138 32.9718 61.6255" fill="#007ABD"/>
<path d="M32.8966 61.2162C33.5171 60.8419 34.1107 60.4255 34.673 59.97L34.7576 60.3513C34.1624 60.8141 33.5342 61.2338 32.8778 61.6069C32.8778 61.4767 32.8778 61.3464 32.8778 61.2162H32.8966ZM32.9342 62.5555C33.6558 62.2658 34.3378 61.8877 34.9644 61.4302C34.96 61.489 34.96 61.548 34.9644 61.6069C34.3304 62.0738 33.6347 62.4525 32.8966 62.7322V62.5555" fill="#233230"/>
<path d="M26.1199 46.9863C26.976 47.371 27.7583 47.8997 28.432 48.5488C30.1896 50.2973 31.0356 52.6968 31.8063 54.994C34.0339 61.6997 31.8063 81.2587 31.5901 81.3145C31.5901 81.3145 18.2811 84.4674 7.97034 78.7755C8.39329 76.2643 13.1116 48.0837 19.2962 46.0934C20.6672 45.7163 22.1123 45.6875 23.4975 46.0097C24.3968 46.2649 25.2737 46.5915 26.1199 46.9863" fill="#BDC95A"/>
<path d="M32.6241 64.6666C32.6241 60.2395 32.2857 57.003 31.6372 55.0498C30.8007 52.5387 29.9736 50.3252 28.31 48.679C27.6505 48.0414 26.884 47.5221 26.0448 47.1444C25.2038 46.7652 24.3331 46.4542 23.4413 46.2143C22.0928 45.9032 20.687 45.9319 19.3527 46.298C14.9069 47.7396 10.6586 63.9691 8.15843 78.7197C17.8488 83.9931 30.2932 81.5099 31.4586 81.2123C32.223 75.7418 32.6124 70.2263 32.6241 64.7038V64.6666ZM7.79187 78.7755V78.7104C9.00435 71.5025 13.4313 47.8326 19.2211 45.9632C20.6239 45.5653 22.1068 45.5333 23.5259 45.8702C24.4326 46.1341 25.3185 46.4636 26.1764 46.8561C27.0499 47.251 27.848 47.7922 28.5355 48.4558C30.2556 50.1671 31.1015 52.4178 31.9474 54.9661C32.6147 56.9565 32.9531 60.2302 32.9531 64.6945C32.9531 69.1588 32.6053 73.6602 32.4079 75.9482C31.9192 81.4448 31.7218 81.5285 31.609 81.5285C31.4962 81.5285 18.1402 84.6349 7.88586 78.9243L7.79187 78.7755" fill="#333833"/>
<path d="M8.15833 78.6826C8.77866 75.0461 9.50239 71.3166 10.3013 67.7452C11.8817 68.7283 13.5379 69.5866 15.2546 70.3121C12.6366 72.826 10.4999 75.7879 8.94784 79.0546L8.15833 78.6454V78.6826ZM9.4178 79.2779C10.9732 76.0131 13.1095 73.0517 15.7245 70.5354L15.7903 70.4796L16.1569 70.6005C16.0911 71.0283 16.0441 71.4654 16.0065 71.8932C16.0065 72.1165 16.0065 72.3304 16.0065 72.5443C16.0036 73.1093 16.0763 73.6722 16.2227 74.2184L14.5591 76.5714V76.6737L14.6249 76.7853L19.2586 79.9847C18.7677 80.5451 18.2469 81.0791 17.6983 81.5844C14.8308 81.2528 12.0317 80.4875 9.399 79.3151L9.4178 79.2779ZM10.4517 67.0291C11.0344 64.4807 11.6642 62.0254 12.3315 59.7467C14.3053 58.1656 18.0273 55.0035 19.3526 52.8643L19.4372 52.7155C19.7015 52.3105 19.9431 51.8913 20.1609 51.46C20.1609 51.8041 20.1609 52.1482 20.1609 52.5016C20.1288 54.2194 19.9241 55.9299 19.55 57.6076C18.751 61.5138 17.172 65.2248 16.3731 69.1124C16.1663 69.3356 15.9501 69.5495 15.7339 69.7727C13.8861 68.9954 12.1093 68.0619 10.4235 66.9826L10.4517 67.0291ZM18.3281 81.7332C18.8732 81.2031 19.3244 80.7194 19.6439 80.3474L21.8809 81.8913L22.0125 81.9843C20.7777 81.9622 19.5449 81.8784 18.3187 81.7332H18.3281ZM22.9618 82.0029L25.039 79.0546C26.1965 79.0757 27.3538 78.998 28.4978 78.8221C29.6375 78.6215 30.7642 78.3545 31.8721 78.0223C31.6935 79.7057 31.5337 80.8124 31.4585 81.1659C28.673 81.7148 25.8397 81.9921 22.9994 81.9936" fill="#86B451"/>
<path d="M7.97034 78.7757C8.13012 77.8456 8.91024 73.1953 10.1603 67.615L10.3013 67.6987C9.50238 71.2701 8.77865 74.9997 8.15832 78.6362L8.94784 79.0454C8.92032 79.0956 8.89827 79.1486 8.88204 79.2035C8.57187 79.0547 8.2711 78.8966 7.94214 78.7292L7.97034 78.7757ZM9.3238 79.4267C9.3238 79.4267 9.3238 79.3244 9.38959 79.2686C11.995 80.4562 14.7683 81.2434 17.6137 81.603L17.4446 81.7611C14.6629 81.3976 11.9513 80.6265 9.39899 79.4732L9.3238 79.4267ZM10.3389 66.964C10.8652 64.6946 11.4668 62.3137 12.1247 59.9607L12.3597 59.7747C11.7018 62.0533 11.072 64.5086 10.4799 67.057L10.3389 66.964ZM18.1777 81.9285L18.3469 81.7611C19.5731 81.9064 20.8059 81.9902 22.0407 82.0123L22.3227 82.2076C20.9369 82.1896 19.5532 82.0964 18.1777 81.9285V81.9285ZM22.8772 82.2169L23.0088 82.0309C25.8491 82.0293 28.6823 81.7521 31.4679 81.2031C31.5431 80.8962 31.7029 79.7429 31.8815 78.0595L32.0601 78.0037C31.9912 79.1265 31.8373 80.2426 31.5995 81.3426C28.7226 81.9426 25.789 82.2357 22.849 82.2169" fill="#233230"/>
<path d="M23.366 45.9727C22.5649 47.3859 22.2359 49.0135 22.4261 50.6229C22.6516 52.7341 25.0014 54.8733 27.2572 54.0548C27.9581 53.7512 28.5721 53.2807 29.0445 52.6851C29.5168 52.0895 29.8327 51.3874 29.9641 50.6415C29.5384 49.8773 29.0104 49.1734 28.3944 48.5489C27.7207 47.8998 26.9384 47.3712 26.0823 46.9864C25.2483 46.5935 24.384 46.267 23.4976 46.0099H23.366" fill="#2261A7"/>
<path d="M23.4412 46.1771C22.8177 47.2793 22.4939 48.5226 22.5013 49.7857C22.5024 50.0468 22.5181 50.3076 22.5483 50.567C22.6364 51.1725 22.857 51.7516 23.1946 52.2641C23.5323 52.7765 23.9789 53.2098 24.5033 53.5338C24.8951 53.7943 25.3423 53.9618 25.8103 54.0231C26.2782 54.0844 26.7541 54.0379 27.2008 53.8872C27.8669 53.6053 28.4512 53.1634 28.9009 52.6014C29.3507 52.0395 29.6515 51.3754 29.7762 50.6693C29.3692 49.9409 28.8632 49.2713 28.2723 48.6789C27.6129 48.0413 26.8464 47.5221 26.0072 47.1444C25.1662 46.7652 24.2955 46.4542 23.4036 46.2143L23.4412 46.1771ZM22.1536 49.8229C22.1311 48.453 22.4852 47.1029 23.1781 45.9167L23.366 45.8423H23.507C24.4138 46.1061 25.2997 46.4356 26.1576 46.8281C27.0311 47.2231 27.8292 47.7643 28.5167 48.4278C29.1463 49.0613 29.684 49.778 30.1145 50.5577V50.6879C29.984 51.4634 29.6569 52.1934 29.1637 52.8099C28.6706 53.4263 28.0276 53.909 27.2948 54.2128C26.7983 54.3801 26.2696 54.4319 25.7496 54.3641C25.2296 54.2964 24.7323 54.1109 24.2965 53.8221C23.7291 53.4698 23.2461 52.9994 22.8809 52.4437C22.5157 51.888 22.2771 51.2603 22.1818 50.6042C22.1512 50.3324 22.1356 50.0592 22.1348 49.7857" fill="#333833"/>
<path d="M25.509 52.8177C25.9931 52.9918 26.5267 52.9727 26.9968 52.7644C27.467 52.5561 27.8367 52.1749 28.0279 51.7016L29.513 45.8981C29.5828 45.3904 29.4472 44.8759 29.1356 44.4666C28.8241 44.0573 28.3618 43.7863 27.8493 43.7125C27.3689 43.5509 26.844 43.5787 26.3837 43.79C25.9234 44.0013 25.563 44.3799 25.3774 44.8471L23.8829 50.6507C23.8211 51.1564 23.9614 51.6661 24.274 52.0709C24.5865 52.4758 25.0466 52.7438 25.556 52.8177" fill="#F5E0CB"/>
<path d="M29.3814 45.5728C29.3426 45.1611 29.1663 44.7739 28.8803 44.4724C28.5944 44.171 28.2151 43.9723 27.8023 43.908C27.3631 43.7452 26.877 43.758 26.4471 43.9438C26.0173 44.1296 25.6774 44.4737 25.4996 44.9031L24.0051 50.6881C23.9726 51.147 24.1131 51.6017 24.3995 51.9641C24.6859 52.3266 25.0979 52.5711 25.556 52.6505C25.9942 52.8114 26.4783 52.7987 26.9074 52.615C27.3364 52.4314 27.6772 52.0909 27.8587 51.6646L29.3438 45.8611C29.3575 45.7624 29.3575 45.6622 29.3438 45.5635L29.3814 45.5728ZM23.5822 50.9857C23.5839 50.8573 23.5997 50.7294 23.6291 50.6044L25.1236 44.8008C25.3242 44.2828 25.7218 43.8632 26.2314 43.632C26.7409 43.4008 27.3218 43.3763 27.8493 43.5639C28.3402 43.6486 28.7896 43.8899 29.129 44.2509C29.4684 44.6119 29.6791 45.0729 29.7291 45.5635C29.7295 45.6926 29.7105 45.8212 29.6727 45.9448L28.1971 51.7483C28 52.2699 27.6044 52.6944 27.0949 52.9308C26.5854 53.1672 26.0026 53.1968 25.4714 53.0132C24.9805 52.9284 24.5311 52.6872 24.1917 52.3261C23.8523 51.9651 23.6416 51.5042 23.5916 51.0136" fill="#333833"/>
<path d="M7.79176 27.2878C7.79176 27.2878 -2.69756 35.6583 0.939862 41.3317C5.31981 48.1861 24.8886 48.5768 28.8362 44.1218C32.7838 39.6669 7.79176 27.2878 7.79176 27.2878Z" fill="#D23B43"/>
<path d="M7.81999 27.5018C6.97408 28.1901 0.347764 33.8076 0.347764 38.6625C0.338642 39.567 0.593175 40.455 1.08089 41.2201C2.96069 44.1777 8.05497 46.2517 14.6813 46.8005C21.0632 47.2934 26.8248 46.1494 28.7046 44.0103C28.951 43.7366 29.0851 43.3816 29.0806 43.0151C29.0806 38.2533 9.41783 28.3017 7.81999 27.5018V27.5018ZM-2.7658e-07 38.6718C-2.7658e-07 33.3333 7.37824 27.4088 7.68841 27.1577H7.87639C8.7599 27.5948 29.4284 37.8812 29.4284 43.0337C29.4351 43.4827 29.2707 43.9177 28.9678 44.2521C27.0222 46.447 21.1384 47.6375 14.6625 47.1353C7.92338 46.5958 2.73512 44.466 0.789518 41.4154C0.255047 40.5823 -0.0195557 39.6119 -2.7658e-07 38.6253" fill="#333833"/>
<path d="M7.97035 28.0039C7.97035 28.0039 -2.36858 36.0024 1.28764 41.5083C5.63939 48.1582 24.9074 48.6418 28.7798 44.3543C32.6522 40.0667 7.97035 28.0039 7.97035 28.0039Z" fill="#9B373A"/>
<path d="M7.98917 28.2085C7.16205 28.8317 0.695521 34.2353 0.695521 38.9134C0.689844 39.8014 0.948053 40.6714 1.43804 41.4153C3.31785 44.3078 8.42152 46.3446 15.0384 46.8468C21.2418 47.3211 26.8342 46.2423 28.6388 44.2427C28.8776 43.991 29.0089 43.6578 29.0054 43.3126C29.0054 38.7181 9.56821 28.9991 7.98917 28.2178V28.2085ZM0.347756 38.9134C0.347756 33.7703 7.51922 28.1062 7.85758 27.9016H8.04556C8.91967 28.3294 29.3626 38.3833 29.3626 43.3591C29.3673 43.7911 29.2022 44.208 28.902 44.5217C27.0222 46.605 21.317 47.7304 15.0102 47.2467C8.28054 46.7352 3.09227 44.6426 1.14667 41.6664C0.614535 40.8698 0.336228 39.9334 0.347756 38.9786" fill="#333833"/>
<path d="M6.10938 30.1153V29.8641L6.69211 29.3247C7.19966 35.1468 13.3654 41.5456 13.638 41.8339H13.8448L13.9294 41.6758C15.8445 43.63 17.9758 45.3646 20.2831 46.8469C19.785 46.8469 19.2774 46.9027 18.7511 46.9213C18.3546 46.7731 17.9342 46.6975 17.5104 46.6981C17.1434 46.6962 16.7784 46.7527 16.4295 46.8655H16.3449H15.9126C10.7055 42.6059 6.10938 36.4024 6.10938 30.1153Z" fill="#89251E"/>
<path d="M6.10937 29.864C6.11406 29.7803 6.11406 29.6965 6.10937 29.6128L6.66392 29.1013C6.66857 29.1757 6.66857 29.2502 6.66392 29.3245L6.08118 29.864H6.10937ZM15.9126 46.9025H16.3449L16.0535 46.9956L15.9126 46.8839V46.9025ZM18.7323 46.8839C19.2586 46.8839 19.7662 46.8839 20.2643 46.8095L20.5087 46.9584C20.0513 46.9956 19.5813 47.0235 19.0988 47.0421C18.9802 46.9816 18.8578 46.9288 18.7323 46.8839" fill="#341612"/>
<path d="M10.3859 13.3929C9.6473 14.6149 9.05134 15.916 8.6095 17.2712C7.82601 19.7019 7.45753 22.2448 7.51921 24.7953C7.69779 30.0129 8.5813 35.3887 12.0307 39.3693C18.7323 47.1259 28.808 53.3852 38.8368 49.293C48.8655 45.2007 55.2475 33.1286 52.3526 21.9494C50.1626 13.5138 45.8673 6.00825 37.1544 3.4599C34.6657 2.70986 32.0639 2.39512 29.4659 2.52985C21.8903 3.13438 14.3053 6.8825 10.3859 13.365" fill="#F5E0CB"/>
<path d="M52.879 27.5203C52.8794 25.6574 52.6458 23.8016 52.1835 21.9958C49.5517 11.8303 44.6173 5.82212 37.145 3.6272C34.6788 2.87775 32.0987 2.56295 29.5224 2.69714C21.458 3.34818 14.202 7.45902 10.574 13.4579C9.84051 14.667 9.25072 15.9559 8.81634 17.299C8.07933 19.5218 7.68639 21.8422 7.65087 24.1814C7.65087 24.3767 7.65087 24.572 7.65087 24.7766C7.80125 29.2781 8.44978 35.0072 12.1248 39.239C20.4617 48.8557 30.4153 52.5387 38.7711 49.1068C47.1268 45.6749 52.8696 36.8115 52.8696 27.5203H52.879ZM7.3031 24.1814C7.33453 21.8152 7.72422 19.4671 8.45918 17.2153C8.91197 15.8494 9.51394 14.5365 10.2544 13.2998C13.9388 7.2172 21.2983 3.06916 29.4754 2.38092C32.0951 2.2424 34.7192 2.55714 37.2296 3.31098C44.871 5.54311 49.8807 11.6815 52.5406 21.9121C53.0107 23.7358 53.2507 25.6102 53.255 27.4924C53.255 36.9138 47.3618 45.926 38.9214 49.3951C30.4811 52.8642 20.302 49.1998 11.871 39.4808C8.13022 35.1653 7.51928 29.3711 7.3125 24.7952C7.3125 24.5999 7.3125 24.4046 7.3125 24.2" fill="#333833"/>
<path d="M21.2794 47.0701C23.6584 48.0286 26.1606 48.6546 28.7141 48.9302C36.1017 49.7021 42.4836 45.7029 46.92 40.1133C48.5565 38.0035 49.7167 35.571 50.3224 32.9798L51.0555 33.5285H51.2341L51.3375 33.389C51.4887 32.535 51.5704 31.6704 51.5819 30.8034C51.5867 30.3136 51.5426 29.8245 51.4503 29.3433C51.8744 29.9691 52.2454 30.6286 52.5594 31.315C51.2247 39.1274 45.9237 46.1214 38.771 49.0697C33.3196 51.3111 27.1914 50.5206 21.2794 47.0329" fill="#F1C69F"/>
<path d="M20.2643 46.6514C20.6026 46.8002 20.941 46.9398 21.2794 47.07C27.1914 50.5577 33.3195 51.3482 38.771 49.1068C45.9236 46.1585 51.2247 39.1645 52.5594 31.3521L52.6815 31.6311C51.2811 39.397 46.0552 46.3073 38.8368 49.2928C32.3608 51.9527 25.8661 50.2786 20.2643 46.6793" fill="#333225"/>
<path d="M54.787 26.5902C54.787 26.5902 56.2533 29.7616 53.9693 34.7653C53.9693 34.7653 52.926 30.5336 50.8394 28.3387C50.8394 28.3387 51.8639 29.2687 51.159 33.3981C51.159 33.3981 42.6341 27.2226 41.1396 24.5626C41.4697 26.6252 42.3055 28.5763 43.574 30.2453C43.574 30.2453 36.6563 28.3108 33.9682 23.4001C33.2683 24.7296 32.2205 25.8487 30.9342 26.6405C29.6479 27.4324 28.1703 27.8679 26.6557 27.9015L28.028 24.2836C28.028 24.2836 11.9838 28.0038 13.7697 41.7221C13.7697 41.7221 5.78047 33.5098 6.95535 27.2877C8.13023 21.0656 26.1388 3.91545 39.3632 7.57056C52.5877 11.2257 54.787 26.5902 54.787 26.5902Z" fill="#9B6A5A"/>
<path d="M55.0783 29.3711C55.104 28.4488 54.9508 27.5301 54.6272 26.6647V26.6182C54.6272 26.4601 52.3056 11.3188 39.335 7.7381C33.0846 6.0175 26.3173 9.02157 21.7494 11.8396C13.9482 16.648 7.78242 23.8466 7.12449 27.3064C7.04841 27.727 7.01066 28.1534 7.0117 28.5806C7.0117 33.6587 12.1154 39.6389 13.5252 41.2014C13.4782 40.662 13.45 40.1319 13.45 39.611C13.45 27.5761 27.84 24.1349 27.9903 24.107L28.1971 24.1814V24.3489L26.9094 27.7157C28.3482 27.6355 29.7417 27.1893 30.9552 26.4203C32.1687 25.6513 33.1612 24.5854 33.8365 23.3258L33.9963 23.2328L34.1467 23.3258C36.3179 27.3343 41.4873 29.3525 43.1322 29.9106C42.0298 28.3131 41.3009 26.4925 40.9986 24.5814C40.9925 24.541 41.0016 24.4997 41.0241 24.4655C41.0466 24.4312 41.081 24.4063 41.1208 24.3954L41.3276 24.4698C42.6434 26.8321 49.6927 32.0776 51.065 33.0914C51.1892 32.3473 51.2552 31.5948 51.2623 30.8406C51.3598 30.0194 51.1814 29.1893 50.7548 28.4783V28.3016V28.2272H50.9804C52.6628 30.0129 53.6591 33.0449 54.0069 34.226C54.6822 32.6867 55.0432 31.0305 55.0689 29.3525L55.0783 29.3711ZM6.66394 28.5806C6.66133 28.1313 6.70225 27.6829 6.78612 27.2413C7.61324 22.8422 15.2453 15.4389 21.5614 11.542C26.2045 8.68675 33.0564 5.65478 39.4196 7.40328C52.3526 10.9747 54.8434 25.8462 54.9562 26.5438C55.2917 27.4355 55.4512 28.3827 55.4261 29.3339C55.3945 31.2277 54.9522 33.0927 54.129 34.8027L53.9599 34.905L53.8095 34.7748C53.2971 32.8594 52.5021 31.0292 51.4503 29.3432C51.5427 29.8245 51.5867 30.3136 51.5819 30.8034C51.5705 31.6704 51.4887 32.535 51.3375 33.389L51.2341 33.5285H51.0556C50.736 33.296 43.7525 28.2086 41.4779 25.3254C41.8659 27.0629 42.629 28.6968 43.7149 30.1152V30.3198L43.5175 30.3849C43.4517 30.3849 36.722 28.4597 33.9587 23.7443C33.2192 25.0256 32.157 26.0956 30.8756 26.8502C29.5941 27.6048 28.1371 28.0183 26.6463 28.0505L26.5053 27.9761V27.818L27.7554 24.507C25.6312 25.1115 13.7978 28.8317 13.7978 39.611C13.8033 40.3045 13.8504 40.9971 13.9388 41.6851L13.8448 41.8618H13.638C13.356 41.5642 6.66394 34.6167 6.66394 28.6085" fill="#333833"/>
<path d="M7.01174 28.5806C7.0107 28.1534 7.04845 27.727 7.12453 27.3065C7.78246 23.8467 13.9482 16.6481 21.7494 11.8397C24.8711 9.83882 28.3273 8.40282 31.9568 7.59863C30.2543 12.3006 29.3029 17.2364 29.1371 22.2284V22.2284L29.1841 22.34L29.3062 22.4051C37.13 22.7926 44.8479 24.3607 52.1929 27.0554H52.3433L52.4467 26.9717C52.6533 25.5016 52.7601 24.0195 52.7662 22.5353C52.7662 21.754 52.7662 21.01 52.6722 20.2846C53.5679 22.316 54.2178 24.4451 54.6084 26.6275V26.674C54.9321 27.5394 55.0852 28.4581 55.0596 29.3805C55.0596 29.6037 55.0596 29.8362 55.0596 30.0687C50.9123 27.7454 46.4257 26.0731 41.76 25.1115C41.5894 24.897 41.4354 24.6701 41.2994 24.4326L41.0926 24.3582C41.0563 24.3686 41.0245 24.3907 41.0023 24.421C40.9802 24.4514 40.969 24.4882 40.9704 24.5256V24.5256C40.9704 24.5256 40.9704 24.693 41.0362 24.9348C38.8557 24.4884 36.6657 24.1629 34.5133 23.9211C34.3723 23.7072 34.2407 23.4933 34.1185 23.27L33.9682 23.177L33.8084 23.27C33.7171 23.4612 33.6102 23.6448 33.4888 23.8188C32.6993 23.7351 31.9098 23.67 31.1297 23.6142C23.1781 23.0654 13.5159 23.8095 7.02114 28.9527C7.02114 28.8039 7.02114 28.6643 7.02114 28.5248" fill="#845646"/>
<path d="M6.84255 28.5806C6.84148 28.1441 6.87922 27.7084 6.95534 27.2785C7.92344 22.1539 20.2832 9.65396 31.9568 7.44043C31.9568 7.50553 31.9568 7.56134 31.891 7.62644C28.2713 8.43375 24.8249 9.86965 21.7118 11.8675C13.9482 16.648 7.78245 23.8466 7.12452 27.3064C7.04844 27.7269 7.0107 28.1533 7.01173 28.5806C7.01173 28.7201 7.01173 28.8596 7.01173 29.0084L6.85195 29.1386C6.85195 28.9526 6.85195 28.7666 6.85195 28.5806H6.84255ZM33.4982 23.8745C33.6196 23.7005 33.7265 23.517 33.8178 23.3257L33.9776 23.2327L34.1279 23.3257C34.2501 23.549 34.3817 23.7629 34.5227 23.9768H34.2971C34.1843 23.8001 34.0809 23.6234 33.9776 23.4281C33.8922 23.5971 33.7981 23.7616 33.6956 23.921H33.4982V23.8745ZM41.0174 24.6092C41.0159 24.5718 41.0272 24.535 41.0493 24.5047C41.0715 24.4743 41.1033 24.4522 41.1396 24.4418L41.3464 24.5162C41.4824 24.7537 41.6363 24.9807 41.8069 25.1952L41.4968 25.1115C41.3558 24.9254 41.243 24.7394 41.1396 24.5813C41.1396 24.5813 41.1396 24.758 41.2242 25.0463H41.0362C41.0362 24.8045 40.9798 24.665 40.9704 24.6371L41.0174 24.6092ZM52.6346 19.6613C53.6527 21.8704 54.3823 24.1987 54.8058 26.5902C55.1404 27.482 55.2968 28.4296 55.2664 29.3804C55.2664 29.6346 55.2664 29.895 55.2664 30.1616L55.0972 30.0686C55.0972 29.8361 55.0972 29.6036 55.0972 29.3804C55.1228 28.458 54.9696 27.5393 54.646 26.6739V26.6274C54.232 24.4387 53.5568 22.3064 52.6346 20.2752C52.6346 20.0706 52.6346 19.8659 52.5782 19.6613" fill="#2C2D26"/>
<path d="M15.1418 37.909C8.6753 35.2491 9.03246 27.2227 12.8297 27.7528C15.8186 28.1621 17.125 31.1661 17.125 31.1661C17.125 31.1661 18.5255 34.7841 17.1908 37.0162C17.0726 37.2605 16.8962 37.4727 16.6768 37.6347C16.4575 37.7967 16.2017 37.9036 15.9314 37.9462L15.1418 37.909Z" fill="#F5E0CB"/>
<path d="M9.9254 30.98C9.92093 30.5245 9.98105 30.0705 10.104 29.6315C10.1972 28.9992 10.5386 28.4287 11.0542 28.0439C11.5698 27.6591 12.2179 27.491 12.8579 27.576C15.9032 28.0039 17.2378 30.9707 17.2942 31.1009C17.3102 31.143 17.3093 31.1895 17.2919 31.231C17.2744 31.2724 17.2417 31.3057 17.2003 31.3242C17.1795 31.335 17.1566 31.3414 17.1332 31.343C17.1097 31.3447 17.0862 31.3414 17.0641 31.3335C17.042 31.3257 17.0218 31.3133 17.0048 31.2973C16.9878 31.2813 16.9743 31.2619 16.9653 31.2405C16.9653 31.2405 15.6588 28.3201 12.8109 27.9016C12.5317 27.8679 12.2484 27.8895 11.9777 27.965C11.7069 28.0406 11.454 28.1686 11.2337 28.3417C11.0133 28.5147 10.8299 28.7294 10.694 28.9731C10.5582 29.2169 10.4727 29.4849 10.4423 29.7617C9.83141 31.9566 10.9311 36.0209 15.2077 37.788C15.229 37.7962 15.2484 37.8085 15.2647 37.8243C15.2811 37.8401 15.294 37.8589 15.3028 37.8798C15.3116 37.9006 15.316 37.923 15.3158 37.9456C15.3156 37.9682 15.3108 37.9905 15.3016 38.0112C15.2934 38.0323 15.281 38.0515 15.265 38.0677C15.2491 38.0839 15.23 38.0967 15.2089 38.1054C15.1878 38.1141 15.1652 38.1185 15.1424 38.1183C15.1195 38.1181 15.097 38.1133 15.0761 38.1043C13.1818 37.3663 11.6268 35.9665 10.7055 34.1701C10.2091 33.1906 9.94241 32.1129 9.9254 31.0172V30.98Z" fill="#333833"/>
<path d="M15.5366 35.0259L15.6776 34.8585C15.6776 34.7562 15.6776 32.4218 13.8636 31.4266C13.6273 31.2626 13.3561 31.1547 13.0708 31.1111C12.7856 31.0676 12.494 31.0896 12.2188 31.1755C12.0383 31.2564 11.8767 31.3734 11.7441 31.519C11.6115 31.6646 11.5107 31.8358 11.4481 32.0218C11.4388 32.0685 11.447 32.117 11.4712 32.1581C11.4955 32.1992 11.534 32.2301 11.5797 32.245C11.6244 32.2543 11.671 32.2472 11.7108 32.2249C11.7506 32.2027 11.7808 32.1669 11.7958 32.1241C11.8405 31.9872 11.9127 31.8607 12.008 31.752C12.1032 31.6433 12.2197 31.5548 12.3504 31.4917C12.5757 31.4334 12.8112 31.4249 13.0402 31.4667C13.2692 31.5084 13.4862 31.5995 13.6756 31.7335C15.2829 32.6636 15.3017 34.8306 15.3017 34.8585C15.3016 34.8813 15.3063 34.9038 15.3154 34.9248C15.3245 34.9457 15.3378 34.9646 15.3545 34.9803C15.3712 34.996 15.391 35.0081 15.4126 35.0159C15.4342 35.0238 15.4573 35.0272 15.4803 35.0259H15.5366Z" fill="#333833"/>
<path d="M14.0986 34.1423C14.3318 34.0946 14.5449 33.9778 14.7095 33.8075C14.8595 33.6091 14.9577 33.3771 14.9954 33.1321C15.0331 32.8872 15.0092 32.6368 14.9257 32.4031C14.9125 32.3587 14.8831 32.3207 14.8431 32.2967C14.8031 32.2726 14.7555 32.2641 14.7095 32.2729C14.687 32.2773 14.6657 32.2862 14.6468 32.2989C14.6278 32.3117 14.6117 32.3282 14.5994 32.3473C14.5871 32.3665 14.5789 32.3879 14.5752 32.4103C14.5715 32.4326 14.5724 32.4555 14.578 32.4775C14.6465 32.656 14.6703 32.8481 14.6474 33.0376C14.6245 33.2272 14.5555 33.4083 14.4464 33.5657C14.3298 33.6683 14.1921 33.7447 14.0428 33.7897C13.8936 33.8346 13.7362 33.847 13.5817 33.8261C13.5332 33.8208 13.4845 33.8343 13.446 33.8638C13.4074 33.8933 13.3819 33.9365 13.3749 33.9842C13.3695 34.0297 13.3821 34.0755 13.4102 34.112C13.4382 34.1484 13.4795 34.1726 13.5253 34.1795C13.7154 34.2066 13.9085 34.2066 14.0986 34.1795V34.1423Z" fill="#333833"/>
<path d="M36.5905 0.762704C35.4963 0.528308 34.3881 0.36366 33.2726 0.269775C29.6661 0.835734 26.2487 2.24704 23.3057 4.38592C20.3626 6.5248 17.9792 9.3292 16.3544 12.5651C14.5703 16.3262 13.5636 20.4021 13.3937 24.5535C18.5116 22.7395 23.9434 21.9522 29.372 22.2376C30.1615 8.09153 34.3347 2.70652 36.6281 0.762704H36.5905Z" fill="#D23B43"/>
<path d="M36.2145 0.865695C35.2371 0.664682 34.2485 0.521818 33.2538 0.43787C32.8215 0.493673 21.7588 1.94456 16.486 12.6402C14.7556 16.3022 13.7689 20.2648 13.5816 24.303C18.5724 22.5712 23.8544 21.8101 29.137 22.0616C29.9454 8.56654 33.8366 3.03272 36.2145 0.865695ZM13.2151 24.5542C13.3728 20.3683 14.3797 16.2565 16.1758 12.4635C21.5238 1.61904 32.7745 0.149553 33.2538 0.09375C34.3981 0.184814 35.5349 0.352609 36.6563 0.595979L36.7879 0.726186L36.7033 0.930798C34.3535 2.90251 30.2837 8.28752 29.5036 22.322C29.5012 22.3673 29.4813 22.4099 29.4481 22.441C29.4149 22.4722 29.3708 22.4895 29.325 22.4894C23.9309 22.2043 18.5336 22.9884 13.4501 24.796H13.2903L13.2151 24.6565V24.5542Z" fill="#333833"/>
<path d="M55.2851 28.1157C58.5466 17.3456 52.2681 7.71028 43.0664 3.07861C45.3128 4.6504 54.4016 11.942 52.2681 26.9717C54.1479 27.6692 55.2851 28.1529 55.2851 28.1529V28.1157Z" fill="#D23B43"/>
<path d="M55.9807 22.3213C55.9807 15.1878 51.7699 8.37053 44.871 4.23179C47.4371 6.53552 49.4708 9.35991 50.8334 12.5122C52.1959 15.6646 52.8552 19.0706 52.7662 22.498C52.7619 23.9353 52.6614 25.3707 52.4654 26.7949C53.8471 27.2971 54.7964 27.7249 55.1724 27.8552C55.7023 26.0571 55.9743 24.1943 55.9807 22.3213V22.3213ZM42.9254 3.07852V2.98551L43.151 2.92041C51.2624 7.01265 56.3096 14.4624 56.3096 22.3492C56.3109 24.3176 56.0228 26.2758 55.4543 28.1621L55.3509 28.2737H55.21C55.21 28.2737 54.0915 27.7807 52.2117 27.1018L52.0989 26.9065C52.3058 25.4552 52.4125 23.9916 52.4184 22.5259C52.4184 10.705 45.2094 4.75262 43.0194 3.21803L42.9442 3.07852H42.9254Z" fill="#333833"/>
<path d="M16.3356 12.5651C17.9622 9.32694 20.3485 6.52107 23.2951 4.38205C26.2416 2.24302 29.6628 0.832993 33.2726 0.26981C29.1397 -0.119923 24.9766 0.589668 21.2137 2.32523C4.14505 10.2307 6.79557 28.0598 6.79557 28.0598C8.8275 26.6165 11.0388 25.438 13.3749 24.5535C13.539 20.4034 14.5392 16.3275 16.3168 12.5651H16.3356Z" fill="#3AA8D4"/>
<path d="M31.8251 0.362622C28.1946 0.241997 24.586 0.965075 21.2888 2.47384C8.23358 8.5564 6.82372 20.5448 6.82372 25.4183C6.81893 26.1979 6.85658 26.9771 6.93651 27.7527C8.88506 26.3919 10.9973 25.2766 13.2245 24.4324C13.3939 20.2939 14.3973 16.2307 16.1758 12.4812C17.7082 9.43597 19.9084 6.76768 22.6158 4.67111C25.3232 2.57453 28.4695 1.10256 31.8251 0.362622V0.362622ZM6.44776 25.4183C6.47596 20.4611 7.90461 8.37039 21.1384 2.16693C24.9313 0.430022 29.1202 -0.285418 33.282 0.0929068C33.3252 0.0952864 33.3659 0.113969 33.3956 0.145111C33.4253 0.176252 33.4418 0.217482 33.4418 0.260316C33.4423 0.302727 33.4274 0.343914 33.3998 0.376356C33.3722 0.408799 33.3337 0.430333 33.2914 0.437027C32.8214 0.49283 21.7588 1.94371 16.4859 12.6393C14.7149 16.3801 13.7209 20.4347 13.5628 24.5626L13.45 24.7207C11.1129 25.5911 8.90102 26.7605 6.87072 28.1991H6.70153L6.59815 28.0689C6.48705 27.1836 6.4368 26.2918 6.44776 25.3997V25.4183Z" fill="#333833"/>
<path d="M43.1039 3.07853C41.0417 2.03425 38.8527 1.25596 36.5904 0.762695C34.297 2.67861 30.1239 8.09152 29.3344 22.2376C37.177 22.6579 44.9096 24.2541 52.268 26.9716C54.4016 11.9791 45.3127 4.65032 43.1039 3.11573" fill="#3AA8D4"/>
<path d="M36.6562 0.930186C34.2876 2.9577 30.3118 8.37062 29.5129 22.0703C37.2431 22.4957 44.8655 24.0631 52.127 26.7206C52.315 25.3363 52.4123 23.9414 52.4184 22.5446C52.4184 10.7237 45.2093 4.77131 43.0193 3.23672C41.0049 2.20589 38.8669 1.43091 36.6562 0.930186V0.930186ZM29.137 22.2377C29.9453 8.1009 34.0809 2.63218 36.4776 0.632568H36.628C38.9123 1.12692 41.1233 1.9083 43.2073 2.9577C45.4725 4.53879 52.7943 10.5748 52.7943 22.5632C52.7776 24.0387 52.6614 25.5115 52.4466 26.9717L52.362 27.0926H52.2116C44.8666 24.398 37.1487 22.8298 29.3249 22.4423L29.2028 22.3214L29.137 22.2377Z" fill="#333833"/>
<path d="M37.6902 21.0937C42.2486 21.1672 46.7371 22.2142 50.8488 24.1629C50.8488 24.1629 52.2211 17.792 46.4031 15.5413C39.9929 13.0674 37.5962 19.494 37.7278 21.1216" fill="#9B6A5A"/>
<path d="M50.7548 22.5445C50.8368 21.0831 50.4478 19.6336 49.6437 18.4051C48.8397 17.1765 47.6621 16.2323 46.2809 15.7086C45.3925 15.2778 44.407 15.0806 43.4193 15.1359C42.4316 15.1913 41.475 15.4974 40.6415 16.0248C39.8602 16.6078 39.2072 17.3423 38.7224 18.1834C38.2375 19.0246 37.9311 19.9546 37.8218 20.9169C42.2567 21.0411 46.6192 22.0602 50.642 23.9117C50.7124 23.4592 50.7501 23.0023 50.7548 22.5445V22.5445ZM37.4834 20.9634C37.5844 19.933 37.9046 18.9354 38.423 18.0361C38.9414 17.1369 39.6462 16.3563 40.4911 15.7458C41.3636 15.1917 42.3647 14.8675 43.3994 14.804C44.4342 14.7405 45.4681 14.9399 46.4031 15.3831C47.8519 15.9304 49.0877 16.9189 49.9323 18.2059C50.7769 19.493 51.1867 21.0121 51.1026 22.5445C51.1177 23.0928 51.0768 23.6412 50.9804 24.1814L50.8864 24.3023H50.7548C46.6792 22.3753 42.2345 21.332 37.7184 21.2424C37.673 21.2429 37.629 21.2272 37.5945 21.1981C37.56 21.1691 37.5372 21.1287 37.5304 21.0843V20.9448" fill="#333833"/>
<path d="M37.8593 20.917C37.9686 19.9548 38.275 19.0247 38.7598 18.1836C39.2447 17.3425 39.8976 16.608 40.679 16.0249C41.5124 15.4976 42.4691 15.1915 43.4568 15.1361C44.4445 15.0807 45.43 15.2779 46.3184 15.7087C47.6926 16.2386 48.862 17.1854 49.659 18.4134C50.4559 19.6415 50.8395 21.0876 50.7547 22.5446C50.7531 23.0022 50.7185 23.4591 50.6513 23.9118C46.6285 22.0604 42.266 21.0413 37.8311 20.917" fill="#845646"/>
<path d="M37.6807 20.9635C37.6807 19.1778 40.1151 13.1232 46.3654 15.5413C47.7805 16.0754 48.9875 17.0407 49.8119 18.2979C50.6364 19.555 51.0357 21.0389 50.9522 22.5353C50.9581 23.0872 50.9109 23.6385 50.8112 24.1815C46.6995 22.2328 42.2109 21.1859 37.6525 21.1123C37.6479 21.0691 37.6479 21.0254 37.6525 20.9821L37.6807 20.9635ZM50.7548 22.5446C50.8368 21.0832 50.4477 19.6337 49.6437 18.4052C48.8396 17.1766 47.6621 16.2325 46.2809 15.7087C45.3925 15.2779 44.407 15.0807 43.4193 15.1361C42.4316 15.1915 41.4749 15.4976 40.6414 16.0249C39.8601 16.608 39.2071 17.3425 38.7223 18.1836C38.2375 19.0247 37.9311 19.9548 37.8217 20.917C42.2566 21.0413 46.6192 22.0604 50.642 23.9118C50.7123 23.4593 50.75 23.0024 50.7548 22.5446" fill="#2C2D26"/>
<path d="M3.75964 63.1228V63.0019C7.69784 53.0131 14.3617 51.4785 14.6437 51.4134C14.7345 51.3967 14.8283 51.4155 14.9054 51.4658C14.9825 51.5161 15.037 51.594 15.0573 51.6831C15.0683 51.7278 15.0698 51.7742 15.0618 51.8195C15.0539 51.8648 15.0366 51.908 15.011 51.9464C14.9854 51.9848 14.9521 52.0176 14.9132 52.0427C14.8743 52.0678 14.8305 52.0847 14.7847 52.0923C14.7283 52.0923 8.31817 53.6083 4.49277 63.0112C5.93082 64.0621 14.249 70.0796 17.9522 70.3214C18.0358 70.3394 18.1101 70.3866 18.1615 70.4543C18.213 70.522 18.2381 70.6057 18.2324 70.6902C18.2267 70.7747 18.1906 70.8544 18.1305 70.9147C18.0704 70.975 17.9905 71.012 17.9052 71.0189C13.6474 70.7306 4.25779 63.6994 3.85363 63.4018C3.81012 63.3691 3.77479 63.3269 3.75035 63.2785C3.7259 63.2301 3.71301 63.1769 3.71265 63.1228" fill="#333833"/>
<path d="M17.5105 46.8935C17.162 46.8931 16.8158 46.9497 16.486 47.0609C14.2479 47.7693 12.105 48.7436 10.104 49.9626C8.1685 51.1547 6.35804 52.5349 4.69958 54.0828C4.69958 54.0828 7.63208 59.1237 10.9969 60.5932C10.9969 60.5932 17.4353 55.6825 19.2211 52.7714C19.8186 51.9303 20.2463 50.9829 20.4806 49.9812C20.5323 49.575 20.493 49.1624 20.3655 48.7729C20.2381 48.3833 20.0255 48.0263 19.7429 47.7272C19.4603 47.428 19.1147 47.1941 18.7305 47.042C18.3463 46.8899 17.933 46.8233 17.5199 46.847" fill="#A3BE30"/>
<path d="M20.3396 49.5346C20.318 49.1895 20.228 48.8521 20.0746 48.5414C19.9212 48.2308 19.7075 47.9532 19.4457 47.7243C19.1838 47.4954 18.879 47.3198 18.5485 47.2076C18.2181 47.0953 17.8686 47.0485 17.5199 47.0699C17.2009 47.0745 16.8844 47.1246 16.58 47.2188C14.3525 47.9274 12.2193 48.8985 10.2262 50.1112C8.33943 51.2723 6.57323 52.615 4.95335 54.1198C5.4139 54.8731 8.05503 59.0397 10.9969 60.3883C11.7582 59.8117 17.4541 55.3567 19.0989 52.6875L19.1835 52.5387C19.7305 51.7739 20.1231 50.9118 20.3396 49.9996C20.3489 49.8447 20.3489 49.6895 20.3396 49.5346V49.5346ZM4.5116 54.0826L4.56799 53.943C6.23756 52.3841 8.06066 50.9945 10.01 49.795C12.0232 48.5693 14.1787 47.5887 16.4296 46.8746C16.7785 46.7618 17.1434 46.7053 17.5105 46.7072C17.9044 46.6833 18.2991 46.7366 18.6722 46.864C19.0452 46.9914 19.3892 47.1904 19.6843 47.4496C19.9795 47.7088 20.22 48.0232 20.3921 48.3746C20.5642 48.726 20.6646 49.1075 20.6873 49.4974C20.6861 49.672 20.6704 49.8462 20.6403 50.0182C20.4233 50.974 20.0176 51.8779 19.4467 52.6782L19.3621 52.827C17.5762 55.7288 11.3541 60.4906 11.0909 60.6952H10.9217C7.51929 59.2816 4.69958 54.3802 4.53039 54.1756V54.0826" fill="#333833"/>
<path d="M17.5105 46.8935C17.162 46.8931 16.8158 46.9497 16.486 47.0609C14.2479 47.7693 12.105 48.7436 10.104 49.9626C8.1685 51.1547 6.35804 52.5349 4.69958 54.0828C4.69958 54.0828 7.63208 59.1237 10.9969 60.5932C10.9969 60.5932 17.4353 55.6825 19.2211 52.7714C19.8186 51.9303 20.2463 50.9829 20.4806 49.9812C20.5323 49.575 20.493 49.1624 20.3655 48.7729C20.2381 48.3833 20.0255 48.0263 19.7429 47.7272C19.4603 47.428 19.1147 47.1941 18.7305 47.042C18.3463 46.8899 17.933 46.8233 17.5199 46.847" fill="#BDC95A"/>
<path d="M20.3396 49.5346C20.318 49.1895 20.228 48.8521 20.0746 48.5414C19.9212 48.2308 19.7075 47.9532 19.4457 47.7243C19.1838 47.4954 18.879 47.3198 18.5485 47.2076C18.2181 47.0953 17.8686 47.0485 17.5199 47.0699C17.2009 47.0745 16.8844 47.1246 16.58 47.2188C14.3525 47.9274 12.2193 48.8985 10.2262 50.1112C8.33943 51.2723 6.57323 52.615 4.95335 54.1198C5.4139 54.8731 8.05503 59.0397 10.9969 60.3883C11.7582 59.8117 17.4541 55.3567 19.0989 52.6875L19.1835 52.5387C19.7305 51.7739 20.1231 50.9118 20.3396 49.9996C20.3489 49.8447 20.3489 49.6895 20.3396 49.5346V49.5346ZM4.5116 54.0826L4.56799 53.943C6.23756 52.3841 8.06066 50.9945 10.01 49.795C12.0232 48.5693 14.1787 47.5887 16.4296 46.8746C16.7785 46.7618 17.1434 46.7053 17.5105 46.7072C17.9044 46.6833 18.2991 46.7366 18.6722 46.864C19.0452 46.9914 19.3892 47.1904 19.6843 47.4496C19.9795 47.7088 20.22 48.0232 20.3921 48.3746C20.5642 48.726 20.6646 49.1075 20.6873 49.4974C20.6861 49.672 20.6704 49.8462 20.6403 50.0182C20.4233 50.974 20.0176 51.8779 19.4467 52.6782L19.3621 52.827C17.5762 55.7288 11.3541 60.4906 11.0909 60.6952H10.9217C7.51929 59.2816 4.69958 54.3802 4.53039 54.1756V54.0826" fill="#333833"/>
<path d="M5.5549 53.3201C5.26353 53.5712 4.97216 53.8223 4.69019 54.0827C4.69019 54.0827 7.62268 59.1236 10.9875 60.5931C10.9875 60.5931 11.4763 60.2211 12.2188 59.663C9.34853 58.356 7.00271 56.1362 5.5549 53.3573" fill="#0084C7"/>
<path d="M5.4985 53.599L4.91576 54.1198C5.37631 54.8731 8.01744 59.0398 10.9593 60.3884C11.1097 60.2768 11.4481 60.0163 11.8992 59.6536C9.17073 58.3582 6.92916 56.2378 5.4985 53.599V53.599ZM4.55859 54.0826L4.56799 53.9431C4.81237 53.7199 5.05674 53.4967 5.31051 53.2828L5.4327 53.1711H5.58309L5.71467 53.2642C7.14776 56.0043 9.46284 58.1936 12.294 59.4862L12.388 59.6257L12.3316 59.7745C11.5891 60.3698 11.0909 60.7046 11.0909 60.7046H10.9217C7.51929 59.2816 4.69958 54.3802 4.5304 54.1756V54.0826" fill="#333833"/>
<path d="M9.14526 57.4773C10.5363 56.4263 11.9086 55.3567 13.2996 54.3058C15.0855 52.9386 17.1626 51.8504 18.2623 49.8229C18.5278 49.3802 18.6735 48.8773 18.6853 48.3627C18.6916 47.9004 18.5164 47.4536 18.1965 47.1165C18.7794 47.2051 19.3126 47.4925 19.7039 47.929C20.0952 48.3654 20.32 48.9235 20.3395 49.5067C20.3488 49.6616 20.3488 49.8168 20.3395 49.9717C20.123 50.8839 19.7305 51.746 19.1834 52.5108L19.0988 52.6596C17.8394 54.6964 14.2019 57.7935 12.2281 59.3932C11.1362 58.862 10.103 58.2199 9.14526 57.4773" fill="#86B451"/>
<path d="M12.2188 59.4213C14.1925 57.8216 17.8582 54.771 19.0894 52.6877L19.174 52.5389C19.7211 51.7741 20.1136 50.912 20.3301 49.9998C20.3394 49.845 20.3394 49.6897 20.3301 49.5348C20.3106 48.9516 20.0858 48.3936 19.6945 47.9571C19.3032 47.5206 18.77 47.2332 18.1871 47.1446C18.119 47.0664 18.0434 46.9947 17.9616 46.9307C18.6357 46.9824 19.2673 47.277 19.7368 47.7587C20.2062 48.2403 20.4808 48.8756 20.5087 49.5441C20.5222 49.705 20.5222 49.8668 20.5087 50.0277C20.2744 51.0294 19.8468 51.9768 19.2492 52.8179C17.9428 54.8733 14.3241 57.9146 12.3315 59.5236V59.4678H12.2281" fill="#233230"/>
<path d="M8.11133 58.2587L8.86325 57.7007C9.804 58.4542 10.8214 59.1087 11.8991 59.6538C11.448 60.0165 11.1096 60.2769 10.9592 60.3885C9.89997 59.8484 8.94541 59.1274 8.13952 58.2587" fill="#007ABD"/>
<path d="M7.97034 58.3702L8.11132 58.2586C8.91721 59.1273 9.87176 59.8483 10.931 60.3885C11.0814 60.2769 11.4198 60.0164 11.8709 59.6537C10.8014 59.0952 9.79338 58.4282 8.86324 57.6634L9.14521 57.4402C10.097 58.2049 11.1271 58.8689 12.2187 59.4212H12.3221V59.477C11.5138 60.1373 10.978 60.5466 10.978 60.5466C9.84208 59.9966 8.81908 59.2429 7.96094 58.3237" fill="#233230"/>
<path d="M34.6825 35.3978C34.4381 36.2628 33.8272 36.858 33.329 36.7185C32.8309 36.579 32.6241 35.7885 32.8779 34.8584C33.1317 33.9284 33.7332 33.3982 34.2313 33.5377C34.7295 33.6772 34.9363 34.4678 34.6825 35.3978Z" fill="#1D1D1B"/>
<path d="M47.5215 39.1739C47.2677 40.0482 46.6662 40.6341 46.168 40.4946C45.6699 40.3551 45.4631 39.5646 45.7169 38.6345C45.9706 37.7045 46.5722 37.165 47.0703 37.3138C47.5685 37.4626 47.7753 38.2439 47.5215 39.1739Z" fill="#1D1D1B"/>
<path d="M26.3643 43.4243C26.3637 43.3818 26.3786 43.3407 26.4062 43.3082C26.4339 43.2758 26.4723 43.2542 26.5147 43.2475C26.5606 43.2422 26.6069 43.2547 26.6437 43.2825C26.6806 43.3102 26.705 43.3511 26.712 43.3964C26.712 43.5545 27.2666 47.2933 31.8815 48.4C36.7314 49.5626 39.4759 47.3119 39.4759 47.2933H39.7297V47.5351C39.6169 47.6374 36.8348 49.9253 31.8063 48.7163C30.4724 48.4669 29.2436 47.8306 28.2762 46.8882C27.3088 45.9459 26.6466 44.7401 26.3737 43.4243V43.4243H26.3643Z" fill="#333833"/>
<path d="M12.7545 37.3045C12.7531 37.27 12.759 37.2355 12.7718 37.2034C12.7846 37.1712 12.8039 37.1419 12.8286 37.1175C12.8533 37.093 12.8828 37.0739 12.9154 37.0613C12.9479 37.0487 12.9827 37.0428 13.0176 37.0441C13.0858 37.0441 13.1514 37.0702 13.2005 37.1171C13.2496 37.1639 13.2784 37.2278 13.2808 37.2952C13.2808 37.444 13.5816 51.9343 24.2777 59.0585C25.5183 58.5284 35.3967 54.185 39.3161 48.9209C39.3348 48.8928 39.3592 48.8688 39.3879 48.8505C39.4165 48.8323 39.4486 48.8201 39.4822 48.8149C39.5159 48.8096 39.5502 48.8114 39.5831 48.82C39.616 48.8287 39.6467 48.844 39.6733 48.8651C39.7017 48.8846 39.7259 48.9095 39.7446 48.9383C39.7633 48.9671 39.7761 48.9993 39.7822 49.033C39.7883 49.0667 39.7876 49.1012 39.7802 49.1346C39.7728 49.1681 39.7588 49.1997 39.7391 49.2278C35.4719 54.9384 24.7852 59.4026 24.3247 59.5886H24.0803C13.0552 52.3249 12.7639 37.4533 12.7545 37.3045Z" fill="#333833"/>
<path d="M13.6944 31.7334C13.6944 31.7334 11.5608 30.3197 11.4668 33.1563C11.4172 34.5314 11.6276 35.9035 12.0872 37.2021C12.0872 37.2021 12.3597 38.346 12.9425 38.346C12.9425 38.346 13.4782 38.4763 13.4876 37.974C13.497 37.4718 13.403 35.9558 13.8918 35.7791C14.3805 35.6024 15.593 35.1374 15.3486 34.1236C15.1045 33.1614 14.5169 32.3191 13.6944 31.752V31.7334Z" fill="#EBECF0"/>
<path d="M13.5816 31.8636C13.5816 31.8636 12.7921 31.3521 12.2187 31.6218C11.8521 31.8078 11.6454 32.3194 11.6172 33.1471C11.6106 33.271 11.6106 33.3952 11.6172 33.5191C11.647 34.7469 11.8494 35.9646 12.2187 37.1371C12.2939 37.4719 12.5759 38.1508 12.8954 38.1508H12.9424H13.2056C13.2526 38.1508 13.2714 38.0671 13.2714 37.9834V37.4719C13.2714 36.6534 13.3278 35.7885 13.7977 35.6118C14.841 35.249 15.2922 34.7654 15.1418 34.1516C14.9048 33.226 14.3372 32.4166 13.544 31.8729L13.5816 31.8636ZM11.2788 33.5377C11.2706 33.4015 11.2706 33.2648 11.2788 33.1285C11.2788 32.1985 11.5796 31.5753 12.0683 31.3242C12.3546 31.2355 12.6577 31.2128 12.9542 31.258C13.2507 31.3031 13.5328 31.4148 13.779 31.5846C14.6354 32.1785 15.2489 33.0561 15.5084 34.0586C15.6964 34.8584 15.17 35.5002 13.9481 35.9187C13.8353 35.9187 13.6474 36.207 13.6474 37.4347V37.9462C13.6529 38.0308 13.6379 38.1155 13.6036 38.1932C13.5692 38.2709 13.5166 38.3393 13.45 38.3926C13.3704 38.4442 13.2809 38.4791 13.1872 38.4951C13.0934 38.5111 12.9973 38.5079 12.9048 38.4856C12.2281 38.4856 11.9649 37.3417 11.9085 37.2208C11.5181 36.0167 11.2998 34.7645 11.26 33.5005L11.2788 33.5377Z" fill="#333833"/>
<path d="M8.28053 81.9472C8.28053 78.7292 11.7206 73.8464 15.3486 70.2099C18.7242 66.9552 21.6393 63.2635 24.0145 59.2353C24.0304 59.2046 24.0523 59.1773 24.0789 59.155C24.1055 59.1328 24.1363 59.116 24.1695 59.1056C24.2027 59.0952 24.2377 59.0915 24.2724 59.0946C24.3071 59.0977 24.3409 59.1075 24.3717 59.1236C24.4326 59.1571 24.4782 59.2124 24.4991 59.2782C24.5201 59.3439 24.5149 59.4151 24.4845 59.4771C22.0748 63.5437 19.129 67.275 15.7246 70.5726C12.0213 74.2928 8.28993 79.6034 8.86327 82.5703C8.92409 82.9833 9.09442 83.3731 9.35693 83.6998C9.61944 84.0266 9.96475 84.2786 10.3577 84.4304C14.4275 86.2161 19.7004 79.5104 19.7568 79.4453C19.798 79.39 19.8597 79.3531 19.9284 79.3427C19.9971 79.3322 20.0671 79.3491 20.1233 79.3895C20.1764 79.4347 20.2107 79.4978 20.2194 79.5666C20.2281 79.6353 20.2106 79.7048 20.1703 79.7615C19.9447 80.0499 14.5873 86.8578 10.1509 84.9047C9.68654 84.7233 9.27685 84.4271 8.96095 84.0445C8.64504 83.6619 8.43344 83.2056 8.34633 82.7191C8.30047 82.48 8.27843 82.237 8.28053 81.9937" fill="#333833"/>
<path d="M14.6719 76.7109L22.6235 82.1889L31.5807 69.4751L23.6292 63.9971L14.6719 76.7109Z" fill="#6B7172"/>
<path d="M23.6761 64.2388L14.9162 76.6644L22.5577 81.9471L31.3176 69.5215L23.6573 64.2388H23.6761ZM14.4933 76.7109V76.6086L23.4976 63.8947L23.6103 63.8203H23.7419L31.6935 69.3076V69.5494L22.7644 82.2912H22.5201L14.5685 76.8039L14.5027 76.6923" fill="#353934"/>
<path d="M14.6719 76.7109L21.9843 81.7518L30.9416 69.0287L23.6292 63.9971L14.6719 76.7109Z" fill="#BEC0C7"/>
<path d="M23.6761 64.2388L14.9162 76.6643L21.9467 81.5099L30.6972 69.0751L23.6761 64.2388V64.2388ZM14.4933 76.7109V76.6085L23.4976 63.8947L23.6103 63.8203H23.7419L31.0168 68.8891V69.1309L22.1253 81.8447L22.0125 81.9099H21.8809L14.5685 76.8504L14.4933 76.7109" fill="#333833"/>
<path d="M16.0912 75.3716L22.4637 79.7708L29.842 69.2797L23.4694 64.8899L16.0912 75.3716Z" fill="#8E5999"/>
<path d="M23.4976 65.1038L16.3356 75.3344L22.4167 79.529L29.5976 69.2984L23.4976 65.1038ZM15.9126 75.3344V75.2414L23.2908 64.7504L23.4036 64.6853H23.5352L29.9078 69.0752L29.9548 69.317L22.6047 79.8731L22.4919 79.9382H22.3603L15.9784 75.5111L15.9126 75.3344Z" fill="#333833"/>
<path d="M23.7889 65.3269L25.2552 66.3314C25.5466 68.3775 25.8285 70.4236 26.0447 72.4976C26.0917 73.037 26.1575 73.5858 26.2139 74.1345L24.9356 75.9946C24.5597 72.4418 24.1555 68.9076 23.7889 65.3641" fill="#C6B3D3"/>
<path d="M23.7701 65.1038L25.2176 66.1082C25.2176 66.1826 25.2176 66.257 25.2176 66.3407L23.7513 65.3363C23.7562 65.2588 23.7562 65.1812 23.7513 65.1038H23.7701ZM24.9168 75.9668L26.1951 74.1067C26.1951 74.1904 26.1951 74.2741 26.1951 74.3671L24.9074 76.2272V75.9668" fill="#A0A4A9"/>
<path d="M18.0461 72.8976L19.1176 71.3723C19.315 72.6279 19.503 73.8742 19.6816 75.139C19.8132 76.0691 19.9259 76.9991 20.0293 77.8827L18.6571 76.9526C18.4879 75.6041 18.2999 74.2555 18.0461 72.9162" fill="#C6B3D3"/>
<path d="M17.9991 72.6559L19.08 71.1213C19.0846 71.205 19.0846 71.2888 19.08 71.3724L18.0461 72.8977C18.0461 72.814 18.0461 72.7303 17.9991 72.6559V72.6559ZM18.6571 76.9342L20.0293 77.8642V78.0967L18.6665 77.1667C18.6612 77.0893 18.6612 77.0116 18.6665 76.9342" fill="#A0A4A9"/>
<path d="M18.3093 77.9849C18.2159 78.1169 18.1792 78.2802 18.2074 78.4389C18.2356 78.5977 18.3264 78.7388 18.4597 78.8313C18.5931 78.9238 18.7581 78.9601 18.9185 78.9322C19.0789 78.9043 19.2216 78.8144 19.315 78.6825C19.4085 78.5505 19.4452 78.3872 19.417 78.2285C19.3888 78.0698 19.298 77.9286 19.1647 77.8361C19.0313 77.7436 18.8663 77.7073 18.7059 77.7353C18.5455 77.7632 18.4028 77.853 18.3093 77.9849V77.9849Z" fill="#6B7172"/>
<path d="M19.2493 78.3291C19.2478 78.2598 19.2301 78.1918 19.1974 78.1304C19.1648 78.0691 19.1182 78.0161 19.0613 77.9757C18.9644 77.9133 18.847 77.8901 18.7333 77.9109C18.6196 77.9316 18.5183 77.9948 18.4504 78.0873C18.4032 78.1595 18.3772 78.2432 18.3752 78.3291C18.3734 78.399 18.3897 78.4682 18.4226 78.5301C18.4555 78.5919 18.5039 78.6444 18.5631 78.6825C18.6079 78.7169 18.6596 78.7413 18.7147 78.7542C18.7699 78.767 18.8272 78.7679 18.8827 78.7569C18.984 78.7378 19.0757 78.6849 19.1424 78.6071C19.2091 78.5292 19.2468 78.4311 19.2493 78.3291V78.3291ZM18.0274 78.3291C18.0267 78.1723 18.076 78.0194 18.1684 77.892C18.2878 77.7243 18.4691 77.6098 18.6731 77.5733C18.8771 77.5367 19.0874 77.5811 19.2587 77.6967C19.4262 77.8164 19.5403 77.9956 19.5771 78.1967C19.6139 78.3979 19.5705 78.6053 19.4561 78.7755C19.398 78.8608 19.3231 78.9337 19.2359 78.9896C19.1487 79.0456 19.0509 79.0835 18.9485 79.1011C18.8336 79.1249 18.7147 79.1227 18.6007 79.0948C18.4868 79.0668 18.3807 79.0137 18.2903 78.9395C18.2 78.8653 18.1277 78.7719 18.0789 78.6662C18.0301 78.5605 18.0061 78.4453 18.0086 78.3291H18.0274Z" fill="#353934"/>
<path d="M22.0219 72.6371C22.2781 72.7686 22.5454 72.8775 22.8208 72.9626L23.7043 73.3068C24.1069 73.4576 24.518 73.5849 24.9356 73.6881C25.1706 73.7439 25.65 73.8648 25.8755 73.6881C26.2797 73.2417 25.3962 72.6557 25.1048 72.4418C24.303 71.8996 23.4499 71.4355 22.5577 71.056C24.0803 71.3165 26.0353 71.3909 25.8191 70.5073C25.6593 69.8005 24.6912 69.5773 24.0991 69.3819C23.7115 69.2566 23.3159 69.1572 22.9148 69.0843H22.8114C21.9168 68.8729 21.0095 68.7176 20.0951 68.6193C20.2455 68.6193 20.7155 68.0799 20.8188 67.9776C21.036 67.7571 21.2283 67.5138 21.3922 67.2521C21.599 66.908 21.7963 66.3221 21.27 66.164C20.3959 65.8198 19.0236 66.9359 18.3375 67.3916C17.3595 67.966 16.5472 68.7795 15.9783 69.754C15.6906 70.3322 15.5457 70.9697 15.5554 71.6141C15.7058 74.0229 18.9766 74.5716 20.4805 75.9295C20.941 76.3387 21.9467 77.6408 22.6987 77.2967C23.4506 76.9526 22.3791 75.6784 22.1065 75.3436C21.8339 75.0088 21.411 74.5995 21.1666 74.1903L21.0538 74.0322C21.7775 74.5251 24.8134 76.0783 25.1612 75.6505C25.7439 74.8786 23.366 73.3905 22.1159 72.6185L22.0219 72.6371Z" fill="#F5E0CB"/>
<path d="M21.411 66.5825C21.4127 66.5161 21.3912 66.4511 21.3501 66.3986C21.309 66.3461 21.2508 66.3092 21.1854 66.2942C20.5181 66.0245 19.3996 66.8057 18.7323 67.2243L18.4033 67.4475C17.4468 68.0132 16.6513 68.8101 16.0912 69.7633C15.7977 70.3392 15.6555 70.9789 15.6776 71.6234C15.781 73.1301 17.219 73.8835 18.6101 74.6089C19.3062 74.9317 19.9596 75.3377 20.5557 75.818L20.8753 76.1435C21.3264 76.6085 22.0783 77.3898 22.5765 77.1572C22.6401 77.1372 22.6955 77.0975 22.7344 77.0439C22.7733 76.9903 22.7938 76.9256 22.7927 76.8596C22.7927 76.4783 22.2851 75.9296 22.0407 75.6134L21.9186 75.4645C21.787 75.3064 21.6554 75.1483 21.5144 74.9995C21.3051 74.7798 21.1104 74.5468 20.9317 74.302L20.8189 74.1532V73.93H21.0444C21.9843 74.5624 24.5973 75.7901 24.9168 75.5762V75.418C24.9168 74.6926 22.6987 73.3254 21.8716 72.8046L21.881 72.5442H22.1253C22.2787 72.6237 22.4392 72.6891 22.6047 72.7395C22.7009 72.771 22.795 72.8083 22.8867 72.8511C23.178 72.9627 23.4694 73.0836 23.7702 73.1859C24.1627 73.338 24.5645 73.4654 24.9732 73.5672C25.18 73.5672 25.5936 73.7067 25.7158 73.5672C25.9789 73.2696 25.3116 72.8232 25.0484 72.6372L24.9638 72.5442C24.1727 72.0243 23.3322 71.582 22.4543 71.2235C22.4175 71.2026 22.3884 71.1705 22.3715 71.132C22.3546 71.0934 22.3506 71.0505 22.3603 71.0096C22.3748 70.9705 22.4021 70.9373 22.4379 70.9154C22.4737 70.8935 22.5159 70.8841 22.5577 70.8887C24.0239 71.1398 25.1988 71.1212 25.5466 70.8329C25.5872 70.8 25.6169 70.7559 25.632 70.7062C25.6471 70.6565 25.6468 70.6034 25.6312 70.5539C25.4996 70.0237 24.7571 69.7912 24.2119 69.6238L24.0145 69.568C23.6334 69.4425 23.244 69.343 22.8491 69.2704H22.7363C21.8515 69.0594 20.9534 68.9072 20.0481 68.8147C20.0034 68.8057 19.9634 68.781 19.9358 68.7451C19.9081 68.7091 19.8946 68.6644 19.8978 68.6194C19.9 68.5964 19.907 68.5742 19.9183 68.554C19.9297 68.5339 19.9451 68.5163 19.9636 68.5023C19.9822 68.4883 20.0034 68.4783 20.026 68.4728C20.0487 68.4674 20.0722 68.4666 20.0951 68.4705C20.0951 68.4705 20.2361 68.3496 20.5933 67.959L20.6685 67.8753C20.8762 67.6639 21.059 67.4299 21.2136 67.1778C21.3239 67.0171 21.3918 66.8316 21.411 66.6383V66.5825ZM15.3204 71.4653C15.3339 70.8371 15.4914 70.2202 15.781 69.661C16.3651 68.6518 17.1997 67.8067 18.2059 67.2057C18.3093 67.1499 18.4127 67.0662 18.5349 66.9825C19.3056 66.4523 20.4617 65.6432 21.3546 65.9687C21.4851 66.0106 21.5984 66.0929 21.678 66.2034C21.7575 66.3139 21.799 66.4469 21.7964 66.5825C21.7785 66.841 21.6944 67.0906 21.552 67.308C21.3783 67.579 21.1767 67.8314 20.9505 68.0613L20.8847 68.1357L20.5745 68.4705C21.345 68.5557 22.1083 68.6956 22.8585 68.8891H22.9618C23.366 68.9659 23.7647 69.0684 24.1555 69.196L24.3529 69.2611C24.9826 69.4564 25.8286 69.7168 26.0071 70.4423C26.0394 70.5547 26.037 70.6741 26.0001 70.7851C25.9633 70.8962 25.8937 70.9938 25.8004 71.0654C25.1373 71.3916 24.3843 71.4929 23.6574 71.3537C24.2047 71.6167 24.7269 71.9279 25.2176 72.2838L25.2928 72.3489C25.7158 72.6465 26.1669 73.0092 26.1669 73.4184C26.1636 73.5535 26.1101 73.6827 26.0165 73.7812C25.7628 74.0788 25.2646 73.9579 24.9638 73.8928C24.5154 73.7856 24.0755 73.6457 23.648 73.4742H23.5728C24.5879 74.1811 25.3304 74.8693 25.3304 75.4273C25.3332 75.5614 25.2901 75.6925 25.2082 75.7994C24.8323 76.283 22.8303 75.3157 21.6742 74.6926L21.7682 74.7949C21.9186 74.953 22.0595 75.1111 22.1911 75.2785L22.3133 75.418C22.7352 75.812 23.0241 76.3252 23.1404 76.8875C23.1451 77.0198 23.1077 77.1502 23.0335 77.2603C22.9593 77.3704 22.852 77.4547 22.7269 77.5014C21.9937 77.8362 21.1666 76.9712 20.6215 76.4039C20.4993 76.283 20.4053 76.1807 20.3207 76.1063C19.7434 75.6457 19.1123 75.2554 18.4409 74.9437C16.9559 74.1718 15.4332 73.3719 15.3204 71.6699V71.4932V71.4653Z" fill="#333833"/>
<path d="M60.2479 54.2594C59.5523 56.1196 59.8343 57.9797 60.8588 58.3703C61.8833 58.7609 63.2931 57.4402 63.9793 55.5801C64.6654 53.72 64.3928 51.8599 63.3589 51.46C62.325 51.0601 60.934 52.39 60.2479 54.2501V54.2594Z" fill="#1D1D1B"/>
<path d="M53.5745 55.2824C52.8884 57.1983 53.161 59.0491 54.1949 59.4025C55.2288 59.7559 56.6292 58.519 57.3153 56.6124C58.0015 54.7057 57.7195 52.8921 56.6856 52.4922C55.6517 52.0923 54.2607 53.4223 53.5745 55.2824V55.2824Z" fill="#1D1D1B"/>
<path d="M54.7494 54.3709L55.1911 54.0268C55.2663 53.7013 56.6668 49.6834 57.6349 46.9305L64.8533 44.1961L61.8457 52.5666C61.8062 52.6752 61.8118 52.7947 61.8611 52.8993C61.9104 53.0038 61.9994 53.0848 62.1088 53.1246C62.2223 53.1638 62.3468 53.1576 62.4557 53.1072C62.5646 53.0568 62.6492 52.9662 62.6916 52.8549L66.0282 43.5544L65.9154 43.0894L65.4455 42.9871L57.1367 46.1585L56.8736 46.419C56.6292 47.1351 54.4486 53.3479 54.3452 53.8036C54.3313 53.861 54.329 53.9206 54.3385 53.9789C54.348 54.0372 54.3691 54.093 54.4006 54.1432C54.4321 54.1934 54.4733 54.2369 54.5219 54.2712C54.5704 54.3055 54.6254 54.3299 54.6836 54.343L54.7494 54.3709Z" fill="#333833"/>
<path d="M49.4483 67.8939C49.2603 68.3961 49.3355 68.8798 49.6081 68.9821C49.8806 69.0844 50.2472 68.7495 50.4258 68.2473C50.6044 67.7451 50.5386 67.2522 50.266 67.1592C49.9934 67.0662 49.6269 67.3917 49.4483 67.8939Z" fill="#1D1D1B"/>
<path d="M47.6907 68.173C47.5027 68.6752 47.5779 69.1681 47.8505 69.2611C48.1231 69.3541 48.4896 69.0286 48.6776 68.5264C48.8656 68.0241 48.781 67.5312 48.5084 67.4382C48.2359 67.3452 47.8693 67.6707 47.6907 68.173V68.173Z" fill="#1D1D1B"/>
<path d="M48.0009 67.9962L48.17 67.8567C48.17 67.7637 48.5554 66.7034 48.7998 65.9966L50.5574 65.3269L49.8149 67.4382C49.7995 67.4814 49.8017 67.5288 49.821 67.5704C49.8403 67.6121 49.8752 67.6447 49.9183 67.6614C49.9631 67.6761 50.0121 67.6726 50.0544 67.6517C50.0967 67.6308 50.1288 67.5941 50.1438 67.5498L51.018 65.1037V64.927H50.83L48.64 65.7641L48.5366 65.8757C48.4238 66.1733 47.8881 67.7358 47.8599 67.8288C47.8516 67.8744 47.8617 67.9213 47.8881 67.9596C47.9145 67.9979 47.955 68.0244 48.0009 68.0334V67.9962Z" fill="#333833"/>
<path d="M59.3925 69.4193C58.8849 70.8237 59.0917 72.2095 59.8436 72.442C60.5955 72.6745 61.6294 71.791 62.137 70.3959C62.6445 69.0008 62.4378 67.6057 61.6764 67.3732C60.9151 67.1407 59.9 68.0243 59.3925 69.4193V69.4193Z" fill="#1D1D1B"/>
<path d="M60.8494 68.6008L61.1595 68.3869L63.6221 61.5789L63.5375 61.2348L63.1897 61.1604L57.0991 63.4948C57.0583 63.5094 57.0208 63.5318 56.9888 63.5607C56.9567 63.5896 56.9308 63.6246 56.9125 63.6635C56.8941 63.7024 56.8837 63.7445 56.8819 63.7874C56.8801 63.8302 56.8868 63.8731 56.9018 63.9134C56.9352 63.9939 56.9991 64.0584 57.0798 64.0931C57.1605 64.1279 57.2518 64.1301 57.3341 64.0994L62.7574 62.0254L60.5392 68.173C60.5144 68.2557 60.5218 68.3446 60.5601 68.4221C60.5984 68.4997 60.6647 68.5601 60.746 68.5915L60.8494 68.6008Z" fill="#333833"/>
<path d="M57.0991 66.4338H57.2025C59.0823 65.8386 61.902 64.9364 62.09 64.8899C62.1742 64.8741 62.2488 64.8263 62.2979 64.7568C62.3471 64.6873 62.3669 64.6016 62.3531 64.5179C62.3393 64.4365 62.2947 64.3634 62.2283 64.3133C62.162 64.2633 62.079 64.24 61.996 64.2482C61.8174 64.2482 59.1763 65.1039 56.9957 65.8107C56.9543 65.8234 56.9158 65.8441 56.8825 65.8716C56.8492 65.899 56.8217 65.9328 56.8016 65.9708C56.7815 66.0088 56.7692 66.0504 56.7654 66.0932C56.7616 66.1359 56.7664 66.179 56.7795 66.2199L57.0991 66.4431V66.4338Z" fill="#333833"/>
</g>
<defs>
<clipPath id="clip0_616_275">
<rect width="66" height="121" fill="white"/>
</clipPath>
</defs>
</svg>
