<svg width="58" height="117" viewBox="0 0 58 117" fill="none" xmlns="http://www.w3.org/2000/svg">
<g clip-path="url(#clip0_616_622)">
<path d="M11.3065 88.2297C11.3065 88.2297 10.4627 99.7021 10.4504 110.419L13.8993 110.812C13.8993 110.812 18.0513 103.34 20.6685 91.1365L11.3065 88.2297Z" fill="#F4D9BF"/>
<g style="mix-blend-mode:multiply">
<path d="M16.5654 95.1077C17.5866 95.2504 18.6078 95.3752 19.6229 95.4763C19.9836 94.1151 20.3322 92.6766 20.6563 91.1667L11.2944 88.26C11.2944 88.26 11.1292 90.5069 10.9458 93.9367C12.7852 94.4671 14.664 94.8586 16.5654 95.1077V95.1077Z" fill="#F4D9BF"/>
</g>
<path d="M10.5177 105.213C10.4749 106.937 10.4504 108.696 10.4504 110.432L13.8993 110.824C13.8993 110.824 14.8226 109.148 16.0823 106.105C14.2009 105.994 12.3362 105.695 10.5177 105.213V105.213Z" fill="#75CDD6"/>
<path d="M14.2539 110.646C13.9971 110.349 12.927 110.789 12.927 110.789C12.927 110.789 11.1842 109.166 9.96737 110.295C9.96737 110.295 1.21692 112.078 1.55936 115.996C1.55936 115.996 8.53648 116.323 14.26 114.212C14.3334 112.976 14.4313 110.86 14.2539 110.646Z" fill="#EE3400"/>
<path d="M1.55945 115.996L1.94469 116.994C1.94469 116.994 11.8814 117.083 14.2051 115.033C14.2051 115.033 14.2357 114.688 14.2601 114.188C8.56103 116.322 1.55945 115.996 1.55945 115.996Z" fill="#FECB27"/>
<g style="mix-blend-mode:multiply">
<g style="mix-blend-mode:multiply">
<path d="M10.6155 115.223C9.48155 115.907 8.25768 116.438 6.97717 116.804C9.80838 116.578 13.0126 116.085 14.205 115.021C14.205 115.021 14.2356 114.676 14.26 114.177C13.0749 114.616 11.8564 114.966 10.6155 115.223V115.223Z" fill="#FECB27"/>
</g>
</g>
<path d="M38.2915 91.3388C38.2915 91.3388 41.3062 105.748 44.7856 110.717L48.216 109.867C48.216 109.867 47.1948 96.9977 46.2165 90.3521L38.2915 91.3388Z" fill="#F4D9BF"/>
<g style="mix-blend-mode:multiply">
<path d="M46.5957 93.2054C46.4673 92.183 46.345 91.2319 46.2166 90.376L38.2672 91.3389C38.2672 91.3389 38.5791 92.8428 39.1233 95.0362C41.6587 94.6132 44.1569 94.0011 46.5957 93.2054V93.2054Z" fill="#F4D9BF"/>
</g>
<path d="M45.9842 104.119C44.6573 104.351 43.3365 104.582 42.0095 104.802C42.6854 106.876 43.6176 108.862 44.7857 110.717L48.2162 109.867C48.2162 109.867 48.0083 107.269 47.6964 103.804C47.1216 103.917 46.5468 104.024 45.9842 104.119Z" fill="#75CDD6"/>
<path d="M43.0735 113.79C43.0735 114.349 43.0735 114.729 43.0735 114.729C46.4258 116.384 50.1673 117.15 53.9213 116.952C53.9213 116.952 57.0828 116.501 57.4007 115.104C57.41 115.055 57.41 115.004 57.4007 114.955L57.1806 115.074C51.7444 117.862 43.0796 113.79 43.0735 113.79Z" fill="#FECB27"/>
<path d="M49.5921 109.463C49.5349 109.139 49.37 108.842 49.1226 108.617C48.8752 108.393 48.559 108.253 48.2223 108.22C46.9993 108.066 44.7368 109.564 44.7368 109.564C44.7368 109.564 43.9786 108.553 43.5138 109.136C43.1592 109.564 43.1041 112.31 43.098 113.79C43.098 113.79 51.769 117.862 57.2174 115.074L57.4375 114.955C57.2051 113.433 49.5921 109.463 49.5921 109.463Z" fill="#EE3400"/>
<g style="mix-blend-mode:multiply">
<g style="mix-blend-mode:multiply">
<path d="M57.4131 114.955L57.193 115.074C56.4732 115.437 55.7027 115.695 54.906 115.841C55.0471 116.099 55.1677 116.367 55.2668 116.643C56.1718 116.364 57.2297 115.883 57.407 115.104C57.4183 115.055 57.4204 115.005 57.4131 114.955V114.955Z" fill="#FECB27"/>
</g>
</g>
<path d="M7.02606 68.2517C7.02606 68.2517 3.28985 80.9129 1.755 87.5585C1.755 87.5585 17.1585 94.0377 26.4715 94.4597L29.2538 82.9101L31.7548 94.4597C31.7548 94.4597 46.6324 92.4565 54.6918 88.9851C54.6918 88.9851 52.8574 72.9714 51.2797 68.3944L7.02606 68.2517Z" fill="#093F4E"/>
<path d="M45.0424 72.8641C45.4032 74.6474 45.9474 76.8289 47.2682 78.1604C48.748 79.6584 51.4264 80.6689 53.536 80.0685C52.8878 75.5806 52.0623 70.6231 51.2796 68.394H44.9201C44.7059 69.8804 44.7472 71.391 45.0424 72.8641V72.8641Z" fill="#1E6276"/>
<path d="M7.91279 75.6878C9.79618 73.6727 10.1814 70.7481 11.0497 68.2634H7.02612C7.02612 68.2634 5.72365 72.674 4.34167 77.6553C5.63804 76.9777 7.27072 76.3832 7.91279 75.6878Z" fill="#1E6276"/>
<g style="mix-blend-mode:multiply" opacity="0.4">
<path d="M6.68964 73.0488C8.02421 74.0964 9.42974 75.0556 10.8967 75.9198C13.5322 77.2811 16.8098 77.6555 19.7144 78.1014C23.033 78.5904 26.3866 78.819 29.7429 78.7849C35.2865 78.8564 40.8253 78.4346 46.2899 77.5248C48.534 77.1166 50.7376 76.52 52.8756 75.7415C52.5182 73.2519 51.9849 70.7891 51.2796 68.3707L7.02596 68.228C7.02596 68.228 6.53065 69.9043 5.80298 72.389C6.16987 72.6386 6.48173 72.9002 6.68964 73.0488Z" fill="#004F86"/>
</g>
<g style="mix-blend-mode:multiply" opacity="0.4">
<path d="M49.1394 90.9048C51.03 90.3792 52.8844 89.7379 54.6917 88.9848C54.6917 88.9848 52.8573 72.9711 51.2796 68.394L46.5956 68.4832C48.042 75.8814 48.8925 83.378 49.1394 90.9048V90.9048Z" fill="#004F86"/>
</g>
<g style="mix-blend-mode:multiply" opacity="0.4">
<path d="M36.1209 80.6509C32.8678 81.382 29.4618 81.3642 26.1108 81.1978C24.238 81.1312 22.3702 80.9665 20.5156 80.7044C20.7663 80.853 21.017 80.9897 21.28 81.1145C22.3868 81.6436 23.9155 82.3034 24.2824 83.5814C24.3686 84.2607 24.2673 84.95 23.9889 85.5786C23.6403 86.7675 23.3224 87.9563 23.035 89.1987C22.6742 90.762 22.3195 92.3253 21.9343 93.8827C23.4293 94.191 24.946 94.3897 26.4716 94.4771L29.2538 82.9275C29.2538 82.9275 34.2008 81.8338 36.1209 80.6509Z" fill="#004F86"/>
</g>
<path d="M17.3052 36.557C17.3052 36.557 13.0248 34.2982 1.755 43.0005C3.73624 46.8345 6.09048 49.1825 8.48142 50.4189L11.1292 48.5227C10.851 50.3441 10.7568 52.1877 10.8479 54.027C10.9824 55.8875 6.44515 58.9607 7.79043 67.6987L53.2854 70.0764C53.2854 70.0764 54.7652 63.0444 51.9768 58.7348C49.1884 54.4253 53.4383 51.0073 57.9878 47.7083C57.5903 42.0554 49.7571 31.6173 37.6679 34.9164C29.9631 37.7517 25.2852 38.9168 17.3052 36.557Z" fill="#FF9E1F"/>
<path d="M8.46307 50.4189L11.1108 48.5227C11.1108 48.5227 8.05337 52.5053 8.19401 55.5963C8.30408 57.1418 5.38727 62.9731 4.40276 70.4568C9.56987 75.7412 21.5245 76.9955 28.2081 76.936C36.9892 76.8706 45.9414 76.2822 54.5451 73.6013C54.2549 67.5677 53.6015 61.5557 52.5883 55.5963C51.665 50.5913 53.4505 51.0192 58 47.7083C57.6025 42.0554 49.7693 31.6173 37.6801 34.9164C29.9631 37.7517 28.6484 37.4486 20.6623 35.1125C20.6623 35.1125 13.0431 34.2982 1.755 43.0005C3.73624 46.8345 6.11494 49.1825 8.46307 50.4189Z" fill="#7CC242"/>
<path d="M11.1108 48.5225C11.1655 48.0233 11.2472 47.5273 11.3554 47.0365C11.4594 46.5966 11.5756 46.0735 11.7468 45.5266C11.8202 45.2591 11.918 44.9798 12.0158 44.6944C12.1137 44.4091 12.2238 44.1 12.3338 43.8444C12.4439 43.5888 12.5723 43.2857 12.7007 43.0122C12.8291 42.7388 12.9637 42.4772 13.1043 42.2276C13.2323 41.9849 13.3731 41.7488 13.5262 41.5202C13.6791 41.3062 13.8075 41.0922 13.9482 40.9258C14.0888 40.7594 14.2233 40.581 14.3395 40.4324C14.4557 40.2838 14.578 40.1828 14.6697 40.0817L14.9632 39.7786L14.7125 40.1174C14.6391 40.2244 14.5291 40.3433 14.4251 40.4978C14.3212 40.6524 14.2172 40.8307 14.0888 41.015C13.9604 41.1992 13.8503 41.4251 13.7158 41.645C13.5813 41.865 13.4712 42.1206 13.3367 42.3643C13.2021 42.608 13.0921 42.8814 12.9637 43.1489C12.8352 43.4164 12.7252 43.6958 12.609 43.9692C12.4928 44.2427 12.3827 44.528 12.2849 44.8074C12.1871 45.0867 12.077 45.3542 11.9914 45.6277C11.8079 46.1567 11.649 46.656 11.5144 47.09C11.3799 47.5239 11.2821 47.8865 11.2148 48.1421L11.1108 48.5225Z" fill="#1F943D"/>
<path d="M12.9882 39.4873C12.9882 39.4873 12.9454 39.6954 12.8659 40.0163C12.8353 40.1768 12.7864 40.3611 12.7558 40.5632C12.7558 40.6583 12.7252 40.7594 12.713 40.8664C12.7008 40.9734 12.713 41.0744 12.6763 41.1755C12.6396 41.2765 12.6763 41.3895 12.6763 41.4905C12.6763 41.5916 12.6763 41.6926 12.6763 41.7937C12.6763 41.8947 12.6763 41.9839 12.713 42.0671C12.7497 42.1503 12.7497 42.2395 12.7741 42.3168L12.8475 42.5248C12.8475 42.5842 12.8964 42.6318 12.9148 42.6793L12.9821 42.8161L12.872 42.7091C12.8262 42.6683 12.7833 42.6246 12.7436 42.5783C12.7069 42.5189 12.658 42.4535 12.6152 42.3821C12.5705 42.2996 12.5317 42.2142 12.499 42.1265C12.4604 42.0305 12.4317 41.9309 12.4134 41.8293C12.4134 41.7223 12.3767 41.3835 12.3644 41.2706C12.3522 41.1576 12.3644 41.2706 12.3644 41.1576C12.3802 40.9364 12.4191 40.7173 12.4806 40.5038C12.5327 40.3176 12.6022 40.1365 12.6885 39.9628C12.7695 39.7938 12.87 39.6342 12.9882 39.4873V39.4873Z" fill="#1F943D"/>
<path d="M45.1526 40.9021C45.2444 40.9922 45.3283 41.0896 45.4033 41.1934C45.4959 41.3102 45.5797 41.4333 45.654 41.5619C45.7626 41.7221 45.8567 41.8912 45.9353 42.0672C46.0209 42.2633 46.1187 42.4654 46.2288 42.6616C46.3389 42.8577 46.3939 43.1252 46.4734 43.3749C46.5162 43.4997 46.559 43.6305 46.6079 43.7553C46.6569 43.8802 46.6691 44.0169 46.7058 44.1536C46.7608 44.427 46.822 44.6945 46.8892 44.9739C46.9469 45.2449 46.9898 45.5187 47.0176 45.7942C47.0543 46.0676 47.0849 46.3411 47.1155 46.5967C47.1484 46.8471 47.1667 47.0991 47.1705 47.3516C47.1705 47.5893 47.1705 47.8152 47.1705 48.0233C47.1705 48.4453 47.1705 48.7901 47.1705 49.0338C47.1705 49.2775 47.1705 49.4142 47.1705 49.4142C47.1705 49.4142 47.1705 49.2775 47.1277 49.0338C47.0849 48.7901 47.0543 48.4394 47.0176 48.0352C47.0176 47.8271 46.9748 47.6012 46.9565 47.3694C46.9381 47.1376 46.877 46.8879 46.8525 46.6264C46.8281 46.3648 46.773 46.1033 46.7302 45.8358C46.7033 45.5638 46.6584 45.2938 46.5957 45.0274C46.5346 44.754 46.4795 44.4865 46.4245 44.219C46.3878 44.0882 46.3695 43.9515 46.3328 43.8267L46.2227 43.4462C46.1493 43.2025 46.0821 42.9588 46.0209 42.7329L45.7824 42.1385C45.7176 41.9581 45.642 41.7814 45.5562 41.6095C45.4963 41.4752 45.429 41.3442 45.3544 41.2171L45.2137 40.9734C45.1955 40.948 45.175 40.9242 45.1526 40.9021V40.9021Z" fill="#1F943D"/>
<path d="M44.0642 41.3716L44.3822 41.6866C44.5718 41.8649 44.8225 42.1087 45.0854 42.3227C45.1527 42.3702 45.2138 42.4296 45.2872 42.4772C45.3519 42.5281 45.4193 42.5757 45.489 42.6199C45.5518 42.6649 45.6172 42.7066 45.6847 42.7447C45.7458 42.7804 45.8009 42.822 45.862 42.8517L46.021 42.9349L46.1433 42.9944L46.2595 43.0538H46.1311C46.0174 43.0515 45.9044 43.0355 45.7947 43.0062C45.7212 42.9918 45.6495 42.9699 45.5807 42.9408C45.5015 42.911 45.424 42.8773 45.3483 42.8398C45.1875 42.756 45.0359 42.6564 44.8958 42.5426C44.7554 42.4279 44.6264 42.3005 44.5106 42.1622C44.4134 42.0439 44.3255 41.9188 44.2477 41.7877C44.1678 41.6575 44.1061 41.5176 44.0642 41.3716V41.3716Z" fill="#1F943D"/>
<path d="M24.0316 52.6064C24.2323 52.5499 24.4366 52.5062 24.6431 52.4756C24.8452 52.4382 25.0494 52.4124 25.2546 52.3983C25.487 52.3983 25.7316 52.3983 25.9762 52.3686C26.2208 52.3389 26.4715 52.3686 26.7038 52.4043C26.9362 52.4399 27.1502 52.4637 27.3153 52.4994C27.6822 52.5886 27.9268 52.6658 27.9268 52.6658C27.7231 52.6767 27.519 52.6767 27.3153 52.6658H25.2729H24.6615C24.2762 52.6302 24.0316 52.6064 24.0316 52.6064Z" fill="#1F943D"/>
<path d="M42.0278 52.9689C42.0278 52.9689 42.2663 52.8976 42.6393 52.8203L43.2508 52.7015L43.9357 52.5707C44.1681 52.5707 44.3943 52.4875 44.6144 52.4577C44.8346 52.428 45.0364 52.3686 45.2259 52.3448C45.4155 52.321 45.5439 52.2675 45.6479 52.2497L45.813 52.22L45.6723 52.3032C45.5471 52.3797 45.4163 52.4472 45.281 52.5053L45.0058 52.6063C44.908 52.6063 44.804 52.6777 44.6939 52.7015C44.4799 52.7609 44.2414 52.8203 44.0091 52.8619L43.6544 52.9154L43.3058 52.9511C43.1028 52.9736 42.8987 52.9855 42.6944 52.9868C42.472 52.9979 42.2492 52.9919 42.0278 52.9689V52.9689Z" fill="#1F943D"/>
<g style="mix-blend-mode:multiply">
<path d="M52.1236 39.6897C53.8812 42.111 55.1053 44.8592 55.7192 47.7619C55.7987 48.2077 55.8721 48.6535 55.9393 49.1053C56.5508 48.713 57.2296 48.2672 58.0001 47.7084C57.7371 43.9635 54.2088 38.1323 48.3446 35.5703C49.7906 36.7705 51.0619 38.1563 52.1236 39.6897V39.6897Z" fill="#7CC242"/>
</g>
<g style="mix-blend-mode:multiply">
<path d="M54.5452 73.5717C54.2538 67.548 53.6004 61.5459 52.5884 55.5964C52.0381 52.6243 52.4478 51.5721 53.8114 50.5141C52.3332 50.8499 50.7952 50.8499 49.3169 50.5141C48.6405 50.4197 48.024 50.0851 47.5864 49.5749C47.4091 49.6165 47.2073 49.5273 47.2379 49.3074C47.2619 49.122 47.2762 48.9355 47.2807 48.7486C47.1584 47.9402 47.1278 47.0961 47.0789 46.258C47.03 45.4199 46.767 44.6174 46.608 43.9338C46.4913 43.4286 46.338 42.932 46.1494 42.4478C45.8251 41.9042 45.4527 41.389 45.0365 40.9082C45.862 42.745 45.862 44.873 45.862 46.9178C45.8378 49.9926 45.648 53.064 45.2933 56.1195C45.2933 56.803 45.2444 57.4866 45.1833 58.1583C44.7858 62.4619 42.1747 66.0582 38.8849 68.8579C38.832 68.8965 38.7676 68.9173 38.7014 68.9173C38.6353 68.9173 38.5709 68.8965 38.518 68.8579C38.3284 69.0125 38.1511 69.1848 37.9493 69.3334C36.5001 70.445 34.6839 70.9146 33.0574 71.7111C34.0602 73.0129 36.3961 73.2923 37.9493 73.3517C40.542 73.4468 42.8779 72.4779 45.2261 71.5328C45.2642 71.5219 45.3042 71.5186 45.3437 71.5229C45.3832 71.5272 45.4214 71.5391 45.4561 71.5579C45.4908 71.5767 45.5213 71.6021 45.5459 71.6325C45.5704 71.6628 45.5885 71.6977 45.5991 71.7349C45.8139 73.0277 45.8673 74.341 45.7581 75.6462C48.7345 75.1602 51.6711 74.4669 54.5452 73.5717V73.5717Z" fill="#7CC242"/>
</g>
<g style="mix-blend-mode:multiply">
<path d="M13.4528 41.5144C12.2726 42.7032 10.9763 43.6662 9.70437 44.7361C8.57923 45.6694 7.52746 46.6799 6.41455 47.6191L5.56458 48.2908C6.4199 49.1325 7.3962 49.8493 8.46305 50.4188L11.0986 48.5345C11.921 45.9323 12.9116 43.3831 14.0643 40.9021L13.4528 41.5144Z" fill="#7CC242"/>
</g>
<g style="mix-blend-mode:multiply">
<path d="M19.8186 56.9989C21.2006 56.4402 22.6987 55.6615 23.4875 54.3716C24.1941 53.0138 24.6455 51.5444 24.8206 50.0323C25.3786 47.4895 26.177 45.0022 27.2054 42.6021C25.9152 44.1535 24.7105 45.8773 22.9739 46.9176C22.3035 47.2204 21.6848 47.6213 21.1394 48.1064C20.7236 48.57 20.4545 49.0991 20.0693 49.5746C19.338 50.4787 18.4984 51.2949 17.5683 52.0058C14.8352 54.1625 11.5888 55.6177 8.12687 56.2381C7.98124 56.8813 7.79956 57.5163 7.58264 58.1402C8.75059 58.2056 9.94911 58.4374 11.1415 58.5088C14.1137 58.6429 17.0789 58.1269 19.8186 56.9989Z" fill="#7CC242"/>
</g>
<g style="mix-blend-mode:multiply">
<path d="M34.5678 39.9574C38.5303 39.0638 42.2017 37.2252 45.2506 34.6076C42.7372 34.1185 40.1392 34.2307 37.6803 34.9345C29.9633 37.7521 28.6486 37.4489 20.6625 35.1129C19.4298 35.0571 18.1952 35.1672 16.9935 35.4398C20.3323 40.421 29.2906 41.0987 34.5678 39.9574Z" fill="#7CC242"/>
</g>
<path d="M45.6847 28.7698C46.6753 26.3267 47.6598 20.2101 47.6598 20.2101C47.6598 20.2101 46.9689 19.8832 47.2929 18.5101C45.8254 20.6143 44.5107 21.4406 43.6729 21.1374C42.8352 20.8343 41.4654 19.3542 42.7129 16.7744C38.8238 18.843 38.0533 17.7968 39.741 16.1799C31.5348 20.0615 28.5446 17.2975 31.278 14.0163C27.3522 15.7222 26.5573 15.0208 27.3522 13.4932C24.6849 14.9756 21.7135 15.8666 18.6507 16.1027C18.6507 16.1027 16.6756 21.6843 17.6356 24.3116C16.7375 25.174 16.03 26.2056 15.5565 27.3432C15.5565 27.3432 12.3217 35.5521 24.5455 38.3935C34.8797 40.6285 40.4748 37.3176 43.0737 35.4214C45.5135 33.5133 47.3358 30.4758 45.6847 28.7698Z" fill="#F4D9BF"/>
<path d="M13.2999 23.5392C11.9913 25.6851 14.6146 27.3435 15.5563 27.3435C16.032 26.2123 16.7393 25.1869 17.6354 24.3298C17.4362 23.705 17.3493 23.0514 17.3786 22.3979C16.6725 22.0718 15.8682 22.0078 15.117 22.218C14.3658 22.4282 13.7196 22.8981 13.2999 23.5392V23.5392Z" fill="#F4D9BF"/>
<g style="mix-blend-mode:multiply">
<path d="M13.2999 23.5392C11.9913 25.6851 14.6146 27.3435 15.5563 27.3435C16.032 26.2123 16.7393 25.1869 17.6354 24.3298C17.4362 23.705 17.3493 23.0514 17.3786 22.3979C16.6725 22.0718 15.8682 22.0078 15.117 22.218C14.3658 22.4282 13.7196 22.8981 13.2999 23.5392V23.5392Z" fill="#F4D9BF"/>
</g>
<path d="M49.2007 27.278C48.7804 26.9424 48.2569 26.7526 47.7132 26.7386C47.1694 26.7246 46.6363 26.8872 46.1983 27.2007C46.0557 27.7323 45.8843 28.2561 45.6846 28.77C46.6753 29.7983 46.4123 31.3022 45.5134 32.7645C48.9194 34.3219 51.665 29.0315 49.2007 27.278Z" fill="#F4D9BF"/>
<path d="M56.3795 18.7897C56.141 16.0554 53.799 13.749 52.2336 13.2378C54.5389 12.9525 54.7896 12.685 54.7223 12.3343C54.6551 11.9836 53.4076 10.0577 49.4757 10.9017C51.3102 7.22823 50.1239 5.07642 48.3995 8.68456C47.2988 3.88163 41.4774 -1.18878 42.3702 3.70331C38.1387 0.546929 27.6944 -1.38494 19.1335 1.20674C14.37 2.56796 14.1498 4.51172 17.3296 4.77326C12.242 7.22228 10.487 10.3252 13.2632 9.92095C9.10503 13.6183 8.33455 18.0824 9.22121 18.5757C10.1079 19.0691 12.8412 16.9054 12.8412 16.9054C12.8412 16.9054 10.646 20.6443 13.3243 23.5391C13.7364 22.8898 14.3793 22.41 15.1311 22.1909C15.8829 21.9718 16.6913 22.0285 17.403 22.3503C17.5361 20.2238 17.9555 18.1234 18.6504 16.1029C21.7152 15.8596 24.6867 14.9604 27.3519 13.4696C26.557 14.9973 27.3519 15.6987 31.2777 13.9927C28.5444 17.2739 31.5345 20.038 39.7408 16.1564C38.0531 17.7851 38.8235 18.8313 42.7126 16.7509C41.4896 19.3306 42.8288 20.8167 43.6727 21.1139C44.5165 21.4111 45.8251 20.5908 47.2927 18.4866C46.9686 19.8597 47.6596 20.1866 47.6596 20.1866C47.6596 20.1866 46.987 24.3476 46.1981 27.1889C46.6362 26.8754 47.1692 26.7128 47.713 26.7268C48.2567 26.7408 48.7802 26.9306 49.2006 27.2662C51.6465 29.0494 48.9193 34.3101 45.5316 32.7527C44.8781 33.7692 44.0509 34.6698 43.0856 35.4157C46.5283 35.6832 52.1969 31.4806 51.6465 25.7326C51.6465 25.7326 52.5638 27.9022 53.2242 28.0033C53.8846 28.1043 55.4622 23.5273 53.958 20.1093C56.2572 22.1779 56.6118 21.5241 56.3795 18.7897Z" fill="#D17A23"/>
<path d="M49.213 29.8816C49.2619 29.1683 48.6688 28.5739 47.99 28.9662C47.3844 29.4279 46.9246 30.0458 46.6631 30.7495C46.6631 30.797 46.6998 30.8446 46.7365 30.803C46.9933 30.4998 47.1829 30.161 47.4213 29.8459C47.4886 29.8994 47.562 29.9351 47.6109 29.9708C47.8746 30.1662 48.1003 30.4057 48.2774 30.6781C48.2774 30.7257 48.3753 30.6781 48.3569 30.6425C48.1806 30.2571 47.9246 29.9111 47.6048 29.626C47.7789 29.3914 48.0252 29.2166 48.308 29.1267C48.736 29.0494 49.0112 29.5963 49.1091 29.9054C49.1107 29.912 49.1136 29.9183 49.1177 29.9238C49.1218 29.9294 49.127 29.934 49.1329 29.9376C49.1389 29.9412 49.1455 29.9436 49.1524 29.9447C49.1594 29.9458 49.1664 29.9456 49.1733 29.944C49.1801 29.9425 49.1865 29.9396 49.1922 29.9356C49.1979 29.9317 49.2027 29.9266 49.2064 29.9208C49.2101 29.915 49.2126 29.9086 49.2137 29.9019C49.2149 29.8951 49.2146 29.8882 49.213 29.8816V29.8816Z" fill="#C39368"/>
<path d="M14.2662 23.7769C14.6025 23.1468 15.428 22.9329 15.8194 23.6224C16.0855 24.3194 16.1489 25.0742 16.0028 25.8039C16.0028 25.8455 15.9172 25.8574 15.9111 25.8039C15.8561 25.4116 15.8744 25.0252 15.8377 24.6151C15.7582 24.6151 15.6726 24.6151 15.6115 24.6151C15.2811 24.6458 14.9596 24.7366 14.6637 24.8826C14.6536 24.885 14.6429 24.8843 14.6333 24.8805C14.6236 24.8767 14.6155 24.87 14.61 24.8614C14.6046 24.8528 14.6021 24.8427 14.6029 24.8326C14.6038 24.8225 14.6079 24.8129 14.6147 24.8053C14.9774 24.5871 15.3804 24.4397 15.801 24.3714C15.7681 24.0755 15.6372 23.798 15.428 23.5808C15.0978 23.2954 14.5719 23.6283 14.3273 23.8423C14.2845 23.8661 14.2479 23.8185 14.2662 23.7769Z" fill="#C39368"/>
<path d="M27.7127 26.7076C27.6247 26.6466 27.5328 26.591 27.4376 26.5412C27.1917 26.4096 26.9312 26.3059 26.661 26.2321C26.4843 26.1798 26.3013 26.1498 26.1168 26.1429C26.019 26.137 25.921 26.137 25.8232 26.1429C25.7235 26.1556 25.6252 26.1775 25.5297 26.2083L25.3768 26.2618L25.2423 26.3332C25.1471 26.3837 25.0588 26.4456 24.9794 26.5174L24.9243 26.559L24.8693 26.6244L24.7531 26.7552C24.7264 26.7955 24.7019 26.8372 24.6797 26.88L24.6431 26.9454V27.0167C24.6216 27.1147 24.6216 27.216 24.6431 27.314C24.6608 27.4133 24.6938 27.5094 24.7409 27.5993C24.8392 27.7856 24.9719 27.9528 25.1322 28.0926C25.282 28.2263 25.4414 28.3495 25.6092 28.4612C25.7657 28.5631 25.9291 28.6544 26.0984 28.7346L26.5326 28.9248C26.6671 28.9783 26.7833 29.0081 26.8811 29.0378L27.193 29.115H27.1074C27.0585 29.115 26.9728 29.115 26.875 29.115C26.749 29.0948 26.6245 29.067 26.502 29.0318C26.3456 28.9931 26.1924 28.9434 26.0434 28.8832C25.6644 28.7407 25.3114 28.54 24.9977 28.2888C24.8202 28.1351 24.6694 27.9544 24.5513 27.7538C24.4949 27.6421 24.4518 27.5244 24.4229 27.4031C24.3986 27.2774 24.3986 27.1484 24.4229 27.0227V26.9276C24.4229 26.9276 24.4596 26.8681 24.4718 26.8384L24.5758 26.672L24.692 26.5471L24.7531 26.4877C24.7531 26.4461 24.802 26.4461 24.8265 26.4223C24.9194 26.3457 25.0198 26.278 25.1261 26.2202L25.2912 26.1429L25.4563 26.0894C25.5658 26.0563 25.6785 26.0344 25.7927 26.0241C25.9005 26.0151 26.0089 26.0151 26.1168 26.0241C26.3111 26.0412 26.5023 26.0832 26.6854 26.1489C26.9556 26.245 27.2108 26.377 27.4437 26.5412C27.5374 26.5904 27.6273 26.646 27.7127 26.7076V26.7076Z" fill="#C9976D"/>
<path d="M26.9055 25.1738C26.9114 25.2292 26.9114 25.2849 26.9055 25.3403C26.9017 25.456 26.879 25.5703 26.8383 25.6791C26.8005 25.787 26.747 25.8891 26.6793 25.9822C26.6483 26.0301 26.6113 26.074 26.5692 26.113C26.565 26.0576 26.565 26.002 26.5692 25.9466C26.5785 25.8315 26.6011 25.7179 26.6365 25.6078C26.6783 25.4996 26.7315 25.396 26.7955 25.2987C26.8285 25.2542 26.8654 25.2124 26.9055 25.1738V25.1738Z" fill="#C9976D"/>
<path d="M24.4047 20.2817C24.4047 20.2817 24.3619 20.1985 24.2946 20.0499C24.2274 19.9013 24.1295 19.6933 23.995 19.4555L23.7687 19.0929C23.6828 18.9707 23.5845 18.8572 23.4752 18.7541C23.3729 18.6529 23.2528 18.5704 23.1206 18.5104C23.0575 18.4881 22.9917 18.4741 22.9249 18.4688H22.8209H22.7047C22.6302 18.4673 22.5559 18.4773 22.4846 18.4985C22.4109 18.5121 22.339 18.534 22.2706 18.5639C22.132 18.6239 22.0024 18.7019 21.8853 18.7957C21.7683 18.8916 21.6599 18.997 21.5612 19.1107C21.471 19.2209 21.3873 19.336 21.3105 19.4555C21.1894 19.6456 21.0831 19.8443 20.9926 20.0499C20.9253 20.1985 20.8947 20.2877 20.8947 20.2877C20.892 20.264 20.892 20.2401 20.8947 20.2164C20.8902 20.153 20.8902 20.0895 20.8947 20.0261C20.9032 19.7905 20.9423 19.5568 21.0109 19.3307C21.0601 19.1778 21.1257 19.0304 21.2066 18.8908C21.2986 18.7303 21.4094 18.5807 21.5368 18.445C21.6822 18.2923 21.854 18.1656 22.0443 18.0705C22.1469 18.0228 22.2532 17.983 22.3623 17.9516C22.4723 17.9237 22.5851 17.9078 22.6986 17.9041H22.8637H23.0411C23.1592 17.9262 23.2742 17.9621 23.3835 18.011C23.5629 18.1214 23.7204 18.2623 23.8482 18.4271C23.964 18.5713 24.0606 18.7291 24.1356 18.8967C24.2003 19.0426 24.2515 19.1938 24.2885 19.3485C24.3462 19.5723 24.379 19.8015 24.3863 20.0321C24.3985 20.1148 24.4046 20.1982 24.4047 20.2817Z" fill="#A95A16"/>
<path d="M32.7576 20.9713C32.7612 20.8714 32.7735 20.772 32.7943 20.6741C32.8405 20.417 32.9164 20.1657 33.0205 19.9251C33.0918 19.7615 33.1777 19.6044 33.2773 19.4555C33.3869 19.2784 33.5229 19.1182 33.6809 18.98C33.7668 18.8994 33.8611 18.8277 33.9622 18.766L34.1151 18.6768L34.2924 18.6055C34.5326 18.5195 34.7901 18.489 35.0445 18.5163H35.1607H35.2341L35.3931 18.552C35.5032 18.5817 35.6316 18.6352 35.7478 18.6768C35.9564 18.7758 36.1515 18.8996 36.3287 19.0454C36.8212 19.4897 37.1608 20.0709 37.301 20.7097C37.3287 20.8049 37.3471 20.9025 37.356 21.001C37.356 21.001 37.301 20.9059 37.197 20.7514C37.093 20.5968 36.9341 20.3888 36.7384 20.1569C36.5175 19.9017 36.2648 19.674 35.9862 19.4793C35.9126 19.4262 35.8349 19.3785 35.7539 19.3366L35.5032 19.2237L35.2586 19.1405L35.0996 19.1107H35.0201H34.9773C34.8065 19.0938 34.634 19.1099 34.4697 19.1583L34.3536 19.1999L34.2374 19.2534C34.1592 19.2912 34.0854 19.337 34.0172 19.3901C33.8771 19.492 33.7461 19.6053 33.6259 19.7289C33.5158 19.8597 33.4119 19.9845 33.3201 20.1094C33.1687 20.3091 33.0298 20.5175 32.9043 20.7335C32.8065 20.8762 32.7576 20.9713 32.7576 20.9713Z" fill="#A95A16"/>
<path d="M35.803 23.3135C35.7174 24.0149 35.4116 24.5559 35.112 24.5024C34.8124 24.4489 34.6473 23.9079 34.7329 23.1768C34.8185 22.4457 35.1242 21.9404 35.4177 21.988C35.7113 22.0355 35.8886 22.618 35.803 23.3135Z" fill="#3D1A0B"/>
<path d="M35.2525 22.7187C35.2097 22.9268 35.1057 23.0813 35.0201 23.0635C34.9345 23.0456 34.8917 22.8614 34.9345 22.6533C34.9773 22.4453 35.0813 22.2848 35.1669 22.3026C35.2525 22.3205 35.2953 22.5047 35.2525 22.7187Z" fill="white"/>
<path d="M24.0438 23.0518C23.9338 23.7473 23.6036 24.2763 23.31 24.2406C23.0165 24.205 22.8636 23.5987 22.9798 22.9032C23.096 22.2077 23.4201 21.7144 23.7197 21.7144C24.0194 21.7144 24.16 22.3563 24.0438 23.0518Z" fill="#3D1A0B"/>
<path d="M23.518 22.4336C23.4691 22.6417 23.359 22.7903 23.2734 22.7725C23.1878 22.7546 23.1511 22.5644 23.2061 22.3564C23.2612 22.1483 23.3651 21.9997 23.4507 22.0235C23.5363 22.0473 23.573 22.2256 23.518 22.4336Z" fill="white"/>
<path d="M34.3293 25.6374C34.3485 25.5807 34.371 25.5252 34.3966 25.471C34.4733 25.3253 34.5655 25.1878 34.6718 25.0608C34.7466 24.9792 34.8262 24.9018 34.9103 24.829C35.0042 24.744 35.1066 24.6683 35.216 24.6031C35.3301 24.5327 35.4486 24.4692 35.5707 24.4129C35.6977 24.3585 35.8285 24.3129 35.962 24.2762C36.0959 24.2358 36.2329 24.206 36.3717 24.187C36.5053 24.1663 36.6401 24.1544 36.7753 24.1514C36.9037 24.1514 37.0321 24.1514 37.1483 24.1514L37.4846 24.187C37.6483 24.2047 37.8099 24.2365 37.9677 24.2821L38.1512 24.3237H37.9616C37.8454 24.3237 37.6742 24.3237 37.4724 24.3237H37.1422L36.7875 24.3535C36.6652 24.3535 36.5368 24.3891 36.4084 24.407C36.28 24.4275 36.1532 24.4573 36.0293 24.4961C35.9009 24.5259 35.7786 24.5793 35.6563 24.615C35.534 24.6507 35.4178 24.7161 35.3138 24.7815C35.212 24.8366 35.114 24.8982 35.0203 24.9657C34.9306 25.0233 34.8467 25.089 34.7696 25.1619C34.6475 25.2653 34.5369 25.3809 34.4394 25.5066L34.3293 25.6374Z" fill="#C9976D"/>
<path d="M21.3226 23.4978L21.4266 23.5572C21.5161 23.6113 21.6018 23.6708 21.6834 23.7356C21.7969 23.8332 21.9032 23.9385 22.0014 24.0506C22.0564 24.1101 22.1115 24.1695 22.1665 24.2408C22.2215 24.3122 22.2582 24.3835 22.3071 24.4548C22.3578 24.5246 22.4028 24.5982 22.4417 24.6748C22.4845 24.7461 22.515 24.8234 22.5517 24.8947C22.5884 24.966 22.619 25.0433 22.6435 25.1087C22.6686 25.1726 22.689 25.2381 22.7046 25.3048C22.7719 25.5545 22.8024 25.7209 22.8024 25.7209C22.7241 25.6021 22.6526 25.479 22.5884 25.3524L22.4906 25.1741C22.4539 25.1206 22.4111 25.0492 22.3744 24.9839L22.2582 24.7758L22.1176 24.5678C22.0748 24.5024 22.0381 24.4251 21.9892 24.3597C21.9402 24.2943 21.8974 24.2289 21.8485 24.1636L21.5917 23.8247C21.5061 23.7296 21.451 23.6405 21.396 23.587C21.3697 23.5588 21.3452 23.529 21.3226 23.4978V23.4978Z" fill="#C9976D"/>
<path d="M20.0264 12.2214L19.8124 12.37C19.6656 12.4651 19.476 12.6019 19.2437 12.7742C19.0113 12.9466 18.7422 13.1368 18.4732 13.3687C18.3325 13.4816 18.1919 13.6064 18.0574 13.7253C17.9228 13.8442 17.7944 13.9809 17.6783 14.1236C17.4407 14.3653 17.2998 14.6815 17.2808 15.0152C17.3034 15.16 17.3669 15.2958 17.4642 15.4075L17.6232 15.5621L17.7944 15.6929C17.9167 15.7582 18.0207 15.8296 18.1246 15.8771C18.2151 15.9254 18.3091 15.9671 18.4059 16.002L18.6505 16.1089L18.3876 16.0495L18.088 15.9663C17.9569 15.9314 17.8299 15.8836 17.7088 15.8236L17.5009 15.7047C17.4287 15.6549 17.3593 15.6014 17.293 15.5442C17.1517 15.4069 17.0577 15.2304 17.024 15.039C16.9952 14.8358 17.0293 14.6289 17.1218 14.4446C17.2033 14.2596 17.3125 14.0873 17.4459 13.9334C17.701 13.6437 17.9904 13.3843 18.3081 13.1606C18.5742 12.9654 18.8542 12.7886 19.1458 12.6316C19.4305 12.4776 19.7246 12.3406 20.0264 12.2214V12.2214Z" fill="#A95A16"/>
<path d="M38.6157 24.8292C38.8665 25.3048 38.1265 26.0181 36.9586 26.3688C35.7906 26.7195 34.6349 26.6541 34.3842 26.1786C34.1335 25.703 34.8612 24.853 36.0291 24.4845C37.1971 24.1159 38.365 24.3715 38.6157 24.8292Z" fill="#F8C0BB"/>
<path d="M22.5579 26.2381C22.2155 26.6423 21.2249 26.3332 20.3382 25.5426C19.4516 24.7521 19.0113 23.7772 19.3415 23.3789C19.6717 22.9807 20.6745 23.2838 21.5612 24.0744C22.4479 24.865 22.8943 25.828 22.5579 26.2381Z" fill="#F8C0BB"/>
<path d="M25.7193 34.3338C22.2818 36.0906 19.0954 38.2768 16.2412 40.8368C14.0092 42.7984 19.262 48.5226 21.6223 50.2286C23.2795 51.3342 24.4657 49.7412 25.1873 47.7737C25.9089 45.8061 30.2015 38.6968 31.186 33.8167C29.4302 34.4009 27.5581 34.578 25.7193 34.3338V34.3338Z" fill="#FFEE71"/>
<path d="M31.186 33.8167C31.0271 33.8761 30.8436 33.9355 30.6602 33.989C29.7062 36.8541 26.1779 46.7453 23.3651 47.2743C22.2155 47.2209 17.8616 42.5903 16.3818 40.7357L16.2412 40.8605C14.0092 42.8221 19.262 48.5464 21.6223 50.2524C23.2795 51.358 24.4657 49.765 25.1873 47.7974C25.9089 45.8299 30.2015 38.6968 31.186 33.8167Z" fill="#EB900C"/>
<g style="mix-blend-mode:multiply">
<g style="mix-blend-mode:multiply">
<path d="M25.7194 34.3338C24.3201 35.0463 22.9662 35.8403 21.6652 36.7115C21.812 36.6758 21.9771 36.6283 22.1606 36.5688C24.0562 35.9744 25.2731 34.946 26.8507 35.0887C28.4284 35.2314 29.0154 35.5405 28.196 38.2154C27.3766 40.8903 25.2792 46.3649 22.5091 44.5816C20.1732 43.1015 17.0057 40.3018 18.5772 38.8871C17.8516 39.4537 17.1198 40.064 16.382 40.7179C17.8679 42.5962 22.2156 47.2565 23.3652 47.2565C26.1781 46.7275 29.7064 36.8363 30.6725 33.9712C29.0658 34.4278 27.3784 34.5514 25.7194 34.3338Z" fill="#FFEE71"/>
</g>
</g>
<g style="mix-blend-mode:multiply" opacity="0.3">
<g style="mix-blend-mode:multiply" opacity="0.3">
<path d="M31.186 33.8167C31.0271 33.8761 30.8436 33.9355 30.6602 33.989C29.7062 36.8541 26.1779 46.7453 23.3651 47.2743C22.2155 47.2209 17.8616 42.5903 16.3818 40.7357L16.2412 40.8605C14.0092 42.8221 19.262 48.5464 21.6223 50.2524C23.2795 51.358 24.4657 49.765 25.1873 47.7974C25.9089 45.8299 30.2015 38.6968 31.186 33.8167ZM22.4111 47.4051C21.8704 47.7186 21.4792 48.2271 21.3227 48.8198C21.1637 49.4737 20.3565 48.4513 20.0997 47.5062C19.8429 46.561 19.3598 45.5327 20.5339 45.7229C20.5155 45.7705 22.8698 47.1317 22.4111 47.4051Z" fill="#EB900C"/>
</g>
</g>
<g style="mix-blend-mode:screen" opacity="0.6">
<path d="M20.6624 45.9725C21.1997 46.3314 21.7086 46.7288 22.185 47.1614C22.2523 47.3754 20.0509 45.7229 20.6624 45.9725Z" fill="#EB900C"/>
</g>
<g style="mix-blend-mode:multiply">
<path d="M23.8482 49.5808C23.304 50.2287 22.454 50.4308 21.9587 50.0326C21.7236 49.7657 21.6033 49.421 21.6226 49.0702C21.642 48.7193 21.7996 48.3892 22.0627 48.1482C22.613 47.5003 23.4569 47.3042 23.9522 47.7024C24.4475 48.1007 24.4047 48.9388 23.8482 49.5808Z" fill="#DC972A"/>
</g>
<path d="M23.8909 49.4498C23.7305 49.697 23.4778 49.8741 23.1858 49.9439C22.8939 50.0138 22.5855 49.9709 22.3254 49.8243C22.0635 49.7173 21.8429 49.5328 21.695 49.2969C21.5471 49.0611 21.4795 48.7859 21.5017 48.5105C21.5239 48.2352 21.6348 47.9736 21.8187 47.7631C22.0026 47.5525 22.2501 47.4036 22.526 47.3376C22.8019 47.2716 23.0922 47.2918 23.3556 47.3954C23.6191 47.499 23.8422 47.6806 23.9933 47.9145C24.1445 48.1484 24.2159 48.4226 24.1975 48.6983C24.1791 48.9739 24.0718 49.2369 23.8909 49.4498V49.4498Z" fill="#FA9745"/>
<g style="mix-blend-mode:multiply">
<g style="mix-blend-mode:multiply">
<path d="M23.7321 42.436C23.6343 42.7748 23.4019 43.0304 23.2185 42.9591C23.035 42.8877 22.9678 42.5905 23.0656 42.2517C23.1634 41.9129 23.3958 41.6573 23.5793 41.7227C23.7627 41.788 23.8483 42.0912 23.7321 42.436Z" fill="#FFEE71"/>
</g>
<g style="mix-blend-mode:multiply">
<path d="M22.558 39.8262C22.295 40.171 21.9465 40.3315 21.7447 40.2007C21.5429 40.0699 21.6285 39.6776 21.8975 39.3388C22.1666 38.9999 22.509 38.8335 22.7108 38.9702C22.9126 39.1069 22.827 39.4755 22.558 39.8262Z" fill="#FFEE71"/>
</g>
<g style="mix-blend-mode:multiply">
<path d="M19.8491 40.4683C19.58 40.8071 19.2376 40.9795 19.0358 40.8427C18.834 40.706 18.9196 40.3197 19.1825 39.9808C19.4455 39.642 19.794 39.4756 20.0019 39.6064C20.2098 39.7371 20.112 40.1294 19.8491 40.4683Z" fill="#FFEE71"/>
</g>
<g style="mix-blend-mode:multiply">
<path d="M26.9912 39.9032C26.7589 40.3906 26.3798 40.6997 26.0924 40.5808C25.805 40.4619 25.7927 39.9864 26.0251 39.4752C26.2575 38.964 26.6366 38.6727 26.924 38.7916C27.2114 38.9105 27.2175 39.4038 26.9912 39.9032Z" fill="#FFEE71"/>
</g>
<g style="mix-blend-mode:multiply">
<path d="M25.6827 37.1036C25.2914 37.6326 24.7472 37.8942 24.4598 37.698C24.1724 37.5019 24.2641 36.9075 24.6554 36.3844C25.0468 35.8613 25.591 35.5938 25.8784 35.79C26.1658 35.9861 26.0924 36.5805 25.6827 37.1036Z" fill="#FFEE71"/>
</g>
<g style="mix-blend-mode:multiply">
<path d="M28.3977 37.2763C28.3059 37.6508 28.0675 37.9242 27.8657 37.8707C27.6639 37.8172 27.566 37.4844 27.6639 37.1039C27.7617 36.7235 27.988 36.456 28.1959 36.5095C28.4038 36.563 28.4894 36.8959 28.3977 37.2763Z" fill="#FFEE71"/>
</g>
<g style="mix-blend-mode:multiply">
<path d="M22.0138 42.7209C21.9343 42.9884 21.757 43.1727 21.6102 43.137C21.4635 43.1014 21.4146 42.8517 21.494 42.5842C21.5735 42.3167 21.7509 42.1325 21.8915 42.1741C22.0322 42.2157 22.1055 42.4594 22.0138 42.7209Z" fill="#FFEE71"/>
</g>
<g style="mix-blend-mode:multiply">
<path d="M28.942 35.487C28.8136 35.7307 28.5996 35.8793 28.4712 35.8139C28.3428 35.7485 28.3366 35.4929 28.4712 35.2195C28.6057 34.9461 28.8136 34.8212 28.9481 34.8926C29.0827 34.9639 29.0704 35.2373 28.942 35.487Z" fill="#FFEE71"/>
</g>
<g style="mix-blend-mode:multiply">
<path d="M24.9857 44.2309C24.9306 44.433 24.7839 44.5697 24.6677 44.534C24.5515 44.4984 24.4965 44.3141 24.5515 44.112C24.6065 43.9099 24.7594 43.7732 24.8756 43.8029C24.9918 43.8326 25.0713 44.0288 24.9857 44.2309Z" fill="#FFEE71"/>
</g>
</g>
<path d="M23.7809 42.2042C23.683 42.5489 23.4507 42.7986 23.2733 42.7391C23.096 42.6797 23.0165 42.3646 23.1144 42.0258C23.2122 41.687 23.4446 41.4314 23.628 41.5027C23.8115 41.5741 23.8787 41.8356 23.7809 42.2042Z" fill="#359717"/>
<g style="mix-blend-mode:screen">
<path d="M23.7013 42.0375C23.6341 42.2693 23.4751 42.4298 23.3528 42.3941C23.2305 42.3585 23.1816 42.1445 23.2488 41.9126C23.3161 41.6808 23.469 41.5203 23.5974 41.556C23.7258 41.5917 23.7625 41.8056 23.7013 42.0375Z" fill="#359717"/>
</g>
<path d="M22.6252 39.5646C22.3562 39.9034 22.0137 40.0699 21.8119 39.9331C21.6101 39.7964 21.6958 39.416 21.9648 39.0712C22.2339 38.7265 22.5763 38.566 22.7781 38.7027C22.9799 38.8394 22.8759 39.2317 22.6252 39.5646Z" fill="#C03A00"/>
<g style="mix-blend-mode:screen">
<path d="M22.558 39.3627C22.3684 39.6005 22.1177 39.7134 21.9893 39.6183C21.8609 39.5232 21.9098 39.2557 22.0994 39.0239C22.2889 38.7921 22.5335 38.6732 22.662 38.7623C22.7904 38.8515 22.7414 39.1249 22.558 39.3627Z" fill="#C03A00"/>
</g>
<path d="M19.8979 40.2186C19.6289 40.5574 19.2864 40.7239 19.0846 40.5872C18.8828 40.4504 18.9685 40.0641 19.2375 39.7252C19.5066 39.3864 19.849 39.22 20.0508 39.3567C20.2526 39.4934 20.1792 39.8739 19.8979 40.2186Z" fill="#359717"/>
<g style="mix-blend-mode:screen">
<path d="M19.8674 39.9632C19.6718 40.2069 19.4149 40.3258 19.2559 40.2247C19.0969 40.1237 19.1764 39.8562 19.366 39.6303C19.5556 39.4044 19.8124 39.2737 19.9408 39.3688C20.0692 39.4639 20.057 39.7254 19.8674 39.9632Z" fill="#359717"/>
</g>
<path d="M27.0403 39.642C26.8079 40.1413 26.4288 40.4444 26.1414 40.3315C25.854 40.2186 25.8479 39.7371 26.0742 39.2199C26.3004 38.7028 26.6857 38.4234 26.9731 38.5363C27.2605 38.6493 27.2727 39.1486 27.0403 39.642Z" fill="#C03A00"/>
<g style="mix-blend-mode:screen">
<path d="M26.9057 39.3985C26.7589 39.7254 26.4899 39.9275 26.2942 39.8503C26.0985 39.773 26.0985 39.4461 26.2514 39.1191C26.4043 38.7922 26.6672 38.596 26.8629 38.6733C27.0586 38.7506 27.0647 39.0716 26.9057 39.3985Z" fill="#C03A00"/>
</g>
<path d="M25.75 36.8541C25.3526 37.3831 24.8083 37.6447 24.5271 37.4485C24.2458 37.2524 24.3314 36.658 24.7227 36.1349C25.1141 35.6118 25.6644 35.3443 25.9457 35.5404C26.227 35.7366 26.1414 36.3251 25.75 36.8541Z" fill="#FA9745"/>
<g style="mix-blend-mode:screen">
<path d="M25.6828 36.6402C25.3709 37.0563 24.9429 37.2346 24.7227 37.1098C24.5026 36.985 24.5699 36.5154 24.8756 36.0755C25.1814 35.6356 25.6155 35.4811 25.8357 35.6118C26.0558 35.7426 26.0069 36.2598 25.6828 36.6402Z" fill="#FA9745"/>
</g>
<path d="M28.4528 37.0204C28.3549 37.4009 28.1226 37.6684 27.9147 37.6149C27.7068 37.5614 27.6211 37.2285 27.7129 36.8481C27.8046 36.4676 28.037 36.2001 28.2449 36.2536C28.4528 36.3071 28.5384 36.646 28.4528 37.0204Z" fill="#E6BD7D"/>
<path d="M22.0749 42.4713C22.0015 42.7388 21.8181 42.923 21.6774 42.8814C21.5368 42.8398 21.4756 42.5961 21.5551 42.3286C21.6346 42.0611 21.8119 41.8769 21.9587 41.9185C22.1055 41.9601 22.1544 42.2038 22.0749 42.4713Z" fill="#E6BD7D"/>
<path d="M28.9969 35.2315C28.8624 35.4811 28.6545 35.6238 28.52 35.5643C28.3854 35.5049 28.3854 35.2434 28.52 34.9699C28.6545 34.6965 28.8624 34.5776 28.9908 34.637C29.1192 34.6965 29.1253 34.9878 28.9969 35.2315Z" fill="#C03A00"/>
<path d="M25.0344 43.9875C24.9794 44.1896 24.8388 44.3263 24.7165 44.2966C24.5942 44.2668 24.5453 44.0707 24.6064 43.8686C24.6676 43.6665 24.8082 43.5298 24.9244 43.5595C25.0406 43.5892 25.0711 43.7735 25.0344 43.9875Z" fill="#E6BD7D"/>
<path d="M7.02611 49.4441L5.50349 52.119C5.50349 52.119 9.87566 52.6005 12.6274 51.2155C11.49 48.3504 12.2299 45.0751 15.5748 42.7985C18.8157 40.9795 22.558 44.3856 22.4663 46.0143C22.3746 46.7217 20.8336 46.1807 20.8336 46.1807C20.8336 46.1807 21.7753 47.1496 21.7325 47.964C22.1175 48.2176 22.3991 48.5942 22.5287 49.0284C22.6582 49.4626 22.6275 49.9272 22.4418 50.3417C22.9799 52.8145 22.1972 53.7418 20.7724 53.9736C19.3477 54.2054 19.1336 53.1771 19.7207 52.0833C19.469 52.2525 19.1706 52.3436 18.8646 52.3449C18.9763 53.0799 18.8386 53.8303 18.4722 54.4825C18.1059 55.1346 17.531 55.6529 16.8344 55.959C14.5841 56.809 13.5691 56.1432 13.5691 56.1432C13.5691 56.1432 6.35347 59.5849 1.98742 57.98C-2.37864 56.3751 1.51045 48.6416 3.55284 45.9014C4.55182 47.2203 5.7189 48.4107 7.02611 49.4441V49.4441Z" fill="#EFCAA6"/>
<g style="mix-blend-mode:multiply">
<path d="M6.48179 50.4007L7.02602 49.4437C5.71725 48.403 4.55011 47.2045 3.55274 45.8772C3.24548 46.291 2.95976 46.7195 2.69666 47.1611C3.81271 48.3919 5.08453 49.4804 6.48179 50.4007V50.4007Z" fill="#F4D9BF"/>
</g>
<path d="M18.8828 49.5211C19.0823 49.4559 19.2868 49.4062 19.4943 49.3725C19.6961 49.3345 19.9005 49.3106 20.1058 49.3012C20.346 49.2837 20.5872 49.2837 20.8274 49.3012C20.951 49.3206 21.0734 49.3464 21.1942 49.3784L21.5367 49.4973C21.6379 49.5447 21.736 49.5983 21.8302 49.6578C21.9158 49.7232 22.0014 49.7767 22.0687 49.8361L22.2399 50.0204C22.2888 50.0798 22.3194 50.1393 22.35 50.1809C22.3805 50.2225 22.4356 50.3236 22.4356 50.3236L22.3255 50.1987C22.2886 50.1482 22.2477 50.1005 22.2032 50.0561L22.0136 49.9312C21.9464 49.8777 21.8608 49.8361 21.7752 49.7767C21.6896 49.7172 21.5856 49.6935 21.4817 49.64L21.1576 49.5389C21.0413 49.508 20.9227 49.4861 20.8029 49.4735C20.5704 49.4374 20.3351 49.4215 20.0997 49.426C19.8673 49.426 19.6594 49.426 19.4882 49.4557C19.2854 49.4675 19.0833 49.4893 18.8828 49.5211V49.5211Z" fill="#C9976D"/>
<path d="M21.2678 51.6614C21.2436 51.6564 21.2187 51.6564 21.1945 51.6614C21.1335 51.6544 21.0719 51.6544 21.011 51.6614H20.8826C20.8398 51.6614 20.797 51.6614 20.7481 51.6614C20.6991 51.6614 20.6563 51.6614 20.6074 51.6614L20.4607 51.703C20.3635 51.7268 20.2692 51.7607 20.1794 51.8041C20.095 51.8309 20.0132 51.8647 19.9348 51.9051L19.6902 52.0121C19.6902 52.0121 19.7697 51.9408 19.8981 51.8457C19.9682 51.7861 20.0464 51.7361 20.1305 51.6971C20.2246 51.6492 20.3228 51.6095 20.424 51.5782L20.583 51.5425C20.6317 51.5373 20.681 51.5373 20.7297 51.5425C20.7806 51.5395 20.8317 51.5395 20.8826 51.5425H21.0171C21.1084 51.5645 21.1938 51.605 21.2678 51.6614V51.6614Z" fill="#C9976D"/>
<path d="M17.6661 47.7142C17.8665 47.6506 18.0707 47.599 18.2776 47.5597C18.4672 47.524 18.6934 47.4824 18.9442 47.4586C19.1949 47.4348 19.4517 47.417 19.7146 47.417C19.9729 47.4222 20.2305 47.4461 20.4851 47.4883C20.6027 47.5052 20.7191 47.529 20.8337 47.5597L21.1333 47.6548L21.384 47.7677C21.4464 47.7979 21.5058 47.8337 21.5613 47.8747L21.7081 47.9698L21.5491 47.8925C21.4878 47.8625 21.4245 47.8367 21.3595 47.8153L21.115 47.7261L20.8092 47.6488L20.4668 47.5953C20.2233 47.5669 19.9782 47.553 19.733 47.5537C19.4762 47.5537 19.2193 47.5537 18.9747 47.5537C18.7301 47.5537 18.51 47.5894 18.3143 47.6132C17.9291 47.6726 17.6661 47.7142 17.6661 47.7142Z" fill="#C9976D"/>
<path d="M16.908 45.7705C17.1014 45.6634 17.3065 45.5777 17.5195 45.5149C17.7349 45.4461 17.9558 45.3944 18.1799 45.3604H18.559C18.6935 45.3604 18.828 45.3604 18.9626 45.3604C19.0963 45.3714 19.2291 45.3913 19.36 45.4198C19.4843 45.4464 19.6068 45.4801 19.7269 45.5208C19.8411 45.5589 19.9516 45.6066 20.0571 45.6635L20.21 45.7408L20.3384 45.824C20.4138 45.8678 20.4854 45.9175 20.5524 45.9726L20.7053 46.1093L20.8398 46.2341L20.6931 46.1331L20.5219 46.0142C20.4607 45.9726 20.3812 45.9369 20.2956 45.8834L20.1794 45.7705L20.0327 45.7111C19.9277 45.6592 19.8169 45.6193 19.7025 45.5922C19.5852 45.5507 19.4645 45.5189 19.3417 45.4971C19.2162 45.475 19.0897 45.4591 18.9626 45.4495C18.8342 45.4495 18.7057 45.4495 18.5773 45.4495H18.2043C17.9841 45.4743 17.7656 45.512 17.55 45.5625C17.3314 45.6177 17.1169 45.6872 16.908 45.7705V45.7705Z" fill="#C9976D"/>
<path d="M3.90137 51.6731C3.91707 51.6916 3.93563 51.7077 3.9564 51.7207C4.00676 51.7579 4.06236 51.7879 4.1215 51.8098C4.18877 51.8455 4.28049 51.8574 4.37222 51.893L4.67796 51.9584L5.24665 52.0595C5.33774 52.0727 5.42768 52.0926 5.51571 52.1189H5.24053C5.14891 52.1247 5.05699 52.1247 4.96536 52.1189L4.64739 52.0773L4.33553 51.9941C4.24701 51.9601 4.16287 51.9162 4.08481 51.8633C4.02625 51.8237 3.97636 51.7732 3.93806 51.7147C3.92413 51.7023 3.91181 51.6884 3.90137 51.6731Z" fill="#C9976D"/>
<path d="M21.7203 30.2561C21.6685 30.2922 21.6194 30.3319 21.5736 30.375C21.4424 30.4938 21.3218 30.623 21.2128 30.7614C21.0345 30.9655 20.9087 31.208 20.8459 31.4687C20.8049 31.6342 20.8023 31.8064 20.8382 31.973C20.8742 32.1395 20.9478 32.2962 21.0538 32.4317C21.3111 32.7521 21.6392 33.0121 22.0138 33.1925C22.4346 33.403 22.8722 33.5799 23.3224 33.7216L23.6771 33.8345L24.0501 33.9237C24.2947 33.9831 24.5454 34.0604 24.8022 34.102C25.0591 34.1436 25.3098 34.1971 25.5727 34.2328L26.3554 34.316L27.1504 34.3457H27.9331C28.1899 34.3457 28.4467 34.3041 28.6974 34.2803C28.9481 34.2565 29.1989 34.1971 29.4435 34.1614C29.6881 34.1258 29.9204 34.0544 30.1528 34.0069C30.3852 33.9593 30.6053 33.8761 30.8254 33.8167L31.4369 33.5967L32.0056 33.359C32.3603 33.1925 32.6844 33.0261 32.9595 32.8656C33.1002 32.7883 33.2225 32.6992 33.3387 32.6278C33.4548 32.5565 33.5588 32.4792 33.6505 32.4079C33.7968 32.306 33.9376 32.1969 34.0724 32.081L34.2131 31.9561C34.2131 31.9561 34.1703 32.0037 34.0786 32.0869C33.9537 32.2136 33.821 32.3327 33.6811 32.4436C33.5836 32.5262 33.4815 32.6035 33.3753 32.6754C33.2592 32.7586 33.143 32.8478 33.0023 32.931C32.6985 33.1306 32.3819 33.3113 32.0545 33.4719C31.8772 33.5492 31.6937 33.6443 31.492 33.7275C31.2902 33.8107 31.0823 33.894 30.8805 33.9712L30.2017 34.1793L29.4863 34.3517C29.2355 34.3933 28.9848 34.4408 28.728 34.4765C28.4712 34.5122 28.2082 34.5359 27.9453 34.5538H27.1442H26.3432L25.5421 34.4646C25.2731 34.4289 25.0163 34.3695 24.7533 34.3219C24.4975 34.2731 24.2444 34.2116 23.9951 34.1377L23.6282 34.0426L23.2613 33.9237C22.7991 33.7705 22.3544 33.5713 21.9343 33.3293C21.5417 33.1312 21.2008 32.8486 20.9376 32.503C20.8243 32.3422 20.7472 32.1598 20.7113 31.968C20.6858 31.7951 20.6984 31.6188 20.748 31.4509C20.8325 31.1851 20.9742 30.9399 21.1639 30.7316C21.2828 30.5977 21.4137 30.4744 21.5552 30.3631C21.6072 30.3231 21.6624 30.2874 21.7203 30.2561Z" fill="#C9976D"/>
<path d="M33.3508 29.7212C33.358 29.7933 33.3703 29.8648 33.3875 29.9352C33.4218 30.1223 33.4688 30.307 33.5282 30.488C33.5647 30.607 33.6076 30.724 33.6566 30.8387C33.7055 30.9635 33.7789 31.0884 33.8339 31.2132C33.8889 31.338 33.9807 31.4688 34.0724 31.5936L34.2069 31.7779L34.3598 31.9503C34.4605 32.066 34.571 32.1734 34.69 32.2713C34.8062 32.3723 34.9346 32.4555 35.0508 32.5447C35.167 32.6339 35.2954 32.6874 35.4116 32.7587C35.5247 32.8183 35.641 32.8719 35.7601 32.9192C35.8596 32.9644 35.9617 33.0041 36.0659 33.0381L36.3043 33.1153L36.5184 33.1926L36.2921 33.1569L36.0414 33.1153C35.9298 33.103 35.8206 33.0749 35.7173 33.0321C35.5896 32.9982 35.4649 32.9544 35.3443 32.9013C35.2056 32.8444 35.0708 32.7788 34.9407 32.7052C34.8184 32.616 34.6717 32.5387 34.5494 32.4318C34.4188 32.3297 34.2981 32.2162 34.1886 32.0929L34.0296 31.9087L33.8951 31.7066C33.8047 31.5771 33.727 31.4398 33.6627 31.2964C33.6001 31.1654 33.547 31.0304 33.5037 30.8922C33.4632 30.7674 33.4305 30.6404 33.4059 30.5118C33.3677 30.3157 33.3473 30.1168 33.3447 29.9174C33.3417 29.8519 33.3438 29.7863 33.3508 29.7212V29.7212Z" fill="#C9976D"/>
<g opacity="0.5">
<path opacity="0.5" d="M56.3796 18.7899C56.2921 17.9369 56.0279 17.1099 55.603 16.3587C55.7375 17.5475 55.6397 18.7007 54.8081 19.1228C52.9736 20.0382 49.8611 15.045 49.8611 15.045C49.8611 15.045 49.3964 19.1584 48.6381 18.9504C47.8799 18.7423 47.6047 14.6289 47.6047 14.6289C47.6047 14.6289 45.4584 19.1881 44.162 18.6353C42.8656 18.0825 44.4311 13.7611 44.4311 13.7611C44.4311 13.7611 41.5693 16.1388 41.0434 15.7643C40.5175 15.3898 42.6272 13.1667 42.6272 13.1667C42.6272 13.1667 35.1058 17.2682 33.2897 16.3706C31.4735 15.473 34.3109 11.4012 34.3109 11.4012C34.3109 11.4012 29.052 13.7789 28.4833 13.2439C27.9147 12.709 29.6574 10.6344 29.6574 10.6344C29.6574 10.6344 20.7908 15.0748 19.5678 14.3317C18.3448 13.5887 22.2033 10.6106 22.2033 10.6106C22.2033 10.6106 15.2017 14.2663 13.8748 13.0775C12.5479 11.8887 16.3208 8.10219 16.3208 8.10219C16.3208 8.10219 14.6086 9.35047 13.3612 9.01165C12.7497 8.84521 13.1349 7.94169 13.6914 7.03223C11.5878 8.77388 11.3004 10.2183 13.2511 9.933C9.09294 13.6303 8.32246 18.0944 9.20913 18.5878C10.0958 19.0812 12.8414 16.9056 12.8414 16.9056C12.8414 16.9056 10.6461 20.6445 13.3245 23.5393C13.7365 22.89 14.3795 22.4102 15.1313 22.1911C15.8831 21.9719 16.6915 22.0286 17.4031 22.3505C17.5362 20.224 17.9556 18.1236 18.6506 16.1031C21.7153 15.8598 24.6868 14.9605 27.3521 13.4698C26.5571 14.9975 27.3521 15.6989 31.2779 13.9929C28.5445 17.2741 31.5347 20.0382 39.7409 16.1566C38.0532 17.7853 38.8237 18.8315 42.7128 16.751C41.4898 19.3308 42.8289 20.8169 43.6728 21.1141C44.5167 21.4113 45.8253 20.591 47.2928 18.4867C46.9687 19.8598 47.6597 20.1868 47.6597 20.1868C47.6597 20.1868 46.9871 24.3477 46.1983 27.1891C46.6363 26.8756 47.1694 26.713 47.7131 26.727C48.2569 26.741 48.7803 26.9308 49.2007 27.2663C51.6467 29.0496 48.9194 34.3102 45.5317 32.7528C44.8782 33.7693 44.051 34.6699 43.0858 35.4159C46.5285 35.6833 52.197 31.4808 51.6467 25.7327C51.6467 25.7327 52.5639 27.9024 53.2243 28.0034C53.8847 28.1045 55.4624 23.5274 53.9581 20.1095C56.2573 22.1781 56.612 21.5242 56.3796 18.7899Z" fill="#7C001F"/>
</g>
<path d="M58.0002 47.7083C58.0002 47.7083 56.82 45.9845 52.9187 46.3827C51.7962 46.4841 50.7071 46.8081 49.7185 47.3346C48.7299 47.8611 47.8627 48.579 47.1707 49.444C47.1707 49.444 51.5734 53.4207 58.0002 47.7083Z" fill="#006B30"/>
<path d="M50.6253 46.9591C50.7232 47.7378 51.3897 53.7949 43.8989 59.1328C43.1588 58.626 42.2981 58.311 41.3979 58.2174C41.3979 58.2174 41.1717 60.4941 41.135 61.1895C41.0983 61.885 39.5573 63.4899 35.3747 63.9476C33.7604 64.2092 33.4791 65.7012 34.855 66.1113C34.855 66.1113 33.8032 66.6166 33.8521 67.3002C33.901 67.9838 35.3258 68.3464 35.3258 68.3464C35.3258 68.3464 34.323 68.9408 34.3719 69.4104C34.4208 69.88 35.6927 70.4328 37.4293 70.2782C36.0168 70.9083 36.0474 72.1031 38.5851 71.9664C41.1228 71.8297 45.4338 68.9943 45.4277 63.692C50.1973 61.2252 57.046 55.9051 55.9453 46.5727C54.174 46.1585 52.3137 46.2936 50.6253 46.9591V46.9591Z" fill="#EFCAA6"/>
<g style="mix-blend-mode:multiply">
<g style="mix-blend-mode:multiply">
<path d="M55.9944 47.5003C55.9944 47.1852 55.9516 46.8642 55.9088 46.5373C54.1484 46.1326 52.3022 46.2697 50.6255 46.9296C50.6601 47.2237 50.6785 47.5193 50.6805 47.8153C52.3808 47.2019 54.23 47.0923 55.9944 47.5003V47.5003Z" fill="#EFCAA6"/>
</g>
</g>
<path d="M34.8184 65.9811C35.1677 66.0479 35.521 66.0936 35.8762 66.1178C36.2388 66.1363 36.6021 66.1363 36.9647 66.1178C37.1665 66.1178 37.3683 66.0881 37.5762 66.0643C37.7841 66.0405 37.9981 66.0108 38.1877 65.9573C38.3948 65.9164 38.599 65.8628 38.7992 65.7968L39.0866 65.7017L39.3679 65.5828L39.6308 65.4639L39.8754 65.3272L40.1078 65.2024L40.3096 65.0597L40.6581 64.8101L40.9027 64.5901C41.0434 64.4653 41.129 64.3999 41.129 64.3999L40.9272 64.608L40.6948 64.8517C40.597 64.9408 40.4808 65.0241 40.3585 65.1251C40.2362 65.2262 40.2301 65.2321 40.1567 65.2797L39.9304 65.4223L39.6858 65.5709C39.6063 65.6185 39.5085 65.6542 39.4229 65.6958L39.1416 65.8206L38.842 65.9276C38.6419 65.9971 38.4377 66.0547 38.2305 66.1C38.0226 66.1535 37.8024 66.1654 37.619 66.201C37.4355 66.2367 37.1971 66.2367 37.0075 66.2426C36.6397 66.246 36.272 66.2261 35.9068 66.1832C35.5384 66.1486 35.174 66.0809 34.8184 65.9811V65.9811Z" fill="#C9976D"/>
<path d="M35.3135 68.3109C35.7202 68.348 36.1297 68.348 36.5365 68.3109C36.9481 68.2915 37.3572 68.2378 37.7594 68.1504C37.9796 68.1029 38.2058 68.0553 38.4321 67.984C38.6609 67.92 38.8855 67.8426 39.1047 67.7522C39.331 67.6808 39.5389 67.5679 39.759 67.4787C39.9792 67.3896 40.1626 67.2647 40.3705 67.1578C40.5784 67.0508 40.7374 66.92 40.9147 66.813C41.0746 66.7092 41.2277 66.5961 41.3734 66.4742C41.5079 66.3612 41.6546 66.2721 41.7525 66.171C41.8503 66.07 41.9543 65.9867 42.0277 65.9154L42.2723 65.7014C42.2723 65.7014 42.1866 65.7846 42.0521 65.9332L41.7892 66.2067C41.6761 66.3248 41.5557 66.436 41.4284 66.5396C41.2852 66.6691 41.134 66.7902 40.9759 66.9022C40.8047 67.0151 40.6335 67.1518 40.4439 67.2647C40.2543 67.3777 40.0464 67.4966 39.8324 67.5976C39.6175 67.7056 39.3971 67.8028 39.172 67.8889C38.9481 67.9747 38.7195 68.0481 38.4871 68.1088C38.2622 68.175 38.0335 68.2286 37.8022 68.2693C37.5821 68.3169 37.3559 68.3347 37.148 68.3644C36.94 68.3942 36.7505 68.3644 36.5365 68.3644C36.2444 68.3693 35.9522 68.3554 35.662 68.3228C35.4297 68.3585 35.3135 68.3109 35.3135 68.3109Z" fill="#C9976D"/>
<path d="M37.5211 70.1776C37.7873 70.1724 38.0528 70.1505 38.3161 70.1122C38.5861 70.0741 38.8536 70.0205 39.1171 69.9517C39.2578 69.9101 39.4106 69.8745 39.5513 69.821C39.7034 69.7743 39.8525 69.7187 39.9977 69.6545C40.1444 69.601 40.2851 69.5238 40.4257 69.4584C40.5663 69.393 40.6948 69.3038 40.8232 69.2384C40.9516 69.1731 41.0617 69.072 41.184 69.0007C41.2883 68.9312 41.3884 68.8558 41.4836 68.7748C41.5753 68.6975 41.667 68.6321 41.7343 68.5667L41.9177 68.4003L42.0828 68.2517L41.9422 68.4181L41.7771 68.6084C41.7021 68.688 41.6225 68.7634 41.5386 68.8342C41.4477 68.9267 41.3496 69.0122 41.2451 69.0898C41.1327 69.1806 41.0142 69.264 40.8904 69.3395C40.7625 69.4257 40.6298 69.505 40.493 69.5773C40.3526 69.6549 40.2076 69.7244 40.0588 69.7853C39.909 69.8486 39.756 69.9041 39.6002 69.9517C39.4473 70.0052 39.2944 70.035 39.1477 70.0766C38.8778 70.1351 38.604 70.1749 38.3283 70.1954C38.1247 70.2086 37.9204 70.2086 37.7168 70.1954L37.5211 70.1776Z" fill="#C9976D"/>
</g>
<defs>
<clipPath id="clip0_616_622">
<rect width="58" height="117" fill="white"/>
</clipPath>
</defs>
</svg>
