<svg width="30" height="30" viewBox="0 0 30 30" fill="none" xmlns="http://www.w3.org/2000/svg">
<path d="M21 6.81818H17.7273C16.2806 6.81818 14.8933 7.39285 13.8703 8.41578C12.8474 9.4387 12.2727 10.8261 12.2727 12.2727V15.5454H9V19.9091H12.2727V28.6364H16.6364V19.9091H19.9091L21 15.5454H16.6364V12.2727C16.6364 11.9834 16.7513 11.7059 16.9559 11.5013C17.1605 11.2967 17.4379 11.1818 17.7273 11.1818H21V6.81818Z" stroke="#357364" stroke-width="1.5" stroke-linecap="round" stroke-linejoin="round"/>
<path fill-rule="evenodd" clip-rule="evenodd" d="M8.81591 0.09C10.4155 0.0163636 10.9255 0 15 0C19.0745 0 19.5845 0.0177273 21.1827 0.09C22.7809 0.162273 23.8718 0.417273 24.8264 0.786818C25.8259 1.16455 26.7327 1.755 27.4827 2.51864C28.2464 3.26727 28.8355 4.17273 29.2118 5.17364C29.5827 6.12818 29.8364 7.21909 29.91 8.81455C29.9836 10.4168 30 10.9268 30 15C30 19.0745 29.9823 19.5845 29.91 21.1841C29.8377 22.7795 29.5827 23.8705 29.2118 24.825C28.8354 25.826 28.2454 26.733 27.4827 27.4827C26.7327 28.2464 25.8259 28.8355 24.8264 29.2118C23.8718 29.5827 22.7809 29.8364 21.1855 29.91C19.5845 29.9836 19.0745 30 15 30C10.9255 30 10.4155 29.9823 8.81591 29.91C7.22046 29.8377 6.12955 29.5827 5.175 29.2118C4.17398 28.8354 3.26703 28.2453 2.51727 27.4827C1.75415 26.7336 1.16361 25.8271 0.786818 24.8264C0.417273 23.8718 0.163636 22.7809 0.09 21.1855C0.0163636 19.5832 0 19.0732 0 15C0 10.9255 0.0177273 10.4155 0.09 8.81727C0.162273 7.21909 0.417273 6.12818 0.786818 5.17364C1.16417 4.17284 1.75516 3.26634 2.51864 2.51727C3.26733 1.75432 4.17337 1.16379 5.17364 0.786818C6.12818 0.417273 7.21909 0.163636 8.81455 0.09H8.81591ZM21.0614 2.79C19.4795 2.71773 19.005 2.70273 15 2.70273C10.995 2.70273 10.5205 2.71773 8.93864 2.79C7.47545 2.85682 6.68182 3.10091 6.15273 3.30682C5.45318 3.57955 4.95273 3.90273 4.42773 4.42773C3.93006 4.91189 3.54706 5.50129 3.30682 6.15273C3.10091 6.68182 2.85682 7.47545 2.79 8.93864C2.71773 10.5205 2.70273 10.995 2.70273 15C2.70273 19.005 2.71773 19.4795 2.79 21.0614C2.85682 22.5245 3.10091 23.3182 3.30682 23.8473C3.54682 24.4977 3.93 25.0882 4.42773 25.5723C4.91182 26.07 5.50227 26.4532 6.15273 26.6932C6.68182 26.8991 7.47545 27.1432 8.93864 27.21C10.5205 27.2823 10.9936 27.2973 15 27.2973C19.0064 27.2973 19.4795 27.2823 21.0614 27.21C22.5245 27.1432 23.3182 26.8991 23.8473 26.6932C24.5468 26.4205 25.0473 26.0973 25.5723 25.5723C26.07 25.0882 26.4532 24.4977 26.6932 23.8473C26.8991 23.3182 27.1432 22.5245 27.21 21.0614C27.2823 19.4795 27.2973 19.005 27.2973 15C27.2973 10.995 27.2823 10.5205 27.21 8.93864C27.1432 7.47545 26.8991 6.68182 26.6932 6.15273C26.4205 5.45318 26.0973 4.95273 25.5723 4.42773C25.0881 3.9301 24.4987 3.54711 23.8473 3.30682C23.3182 3.10091 22.5245 2.85682 21.0614 2.79Z" fill="#357364"/>
</svg>
