<svg width="31" height="30" viewBox="0 0 31 30" fill="none" xmlns="http://www.w3.org/2000/svg">
<path fill-rule="evenodd" clip-rule="evenodd" d="M9.2705 0.09C10.87 0.0163636 11.38 0 15.4546 0C19.5291 0 20.0391 0.0177273 21.6373 0.09C23.2355 0.162273 24.3264 0.417273 25.281 0.786818C26.2805 1.16455 27.1873 1.755 27.9373 2.51864C28.701 3.26727 29.29 4.17273 29.6664 5.17364C30.0373 6.12818 30.291 7.21909 30.3646 8.81455C30.4382 10.4168 30.4546 10.9268 30.4546 15C30.4546 19.0745 30.4369 19.5845 30.3646 21.1841C30.2923 22.7795 30.0373 23.8705 29.6664 24.825C29.29 25.826 28.7 26.733 27.9373 27.4827C27.1873 28.2464 26.2805 28.8355 25.281 29.2118C24.3264 29.5827 23.2355 29.8364 21.64 29.91C20.0391 29.9836 19.5291 30 15.4546 30C11.38 30 10.87 29.9823 9.2705 29.91C7.67504 29.8377 6.58414 29.5827 5.62959 29.2118C4.62857 28.8354 3.72162 28.2453 2.97186 27.4827C2.20874 26.7336 1.6182 25.8271 1.24141 24.8264C0.871863 23.8718 0.618226 22.7809 0.54459 21.1855C0.470953 19.5832 0.45459 19.0732 0.45459 15C0.45459 10.9255 0.472317 10.4155 0.54459 8.81727C0.616863 7.21909 0.871863 6.12818 1.24141 5.17364C1.61876 4.17284 2.20975 3.26634 2.97323 2.51727C3.72192 1.75432 4.62796 1.16379 5.62823 0.786818C6.58277 0.417273 7.67368 0.163636 9.26914 0.09H9.2705ZM21.516 2.79C19.9341 2.71773 19.4596 2.70273 15.4546 2.70273C11.4496 2.70273 10.975 2.71773 9.39323 2.79C7.93004 2.85682 7.13641 3.10091 6.60732 3.30682C5.90777 3.57955 5.40732 3.90273 4.88232 4.42773C4.38465 4.91189 4.00165 5.50129 3.76141 6.15273C3.5555 6.68182 3.31141 7.47545 3.24459 8.93864C3.17232 10.5205 3.15732 10.995 3.15732 15C3.15732 19.005 3.17232 19.4795 3.24459 21.0614C3.31141 22.5245 3.5555 23.3182 3.76141 23.8473C4.00141 24.4977 4.38459 25.0882 4.88232 25.5723C5.36641 26.07 5.95686 26.4532 6.60732 26.6932C7.13641 26.8991 7.93004 27.1432 9.39323 27.21C10.975 27.2823 11.4482 27.2973 15.4546 27.2973C19.461 27.2973 19.9341 27.2823 21.516 27.21C22.9791 27.1432 23.7728 26.8991 24.3019 26.6932C25.0014 26.4205 25.5019 26.0973 26.0269 25.5723C26.5246 25.0882 26.9078 24.4977 27.1478 23.8473C27.3537 23.3182 27.5978 22.5245 27.6646 21.0614C27.7369 19.4795 27.7519 19.005 27.7519 15C27.7519 10.995 27.7369 10.5205 27.6646 8.93864C27.5978 7.47545 27.3537 6.68182 27.1478 6.15273C26.875 5.45318 26.5519 4.95273 26.0269 4.42773C25.5427 3.9301 24.9533 3.54711 24.3019 3.30682C23.7728 3.10091 22.9791 2.85682 21.516 2.79ZM13.5387 19.6241C14.6087 20.0695 15.8001 20.1296 16.9095 19.7942C18.0189 19.4587 18.9774 18.7485 19.6213 17.7849C20.2653 16.8212 20.5547 15.6639 20.4401 14.5106C20.3256 13.3573 19.8141 12.2795 18.9932 11.4614C18.4699 10.9384 17.8372 10.5379 17.1405 10.2888C16.4438 10.0397 15.7006 9.94822 14.9644 10.0208C14.2281 10.0935 13.5171 10.3284 12.8825 10.7088C12.2479 11.0892 11.7056 11.6056 11.2945 12.2207C10.8835 12.8359 10.6139 13.5345 10.5053 14.2663C10.3966 14.9981 10.4516 15.7449 10.6662 16.453C10.8809 17.161 11.2498 17.8127 11.7465 18.361C12.2432 18.9093 12.8553 19.3407 13.5387 19.6241ZM10.0028 9.54818C10.7187 8.83224 11.5687 8.26432 12.5041 7.87686C13.4395 7.48939 14.4421 7.28996 15.4546 7.28996C16.4671 7.28996 17.4697 7.48939 18.4051 7.87686C19.3405 8.26432 20.1905 8.83224 20.9064 9.54818C21.6224 10.2641 22.1903 11.1141 22.5777 12.0495C22.9652 12.9849 23.1646 13.9875 23.1646 15C23.1646 16.0125 22.9652 17.0151 22.5777 17.9505C22.1903 18.8859 21.6224 19.7359 20.9064 20.4518C19.4605 21.8977 17.4994 22.71 15.4546 22.71C13.4098 22.71 11.4487 21.8977 10.0028 20.4518C8.55686 19.0059 7.74455 17.0448 7.74455 15C7.74455 12.9552 8.55686 10.9941 10.0028 9.54818ZM24.8746 8.43818C25.052 8.27082 25.194 8.06956 25.2923 7.84633C25.3905 7.62309 25.443 7.38241 25.4465 7.13854C25.4501 6.89467 25.4047 6.65257 25.313 6.42656C25.2213 6.20055 25.0852 5.99524 24.9127 5.82278C24.7403 5.65032 24.5349 5.51421 24.3089 5.42252C24.0829 5.33083 23.8408 5.28542 23.597 5.28898C23.3531 5.29253 23.1124 5.34498 22.8892 5.44322C22.6659 5.54146 22.4647 5.68349 22.2973 5.86091C21.9718 6.20595 21.7936 6.66426 21.8005 7.13854C21.8075 7.61283 21.9989 8.06574 22.3343 8.40115C22.6698 8.73656 23.1227 8.92804 23.597 8.93495C24.0712 8.94187 24.5296 8.76367 24.8746 8.43818Z" fill="#357364"/>
</svg>
